<svg width="30" height="35" viewBox="0 0 30 35" fill="none" xmlns="http://www.w3.org/2000/svg">
<g clip-path="url(#clip0_8_152)">
<path d="M29.0602 11.9412C26.6024 13.3824 25.0843 15.8529 25.0843 18.598C25.0843 21.6863 27.0361 24.5 30 25.6667C29.4217 27.451 28.5542 29.098 27.4699 30.6078C25.8795 32.7353 24.2169 34.9314 21.759 34.9314C19.3012 34.9314 18.5783 33.5588 15.6867 33.5588C12.8675 33.5588 11.8554 35 9.54217 35C7.22892 35 5.63855 33.0098 3.83133 30.5392C1.44578 27.1078 0.0722892 23.1275 0 18.9412C0 12.1471 4.62651 8.5098 9.25301 8.5098C11.7108 8.5098 13.7349 10.0196 15.253 10.0196C16.6988 10.0196 19.012 8.44118 21.759 8.44118C24.6506 8.37255 27.3976 9.67647 29.0602 11.9412ZM20.4578 5.55882C21.6867 4.18628 22.3373 2.47059 22.4096 0.686275C22.4096 0.480392 22.4096 0.205882 22.3373 0C20.241 0.205882 18.2892 1.16667 16.9157 2.67647C15.6867 3.98039 14.9639 5.62745 14.8916 7.41177C14.8916 7.61765 14.8916 7.82353 14.9639 8.02941C15.1084 8.02941 15.3253 8.09804 15.4699 8.09804C17.4217 7.96078 19.2289 7 20.4578 5.55882Z" fill="white"/>
</g>
<defs>
<clipPath id="clip0_8_152">
<rect width="30" height="35" fill="white"/>
</clipPath>
</defs>
</svg>
