<svg width="35" height="35" viewBox="0 0 35 35" fill="none" xmlns="http://www.w3.org/2000/svg">
<g clip-path="url(#clip0_8_145)">
<path d="M35 17.5C35 7.83502 27.165 7.62939e-06 17.5 7.62939e-06C7.83501 7.62939e-06 0 7.83502 0 17.5C0 26.2348 6.3995 33.4746 14.7656 34.7874V22.5586H10.3223V17.5H14.7656V13.6445C14.7656 9.2586 17.3783 6.83595 21.3756 6.83595C23.2903 6.83595 25.293 7.17774 25.293 7.17774V11.4844H23.0863C20.9123 11.4844 20.2344 12.8334 20.2344 14.2173V17.5H25.0879L24.312 22.5586H20.2344V34.7874C28.6005 33.4746 35 26.2348 35 17.5Z" fill="white"/>
</g>
<defs>
<clipPath id="clip0_8_145">
<rect width="35" height="35" fill="white"/>
</clipPath>
</defs>
</svg>
