<svg width="36" height="36" viewBox="0 0 36 36" fill="none" xmlns="http://www.w3.org/2000/svg">
<path d="M33.5829 18.7183C33.5829 17.5808 33.4808 16.487 33.2912 15.437H18.1829V21.6422H26.8162C26.4443 23.6474 25.3141 25.3464 23.6152 26.4839V30.5089H28.7995C31.8329 27.7162 33.5829 23.6037 33.5829 18.7183Z" fill="#4285F4"/>
<path d="M18.1828 34.3953C22.5141 34.3953 26.1453 32.9589 28.7995 30.5089L23.6151 26.4839C22.1787 27.4464 20.3412 28.0151 18.1828 28.0151C14.0047 28.0151 10.4682 25.1932 9.20679 21.4016H3.84741V25.5578C6.487 30.8005 11.912 34.3953 18.1828 34.3953Z" fill="#34A853"/>
<path d="M9.20674 21.4016C8.88591 20.4391 8.70361 19.411 8.70361 18.3537C8.70361 17.2964 8.88591 16.2683 9.20674 15.3058V11.1495H3.84736C2.72445 13.3849 2.14012 15.8521 2.14111 18.3537C2.14111 20.9422 2.76091 23.3922 3.84736 25.5578L9.20674 21.4016Z" fill="#FBBC05"/>
<path d="M18.1828 8.69222C20.538 8.69222 22.6526 9.50159 24.3151 11.0912L28.9162 6.49014C26.138 3.90159 22.5068 2.31201 18.1828 2.31201C11.912 2.31201 6.487 5.9068 3.84741 11.1495L9.20679 15.3058C10.4682 11.5141 14.0047 8.69222 18.1828 8.69222Z" fill="#EA4335"/>
</svg>
