<svg width="730" height="203" viewBox="0 0 730 203" fill="none" xmlns="http://www.w3.org/2000/svg">
<path d="M45.3742 141.556C28.9768 143.723 19.7172 144.916 17.5952 145.136C15.4732 145.356 13.8085 145.461 12.6012 145.452C11.3938 145.443 10.7283 144.842 10.6047 143.648C10.3713 141.393 12.3102 140.053 16.4216 139.627C17.6815 139.497 18.3766 139.09 18.5069 138.406C18.6966 137.649 18.7262 136.641 18.5957 135.381L16.8385 125.208L16.2817 114.006L14.9887 114.14C13.5298 114.291 12.4116 114.172 11.6341 113.783C10.9161 113.321 10.5227 112.759 10.454 112.096C10.2824 110.438 12.0533 109.417 15.7667 109.032C16.0775 106.855 16.0578 104.076 15.7076 100.694L14.9969 93.8307L14.1352 86.4803L13.8571 83.7947L12.9033 81.3801L2.32525 81.1685C1.64839 81.1045 1.21619 80.8142 1.02863 80.2974C0.907384 79.7738 0.822727 79.2799 0.77466 78.8157C0.719726 78.2852 0.704815 77.8176 0.729927 77.4128C0.814484 76.9349 1.17459 76.529 1.81024 76.1951C5.19216 75.8449 9.06916 75.745 13.4412 75.8955C21.6481 76.1851 26.6798 76.2337 28.5366 76.0414L33.4105 75.5367L35.3896 75.2313L54.7032 69.5115L63.9537 68.5536L64.6741 69.6854L65.9098 78.7061C66.0815 80.3639 66.0073 81.9131 65.6873 83.3538C65.3605 84.7281 64.4013 85.4976 62.8098 85.6624L61.9146 85.7551C61.7157 85.7757 61.5465 85.7597 61.407 85.7072L51.027 76.7286L49.9328 76.8419C45.092 77.3431 41.0482 78.097 37.8012 79.1035C34.5543 80.1099 32.9148 80.7824 32.8829 81.1208C32.8693 82.9318 32.9015 84.537 32.9794 85.9364L33.1925 89.9358C33.2498 91.1363 33.3471 92.3996 33.4844 93.7259L34.6071 104.568C35.6248 105.334 36.863 105.641 38.3219 105.49L38.5208 105.47C40.046 105.312 41.1264 105.066 41.7621 104.732C43.5113 104.149 44.6408 103.73 45.1507 103.476C45.7201 103.149 46.0367 102.647 46.1007 101.97L46.4812 99.8196C46.5451 99.1427 46.6491 98.5288 46.7931 97.9777C46.9966 97.3534 47.463 97.0035 48.1924 96.9279C49.8503 96.7563 50.8302 98.1293 51.1324 101.047C51.3658 103.302 51.334 105.584 51.037 107.893C50.8063 110.196 50.4841 111.938 50.0703 113.121C49.6565 114.303 49.0518 114.935 48.256 115.018L47.2202 114.723C46.5959 114.519 46.2734 114.318 46.2528 114.119L45.6657 108.449L35.8184 109.469L35.256 110.834L35.9049 117.101C36.777 125.523 37.7095 132.262 38.7024 137.32C38.8099 137.711 39.1953 137.872 39.8584 137.804L47.0578 136.455C48.9145 136.263 49.9184 136.896 50.0695 138.355C50.2549 140.145 48.6898 141.212 45.3742 141.556ZM94.5736 103.284C94.0311 98.0458 91.4389 95.6668 86.7971 96.1475C84.8077 96.3535 83.4941 97.2603 82.8563 98.8678C82.5477 99.7711 82.4152 100.757 82.4587 101.825C82.5617 102.819 82.7596 103.435 83.0523 103.673C83.4113 103.904 83.6252 104.351 83.6939 105.014C83.8175 106.208 83.2036 107.076 81.8522 107.618C81.0176 107.972 79.7714 108.235 78.1136 108.407C76.92 108.531 75.4589 108.984 73.7303 109.766C72.0017 110.548 71.0047 110.953 70.7395 110.98C70.1427 111.042 69.6407 110.725 69.2336 110.03C68.8928 109.328 68.6881 108.646 68.6194 107.983C68.4958 106.789 69.0662 104.853 70.3304 102.176C71.6541 99.4247 72.8349 97.5598 73.873 96.581C75.7707 94.8429 77.5336 93.4205 79.1616 92.3136C80.7827 91.1403 82.5216 90.4576 84.3783 90.2653C93.9273 89.2765 100.359 91.1909 103.673 96.0085C105.566 98.7615 106.726 102.194 107.152 106.305C107.337 108.095 107.294 109.943 107.022 111.848C106.75 113.753 106.703 115.567 106.882 117.291C107.17 120.076 108.002 122.604 109.376 124.875C111.048 126.779 112.431 127.842 113.527 128.064C113.925 128.023 114.276 127.852 114.58 127.553C114.95 127.246 115.301 127.076 115.633 127.042C117.025 126.898 117.794 127.522 117.938 128.914C118.075 130.24 117.598 131.463 116.508 132.581C114.327 134.818 112.142 136.049 109.954 136.276C107.765 136.502 106.193 136.531 105.237 136.362C104.281 136.193 103.415 135.914 102.637 135.525C101.86 135.137 101.178 134.705 100.593 134.229L98.8469 132.902L97.2004 131.564C96.7544 131.141 96.4983 130.933 96.432 130.94C92.4859 136.845 87.0646 140.154 80.1681 140.868C76.2557 141.273 72.8988 140.247 70.0974 137.789C67.3623 135.324 65.8712 132.898 65.624 130.511C65.157 126.002 67.034 122.121 71.2548 118.869C75.6082 115.603 82.4244 112.82 91.7034 110.519C92.6249 110.356 93.3303 110.048 93.8196 109.596C94.6793 108.836 94.9306 106.733 94.5736 103.284ZM82.3852 120.532C81.7794 121.801 81.5314 122.966 81.6413 124.027C81.9022 126.547 82.3746 128.844 83.0585 130.917C83.7425 132.991 84.6549 134.036 85.796 134.052C87.4538 133.881 88.8314 133.269 89.9289 132.217C91.8792 130.339 92.8349 128.565 92.7958 126.893L92.7019 114.336C87.5296 114.872 84.0907 116.937 82.3852 120.532ZM123.364 133.681C121.48 133.608 120.431 132.543 120.218 130.488C120.255 129.546 120.462 128.954 120.839 128.714C121.216 128.474 121.736 128.32 122.399 128.251L123.205 128.268C125.062 128.076 126.173 127.157 126.539 125.51C126.834 124.474 126.854 122.73 126.6 120.276C126.58 120.077 126.526 119.882 126.439 119.69C126.418 119.491 126.398 119.292 126.377 119.093C126.103 116.44 126.026 113.432 126.146 110.068C126.254 106.572 126.16 103.398 125.864 100.547C125.562 97.6292 125.198 95.0865 124.773 92.9188L120.218 93.5915L119.223 93.6945C118.613 93.6237 117.929 93.4934 117.172 93.3037C116.415 93.114 116.009 92.7539 115.954 92.2234C115.899 91.6929 116.047 91.1749 116.397 90.6696C116.813 90.1573 117.073 89.7617 117.178 89.4827C117.583 89.5078 117.951 89.5032 118.283 89.4689L120.471 89.2423C121.598 89.1255 122.557 88.9928 123.345 88.8441C124.134 88.6954 124.728 88.6004 125.126 88.5592C125.583 88.4449 126.007 88.3339 126.398 88.2264C126.855 88.112 127.747 87.9862 129.073 87.8488C130.996 87.6497 133.507 86.6525 136.605 84.8571C137.415 84.9073 138.105 85.1039 138.677 85.4469C139.308 85.7166 139.763 85.9041 140.042 86.0092L140.05 90.9347C140.196 91.0536 140.402 91.0993 140.667 91.0718C141.198 91.0169 142.137 90.3834 143.486 89.1713C146.459 87.456 148.839 86.1707 150.627 85.3153C152.408 84.3936 153.829 83.8778 154.89 83.7679C155.951 83.6581 156.996 83.7174 158.025 83.946C159.121 84.1677 160.233 84.5551 161.363 85.1084C163.968 86.3132 165.844 87.9285 166.992 89.9544C168.909 93.5762 169.997 96.6471 170.258 99.1669C170.368 100.228 170.38 101.634 170.293 103.386C170.099 106.69 170.051 109.141 170.15 110.74C170.404 113.193 170.751 114.933 171.193 115.96C171.568 116.994 171.929 117.894 172.277 118.663C173.087 120.657 173.697 121.699 174.109 121.791C174.475 122.088 174.93 122.275 175.474 122.353C176.012 122.364 176.552 122.409 177.097 122.487C178.325 122.695 178.987 123.263 179.083 124.191C179.179 125.119 177.663 126.014 174.535 126.874C172.712 127.398 171.072 127.735 169.613 127.886C166.629 128.195 164.246 127.839 162.465 126.817C157.4 123.856 154.318 117.071 153.219 106.461C152.299 97.575 150.115 93.3106 146.666 93.6677C144.876 93.8531 143.341 94.8834 142.06 96.7586C140.839 98.5606 140.242 100.231 140.267 101.77L140.317 121.671C140.557 123.992 141.389 125.548 142.811 126.339C144.226 127.063 146.039 127.412 148.248 127.384C148.719 127.402 148.985 127.71 149.047 128.307C149.177 129.567 148.049 130.32 145.662 130.567C144.8 130.657 143.755 130.597 142.527 130.389C140.071 129.973 137.782 129.875 135.66 130.095C133.604 130.308 129.505 131.503 123.364 133.681ZM190.084 77.9118L188.9 72.304L188.8 72.3143C188.469 72.3486 187.263 72.6746 185.182 73.2922C184.452 73.3677 183.729 73.1746 183.011 72.7127C182.293 72.2509 181.892 71.6221 181.81 70.8264C181.721 69.9643 181.95 69.2703 182.499 68.7443C183.107 68.1451 183.892 67.6283 184.852 67.1937C185.938 66.6791 188.31 65.9643 191.969 65.0493L193.77 64.9633C194.817 64.7208 195.84 64.2462 196.839 63.5396L199.659 61.6391C201.657 60.2257 203.352 59.4469 204.745 59.3027C206.204 59.1517 207.074 59.4637 207.355 60.2389C207.696 60.9408 207.921 61.8223 208.031 62.8833L207.946 63.998C207.669 68.4502 207.607 71.4057 207.758 72.8645C207.909 74.3234 208.026 75.4507 208.108 76.2465L208.554 78.6131C208.637 79.4088 208.712 80.1383 208.781 80.8014C208.916 81.4576 208.997 81.9184 209.025 82.1836C210.55 82.0257 212.028 81.7386 213.459 81.3223C214.891 80.9059 216.402 80.6154 217.994 80.4506C219.652 80.2789 220.549 80.8562 220.686 82.1824C220.776 83.0445 220.645 83.7282 220.296 84.2336C218.439 84.4259 216.201 84.8251 213.583 85.4314C210.965 86.0376 209.527 86.3876 209.268 86.4814C208.772 86.8679 208.427 88.7132 208.233 92.0175C208.039 95.3217 207.964 97.5077 208.007 98.5756C208.11 99.5703 208.147 100.572 208.118 101.58C208.088 102.589 208.029 103.634 207.94 104.715C207.729 107.217 207.772 109.893 208.067 112.745C208.205 114.071 208.829 115.246 209.94 116.271C211.052 117.295 212.304 117.735 213.696 117.591L217.456 117C218.384 116.904 219.227 116.951 219.983 117.141C220.807 117.324 221.27 117.912 221.373 118.907C221.38 118.973 221.353 119.043 221.294 119.116L221.304 119.216C219.484 122.353 214.463 124.348 206.24 125.199C200.869 125.755 196.794 124.267 194.015 120.735C191.937 118.135 190.647 114.415 190.145 109.574C190.063 108.778 189.981 103.458 189.9 93.6143L189.248 89.2583L177.013 90.5252C176.549 90.5733 176.187 90.3092 175.926 89.733C175.599 89.1636 175.418 88.7132 175.384 88.3816C175.281 87.3869 175.673 86.6426 176.56 86.1486C184.927 84.746 189.425 83.8446 190.053 83.4444C190.204 81.0159 190.214 79.1718 190.084 77.9118ZM255.626 86.6071C255.084 81.3685 252.492 78.9895 247.85 79.4701C245.861 79.6761 244.547 80.5829 243.909 82.1905C243.601 83.0938 243.468 84.0793 243.512 85.1472C243.615 86.1419 243.812 86.7581 244.105 86.9959C244.464 87.2268 244.678 87.6738 244.747 88.3369C244.87 89.5306 244.256 90.3984 242.905 90.9405C242.071 91.295 240.824 91.5581 239.167 91.7297C237.973 91.8534 236.512 92.3063 234.783 93.0885C233.055 93.8707 232.058 94.2755 231.792 94.303C231.196 94.3648 230.694 94.0481 230.286 93.353C229.946 92.6511 229.741 91.9685 229.672 91.3054C229.549 90.1118 230.119 88.1761 231.383 85.4983C232.707 82.7473 233.888 80.8824 234.926 79.9036C236.824 78.1656 238.586 76.7431 240.214 75.6362C241.836 74.463 243.574 73.7803 245.431 73.588C254.98 72.5992 261.412 74.5136 264.725 79.3312C266.619 82.0841 267.779 85.5163 268.204 89.6276C268.39 91.4181 268.347 93.2657 268.075 95.1705C267.803 97.0753 267.756 98.8897 267.935 100.614C268.223 103.399 269.054 105.927 270.429 108.197C272.101 110.102 273.484 111.165 274.58 111.387C274.977 111.346 275.328 111.175 275.633 110.876C276.003 110.569 276.354 110.399 276.685 110.364C278.078 110.22 278.846 110.844 278.991 112.237C279.128 113.563 278.651 114.785 277.561 115.904C275.379 118.14 273.195 119.372 271.006 119.598C268.818 119.825 267.246 119.854 266.29 119.685C265.334 119.516 264.468 119.237 263.69 118.848C262.913 118.459 262.231 118.027 261.646 117.552L259.9 116.224L258.253 114.887C257.807 114.464 257.551 114.256 257.485 114.263C253.539 120.167 248.117 123.477 241.221 124.191C237.309 124.596 233.952 123.57 231.15 121.112C228.415 118.647 226.924 116.221 226.677 113.834C226.21 109.325 228.087 105.444 232.308 102.192C236.661 98.9261 243.477 96.1425 252.756 93.8412C253.678 93.6788 254.383 93.3711 254.872 92.9183C255.732 92.1591 255.984 90.0553 255.626 86.6071ZM243.438 103.854C242.832 105.123 242.584 106.288 242.694 107.349C242.955 109.869 243.427 112.166 244.111 114.24C244.795 116.314 245.708 117.359 246.849 117.375C248.507 117.203 249.884 116.591 250.982 115.539C252.932 113.662 253.888 111.887 253.849 110.216L253.755 97.6587C248.582 98.1943 245.144 100.259 243.438 103.854ZM303.099 73.1458C297.595 73.7158 294.929 74.8296 295.1 76.4874C295.313 78.5431 296.132 80.3015 297.557 81.7625C298.981 83.2235 300.698 84.5873 302.706 85.8539C304.706 87.0542 306.87 88.2042 309.195 89.3038C311.587 90.3966 313.787 91.5763 315.795 92.8429C320.529 95.8379 323.091 99.2253 323.483 103.005C323.963 107.647 321.707 111.098 316.713 113.357C313.64 114.748 309.716 115.691 304.942 116.185C300.233 116.672 296.283 116.713 293.091 116.306C289.965 115.893 287.427 115.653 285.476 115.587C283.599 115.58 282.434 115.332 281.981 114.843C281.595 114.347 281.364 113.734 281.288 113.004C281.206 112.209 281.299 111.495 281.569 110.864C281.832 110.167 282.165 109.495 282.567 108.851C283.715 106.989 284.383 105.68 284.573 104.923C284.756 104.1 284.879 103.35 284.943 102.673C285.021 102.129 285.165 101.578 285.375 101.02C285.782 99.771 286.549 99.0884 287.677 98.9717C288.87 98.8481 289.944 99.5077 290.898 100.95C291.918 102.386 293.054 103.978 294.308 105.725C295.62 107.398 297.118 108.919 298.801 110.286C300.551 111.646 302.718 112.193 305.305 111.925C309.748 111.465 311.842 110.008 311.588 107.554C311.375 105.499 308.766 102.954 303.76 99.9201C301.613 98.6009 299.26 97.2361 296.701 95.8255C294.142 94.4149 291.782 92.9837 289.621 91.5319C284.514 88.1733 281.817 85.1015 281.528 82.3164C281.261 79.7302 281.718 77.6722 282.9 76.1423C284.141 74.5392 285.716 73.2368 287.623 72.235C290.225 70.8262 294.32 69.5978 299.908 68.55L304.871 67.9355L312.421 67.0532C315.338 66.7511 317.116 66.7681 317.754 67.1041C318.685 67.678 319.247 68.8933 319.439 70.75C319.631 72.6068 319.766 74.2348 319.844 75.6343C319.988 77.0268 320.049 78.2605 320.026 79.3352C319.988 81.551 319.438 82.7138 318.377 82.8236C316.918 82.9747 315.566 82.545 314.322 81.5344C313.071 80.4575 311.843 79.2777 310.638 77.995C309.499 76.7055 308.308 75.5554 307.064 74.5448C305.879 73.4611 304.558 72.9948 303.099 73.1458ZM367.331 69.9127C364.546 70.2011 363.081 69.649 362.937 68.2564C362.93 68.1901 363.032 67.878 363.242 67.32C363.445 66.6957 363.676 66.3367 363.935 66.2429L383.108 63.0511C383.108 63.0511 383.141 63.0477 383.207 63.0408C383.406 63.0202 383.868 63.274 384.593 63.8021L385.79 64.6835C385.941 66.1423 384.167 67.1304 380.467 67.6475C379.539 67.7437 378.713 67.8627 377.991 68.0045C377.74 73.9955 376.934 79.8094 375.575 85.4462L372.3 99.4579C371.411 103.169 370.612 106.134 369.904 108.352C369.261 110.563 368.49 112.821 367.589 115.127C366.695 117.498 365.699 119.846 364.599 122.172C363.499 124.498 362.376 126.591 361.228 128.453C358.576 132.615 356.089 134.816 353.768 135.056C353.702 135.063 353.669 135.066 353.669 135.066C349.491 135.499 344.617 133.088 339.046 127.834C336.078 125.058 334.033 122.79 332.913 121.03C331.792 119.269 331.201 118.09 331.139 117.494C331.077 116.897 331.225 116.379 331.581 115.94C331.945 115.567 332.415 115.25 332.991 114.989C333.759 114.642 334.873 114.392 336.332 114.241C337.791 114.09 338.958 114.036 339.834 114.08C340.71 114.123 341.546 114.439 342.345 115.026C344.167 116.446 345.336 119.643 345.851 124.616C347.429 126.262 348.547 127.353 349.206 127.888C350.656 128.944 352.077 129.4 353.469 129.256C354.988 129.032 356.734 126.807 358.71 122.581C360.619 118.362 361.443 114.992 361.182 112.472C360.928 110.019 360.31 107.938 359.329 106.23C358.407 104.449 357.257 102.725 355.878 101.058C354.565 99.3843 353.12 97.7243 351.542 96.0781C350.023 94.3587 348.298 92.2586 346.365 89.7778C344.492 87.2238 342.261 84.7739 339.673 82.428C337.15 80.0753 334.089 78.3481 330.49 77.2463C330.005 77.0954 329.425 76.988 328.748 76.924C328.011 76.9333 327.298 76.8396 326.607 76.643C324.888 76.2179 323.97 75.4416 323.853 74.3143C323.729 73.1207 324.104 72.2106 324.978 71.584C325.844 70.891 326.993 70.3364 328.425 69.9201C329.849 69.4374 331.45 69.0371 333.226 68.7191C335.003 68.4011 336.319 68.1643 337.174 68.0087C338.023 67.7868 338.612 67.6587 338.944 67.6243C339.276 67.59 339.677 67.582 340.148 67.6002C340.685 67.6116 341.223 67.623 341.76 67.6343C342.364 67.6389 343.047 67.7691 343.811 68.0252C344.568 68.2149 345.605 68.8447 346.922 69.9147L350.737 73.7422C353.147 76.3076 355.355 78.8604 357.361 81.4007L364.568 90.8083C365.62 91.9058 366.87 93.6195 368.318 95.9495L368.915 95.8877C369.118 95.2634 369.637 92.8303 370.471 88.5885C371.305 84.3467 372.216 78.2538 373.203 70.3099L372.949 68.8282L367.331 69.9127ZM435.849 99.1104L419.814 100.57C419.019 100.652 418.487 100.372 418.219 99.7296C417.872 98.9614 417.66 98.2125 417.585 97.4831C417.523 96.8863 417.71 96.4312 418.147 96.1179C418.584 95.8046 419.09 95.5176 419.666 95.2568C420.309 94.9892 420.915 94.6919 421.484 94.3648C422.12 94.0309 422.529 93.4524 422.712 92.6291C423.178 83.5328 422.925 71.0592 421.954 55.2082C421.654 51.0168 421.437 47.9562 421.304 46.0263L420.882 41.9481C420.8 41.1523 420.651 40.3634 420.436 39.5814C416.391 40.0003 414.025 39.8096 413.339 39.0094C412.5 38.0239 411.998 36.7354 411.833 35.1439C418.926 33.7392 425.675 32.5712 432.08 31.6399C438.478 30.6422 442.274 30.0816 443.467 29.958C448.109 29.4773 450.549 30.0625 450.787 31.7134C450.869 32.5091 450.252 33.3438 448.935 34.2175C447.611 35.0248 446.98 35.7269 447.042 36.3237C447.097 36.8542 447.641 37.9037 448.675 39.4722C449.768 40.9676 451.011 42.615 452.404 44.4144C455.562 48.3769 458.08 51.3332 459.957 53.2835C460.076 53.1372 460.335 53.0434 460.733 53.0022C462.722 52.7962 464.252 52.0346 465.322 50.7174C465.562 51.0947 465.723 51.6812 465.805 52.4769C465.881 53.2063 465.807 53.7837 465.583 54.2091C465.425 54.6275 465.168 55.0563 464.811 55.4954C463.993 56.6525 463.631 57.6953 463.728 58.6236C463.817 59.4857 463.928 59.9098 464.06 59.8961C464.408 60.6644 465.302 62.1803 466.743 64.444L470.355 70.2025C471.323 71.7779 472.28 73.2539 473.227 74.6303C474.174 76.0068 474.971 77.2312 475.618 78.3036C476.331 79.3691 476.805 80.0573 477.038 80.3683C477.36 77.654 477.24 73.5781 476.677 68.1405C476.107 62.6366 475.52 57.9387 474.916 54.0469C474.371 50.0819 473.801 46.5217 473.206 43.3661C471.921 36.1267 471.046 32.5311 470.581 32.5791L461.314 34.3431C461.115 32.4201 461.309 31.0595 461.896 30.2614C462.484 29.4633 463.04 29.0036 463.563 28.8824L465.731 28.4568C466.513 28.2418 467.328 28.0233 468.176 27.8014C469.105 27.7053 469.927 27.5532 470.643 27.345C473.254 26.6725 475.753 26.2126 478.14 25.9654C481.721 25.5946 483.642 25.6973 483.903 26.2735L484.339 28.5407C483.682 28.6756 482.841 28.9638 481.814 29.4053C480.847 29.7735 480.006 30.0617 479.29 30.2699C479.105 30.4231 478.671 30.7696 477.99 31.3093C477.302 31.7827 476.865 32.096 476.68 32.2492C476.668 32.7866 476.695 33.6887 476.759 34.9555C476.883 36.1491 476.954 37.4822 476.972 38.9548C477.05 42.2979 477.141 44.4668 477.244 45.4614L477.408 47.0529C479.283 63.2125 480.637 73.6955 481.469 78.5019C482.302 83.3084 482.756 86.0763 482.832 86.8057C483.027 91.2761 476.325 94.517 462.726 96.5284C461.4 96.6657 460.381 96.5366 459.67 96.1411C459.019 95.6724 458.631 94.8412 458.507 93.6476C458.377 92.3877 458.364 91.6182 458.469 91.3392L444.072 71.7178L437.757 72.8744C437.73 72.6091 437.699 72.3107 437.665 71.9792C437.69 71.5744 437.8 71.0268 437.997 70.3362C438.253 69.5724 438.689 68.9241 439.304 68.3913C439.919 67.8584 440.168 67.0283 440.051 65.901C439.928 64.7074 439.332 63.1606 438.264 61.2605C437.129 59.3672 435.849 57.3551 434.421 55.2241C431.428 50.9095 428.523 47.457 425.708 44.8665C425.432 45.4313 425.352 46.2774 425.468 47.4047L425.654 49.1951C425.917 52.385 426.176 57.1503 426.43 63.4912C426.898 75.775 427.273 83.2763 427.554 85.9951C428.097 91.2337 428.591 94.0646 429.037 94.4875C429.337 94.7916 429.884 94.9025 430.68 94.8201C431.476 94.7377 432.308 94.685 433.177 94.662C434.112 94.6322 434.929 94.7488 435.626 95.0117C436.39 95.2677 436.833 95.9925 436.957 97.1861C437.081 98.3797 436.711 99.0212 435.849 99.1104ZM514.039 78.2459L514.073 79.5493C514.375 82.467 515.369 84.9445 517.055 86.9817C517.661 87.6562 518.176 88.1055 518.602 88.3295C519.02 88.4873 519.561 88.5318 520.224 88.4631L521.617 88.3189C526.259 87.8382 530.456 86.2978 534.208 83.6975C534.896 83.224 535.564 82.5517 536.211 81.6804L538.33 78.8471C538.977 77.9758 539.601 77.2074 540.203 76.5419C540.797 75.8101 541.359 75.4168 541.89 75.3618C542.42 75.3069 542.849 75.5641 543.176 76.1334C543.503 76.7028 543.684 77.1532 543.718 77.4848C543.721 78.1548 543.019 79.4674 541.613 81.4226C540.081 83.4579 538.349 85.1788 536.417 86.5853C534.478 87.9254 532.356 89.117 530.051 90.1599C525.627 92.0926 521.127 93.2959 516.551 93.7697C516.492 93.8428 516.429 93.8829 516.363 93.8897C511.853 94.3567 507.924 93.6242 504.574 91.6923C501.157 89.7673 498.01 87.2112 495.133 84.0239C493.695 82.4302 492.777 80.6822 492.379 78.7797C491.974 76.811 491.644 74.5998 491.39 72.1463C491.129 69.6264 491.876 66.8012 493.629 63.6706C495.383 60.54 497.631 57.6597 500.375 55.0298C503.112 52.3336 506.096 50.0809 509.326 48.2718C512.624 46.4559 515.399 45.4312 517.654 45.1977C519.909 44.9642 522.118 44.9366 524.281 45.1147C526.364 45.1671 528.382 45.5613 530.335 46.2974C534.931 47.9662 537.449 50.9226 537.889 55.1666C538.465 60.7368 535.976 65.8203 530.42 70.417C525.737 74.3871 520.277 76.9967 514.039 78.2459ZM511.984 71.0191C512.052 71.6822 512.442 72.2116 513.153 72.6071C513.865 73.0026 514.817 73.1386 516.011 73.015C516.077 73.0081 516.11 73.0047 516.11 73.0047C518.365 72.7712 520.582 70.5643 522.764 66.3841C524.839 62.4829 525.73 59.1066 525.434 56.2551C525.256 54.531 524.75 53.2094 523.918 52.2903C522.406 50.6372 520.888 49.8896 519.363 50.0475C517.904 50.1986 516.686 51.0619 515.71 52.6375C514.668 54.22 513.851 56.0471 513.262 58.1189C511.991 62.674 511.565 66.9741 511.984 71.0191ZM579.91 89.0184C578.385 89.1763 577.462 89.0038 577.142 88.5007C576.895 88.0572 576.72 87.338 576.617 86.3433C576.521 85.415 576.654 84.7644 577.018 84.3917C577.441 83.9457 577.947 83.6587 578.537 83.5306C579.127 83.4025 579.687 83.3109 580.218 83.256C580.741 83.1348 581.075 82.7986 581.219 82.2475C580.094 81.0906 579.115 80.0525 578.283 79.1334L576.005 76.5543C574.8 75.2716 573.166 73.7317 571.103 71.9346C570.44 72.0033 569.093 72.9135 567.063 74.6653L561.984 79.0116L559.038 81.6289L557.738 82.6684C557.559 82.8879 557.404 83.0045 557.271 83.0183C557.678 83.7134 558.353 84.0792 559.295 84.1156C560.297 84.079 561.298 84.0423 562.3 84.0056C563.294 83.9026 564.203 83.9425 565.027 84.1253C565.85 84.3082 566.309 84.8638 566.406 85.7922C566.502 86.7205 566.298 87.3448 565.795 87.665C565.365 88.0446 564.487 88.3031 563.161 88.4404L558.387 88.9348C551.623 89.6353 546.636 90.0176 543.425 90.082C543.37 89.5515 543.375 88.9478 543.439 88.271C543.503 87.5941 544.184 87.0544 545.483 86.6518C548.604 85.7254 550.521 84.8231 551.235 83.945C552.014 83.06 553.045 82.0149 554.328 80.8097L558.176 77.1941L562.323 73.5476C563.672 72.3355 564.829 71.2104 565.793 70.1721L566.13 69.5341C565.16 67.2887 563.919 65.3395 562.407 63.6864C560.889 61.967 559.611 60.6249 558.572 59.66C557.594 58.622 556.604 57.4845 555.605 56.2475C555.013 55.7056 554.496 54.9214 554.054 53.8947C553.345 52.2255 552.211 51.3041 550.652 51.1305C548.687 50.9318 547.449 50.6243 546.937 50.2082C546.425 49.7921 546.127 49.1862 546.045 48.3904C545.873 46.7326 546.318 45.8488 547.379 45.7389L569.162 43.4832C569.215 43.3437 569.433 43.187 569.817 43.0132C570.202 42.8394 570.526 42.7387 570.792 42.7113C571.057 42.6838 571.432 42.7455 571.917 42.8964C572.461 42.9741 572.982 43.1547 573.481 43.4382C574.69 44.1172 575.333 44.8214 575.409 45.5508C575.484 46.2802 575.38 46.8942 575.097 47.3927C574.879 47.8844 574.751 48.2663 574.713 48.5384L569.739 49.0534C569.774 49.385 570.522 50.1452 571.986 51.3341L575.608 54.2766C576.567 55.1157 577.375 55.8028 578.034 56.3378C578.685 56.8065 579.204 57.2889 579.591 57.7851C580.037 58.2081 580.525 58.3921 581.056 58.3372C581.652 58.2754 582.503 57.7516 583.607 56.766C584.712 55.7803 585.865 54.622 587.068 53.2911C590.214 50.0163 591.875 47.9341 592.051 47.0446C591.116 47.0744 590.167 46.9716 589.204 46.7362C588.241 46.5007 587.702 45.8194 587.585 44.6921C587.489 43.7637 588.104 43.2309 589.43 43.0935L590.733 43.0591C596.212 42.8939 600.066 42.8969 602.296 43.0682C603.053 43.2579 603.486 43.8833 603.596 44.9443C603.74 46.3368 601.425 47.2803 596.651 47.7747C591.886 52.8927 588.704 56.4728 587.106 58.5149C585.508 60.5571 584.719 61.6776 584.74 61.8765C584.754 62.0092 585.063 62.4127 585.669 63.0872C586.15 63.8418 586.769 64.6489 587.529 65.5086C589.127 67.3537 590.362 68.5998 591.233 69.2469L594.029 71.9734C594.176 72.0923 594.485 72.4959 594.959 73.1841L596.677 75.2179C597.29 75.9587 597.834 76.6732 598.307 77.3615C598.847 78.0428 599.193 78.4761 599.346 78.6613C599.401 79.1918 599.963 79.4353 601.031 79.3917C602.165 79.3413 603.402 79.3137 604.742 79.309C606.141 79.2311 607.392 79.3362 608.494 79.6242C609.656 79.839 610.295 80.5101 610.412 81.6374C609.328 82.822 607.971 83.6327 606.341 84.0697C604.717 84.5729 602.918 84.9938 600.942 85.3324C599.033 85.6642 595.724 86.0739 591.016 86.5614C586.308 87.0489 582.606 87.8679 579.91 89.0184ZM665.91 78.806C659.411 79.4789 653.993 76.0186 649.654 68.4251C649.391 71.0662 647.262 73.8001 643.265 76.6268C639.579 79.2203 636.112 80.6852 632.862 81.0217C628.685 81.4543 624.845 79.9752 621.344 76.5845C618.289 73.6167 616.558 70.1766 616.153 66.2642L614.433 49.6531C614.351 48.8573 614.087 48.2479 613.641 47.825C613.188 47.3357 612.705 46.883 612.193 46.4668C611.674 45.9844 611.188 45.4985 610.735 45.0093C610.276 44.4536 609.998 43.7117 609.902 42.7833C609.702 40.8602 612.852 39.5622 619.351 38.8893L623.23 38.4876C625.683 38.2335 627.381 38.1247 628.323 38.1612L632.138 39.0732C632.385 41.4604 632.543 44.9293 632.612 49.4797C632.709 58.1827 632.844 63.698 633.018 66.0258L633.132 67.12C633.397 69.0362 633.693 70.2789 634.021 70.8483C634.814 72.0395 636.007 72.5528 637.598 72.388C638.725 72.2712 639.719 71.8332 640.579 71.074L642.89 69.1255C643.002 68.9128 643.428 68.1651 644.166 66.8822C645.611 64.6548 646.32 63.4085 646.292 63.1433L643.676 37.8784C643.463 35.8227 646.997 34.3509 654.278 33.4629L659.35 32.9376C660.743 32.7934 661.689 32.8631 662.187 33.1466C662.745 33.3569 663.062 33.8268 663.137 34.5562C663.206 35.2193 663.221 35.6869 663.182 35.959C663.136 36.1648 662.955 36.3512 662.637 36.5182C662.589 37.9976 662.464 39.3845 662.263 40.6788L661.838 44.342C661.516 47.0563 661.489 49.7065 661.757 52.2927C662.821 62.5711 665.41 68.8042 669.524 70.9921C670.94 71.7168 672.129 72.1969 673.092 72.4323C674.121 72.6609 674.638 72.8083 674.645 72.8747C674.748 73.8693 673.734 75.0802 671.603 76.5073C668.736 77.9436 666.904 78.703 666.109 78.7854C666.109 78.7854 666.076 78.7888 666.009 78.7957L665.91 78.806ZM698.834 32.1667C693.33 32.7366 690.664 33.8505 690.836 35.5083C691.049 37.5639 691.867 39.3223 693.292 40.7833C694.717 42.2443 696.433 43.6081 698.441 44.8747C700.442 46.075 702.605 47.225 704.931 48.3246C707.323 49.4174 709.523 50.5971 711.53 51.8637C716.264 54.8587 718.827 58.2461 719.218 62.0259C719.699 66.6677 717.442 70.1185 712.448 72.3783C709.375 73.7688 705.451 74.7114 700.677 75.2058C695.969 75.6933 692.019 75.7337 688.826 75.327C685.701 74.9135 683.162 74.6736 681.212 74.6075C679.335 74.6008 678.169 74.3529 677.717 73.8636C677.33 73.3674 677.099 72.7546 677.024 72.0252C676.941 71.2294 677.035 70.516 677.305 69.8848C677.568 69.1874 677.9 68.5162 678.303 67.8713C679.45 66.0099 680.119 64.7007 680.309 63.9438C680.492 63.1206 680.615 62.3706 680.679 61.6937C680.757 61.1495 680.901 60.5984 681.111 60.0404C681.518 58.7919 682.285 58.1092 683.412 57.9925C684.606 57.8689 685.679 58.5285 686.633 59.9713C687.653 61.4072 688.79 62.9986 690.043 64.7454C691.356 66.4191 692.854 67.9396 694.537 69.3068C696.286 70.6672 698.454 71.2135 701.04 70.9457C705.483 70.4856 707.577 69.0288 707.323 66.5753C707.111 64.5196 704.501 61.9748 699.495 58.9409C697.348 57.6218 694.995 56.2569 692.436 54.8463C689.877 53.4357 687.517 52.0045 685.356 50.5527C680.25 47.1941 677.552 44.1223 677.264 41.3372C676.996 38.751 677.453 36.693 678.635 35.1631C679.877 33.56 681.451 32.2576 683.358 31.2559C685.96 29.847 690.055 28.6187 695.644 27.5708L700.607 26.9563L708.156 26.0741C711.074 25.7719 712.852 25.7889 713.49 26.125C714.421 26.6988 714.982 27.9141 715.174 29.7709C715.367 31.6276 715.502 33.2557 715.58 34.6551C715.724 36.0477 715.784 37.2813 715.762 38.356C715.723 40.5718 715.173 41.7346 714.112 41.8445C712.653 41.9955 711.302 41.5658 710.058 40.5552C708.807 39.4783 707.579 38.2985 706.374 37.0159C705.235 35.7263 704.043 34.5763 702.799 33.5657C701.615 32.4819 700.293 32.0156 698.834 32.1667ZM382.468 157.214C382.435 156.895 382.493 156.6 382.642 156.327C382.789 156.039 382.988 155.785 383.239 155.566C383.755 155.11 384.323 154.85 384.943 154.786C385.564 154.722 386.046 154.873 386.39 155.239C386.732 155.59 386.933 156.06 386.994 156.649C387.054 157.222 386.897 157.728 386.524 158.169C386.15 158.594 385.637 158.84 384.984 158.908C384.473 158.944 383.945 158.814 383.4 158.517C382.851 158.188 382.54 157.753 382.468 157.214ZM412.002 160.212L404.649 160.973C404.506 160.988 404.389 160.944 404.298 160.841C404.221 160.72 404.174 160.572 404.155 160.397C404.137 160.222 404.216 160.053 404.392 159.89C404.582 159.854 404.795 159.816 405.032 159.775C405.285 159.733 405.522 159.692 405.743 159.653C406.249 159.569 406.522 159.484 406.562 159.4L408.343 152.604L408.35 152.435C408.285 151.814 407.604 151.523 406.305 151.561C406.015 151.558 405.791 151.574 405.634 151.606C404.997 151.672 404.463 151.952 404.032 152.447C403.615 152.925 403.442 153.506 403.513 154.19C403.56 154.652 403.807 154.859 404.253 154.813C404.571 154.78 404.763 154.688 404.827 154.537C404.908 154.383 404.936 154.188 404.911 153.949L404.852 153.376C404.885 153.228 404.931 153.134 404.992 153.096C405.052 153.058 405.146 153.032 405.273 153.019C405.417 153.004 405.54 153.031 405.644 153.101C405.748 153.171 405.837 153.258 405.912 153.363C406.064 153.588 406.144 153.813 406.151 154.038C406.174 154.26 406.14 154.473 406.048 154.676C405.972 154.876 405.863 155.065 405.721 155.24C405.375 155.63 405.035 155.842 404.701 155.877C404.08 155.941 403.579 155.84 403.198 155.574C402.83 155.29 402.62 154.886 402.565 154.361C402.509 153.82 402.539 153.334 402.656 152.904C402.772 152.473 402.958 152.092 403.213 151.76C403.766 151.043 404.48 150.64 405.355 150.549C405.96 150.486 406.507 150.486 406.996 150.548C407.483 150.594 408.017 150.772 408.596 151.082L408.646 151.101C408.662 151.099 408.699 151.071 408.758 151.017C408.816 150.963 408.844 150.92 408.841 150.888L410.253 145.65L410.246 145.579C410.242 145.547 410.214 145.51 410.162 145.467C410.123 145.407 410.088 145.378 410.056 145.381L406.81 145.717C406.698 145.729 406.636 145.671 406.623 145.544C406.608 145.401 406.621 145.214 406.661 144.985C406.718 144.754 406.818 144.631 406.961 144.616L417.323 143.326C417.45 143.313 417.553 143.374 417.632 143.511C417.709 143.632 417.76 143.819 417.787 144.074C417.813 144.329 417.747 144.464 417.587 144.481L415.415 144.706L417.694 149.706C417.744 149.877 417.796 149.993 417.851 150.051C417.905 150.11 418.091 150.123 418.41 150.09C418.728 150.057 419.118 149.944 419.581 149.751C420.058 149.541 420.567 149.408 421.108 149.352C421.379 149.324 421.529 149.461 421.561 149.764C421.581 149.955 421.525 150.113 421.393 150.239C421.26 150.35 421.106 150.422 420.933 150.456L418.79 150.967C418.599 150.987 418.513 151.085 418.531 151.26L421.695 158.05L423.019 158.251C423.213 158.263 423.32 158.364 423.34 158.555C423.36 158.746 423.327 158.902 423.243 159.024C423.146 159.018 423.05 159.019 422.955 159.029L422.668 159.059L418.169 159.646C417.993 159.664 417.879 159.643 417.824 159.585C417.77 159.526 417.731 159.385 417.708 159.162C417.685 158.94 417.781 158.777 417.996 158.674C418.209 158.556 418.4 158.463 418.57 158.398C418.756 158.33 418.922 158.297 419.067 158.298C419.226 158.281 419.394 158.272 419.57 158.27C419.924 158.265 420.204 158.253 420.411 158.231L420.381 157.945L417.606 151.645L417.343 151.672C417.279 151.679 416.959 152.002 416.382 152.64L415.321 153.812C415.178 153.988 415.082 154.15 415.033 154.3C415 154.448 414.865 154.535 414.626 154.559C414.387 154.584 414.189 154.532 414.031 154.404C413.889 154.274 413.745 154.128 413.599 153.966C413.47 153.802 413.326 153.657 413.168 153.528C413.026 153.398 412.891 153.34 412.764 153.353C412.652 153.364 412.597 153.378 412.599 153.394C412.599 153.394 412.591 153.395 412.575 153.396L412.551 153.399L411.204 158.798C411.176 158.834 411.168 158.915 411.181 159.042C411.193 159.153 411.24 159.221 411.323 159.245L411.643 159.308C411.759 159.344 411.862 159.398 411.949 159.469C412.053 159.539 412.116 159.677 412.137 159.884C412.158 160.091 412.113 160.2 412.002 160.212ZM412.945 151.838L412.936 151.984C412.949 152.111 412.973 152.189 413.008 152.218C413.059 152.244 413.144 152.284 413.262 152.336L413.623 152.564L414.082 152.806C414.22 152.888 414.389 152.975 414.592 153.067L416.841 150.783C417.022 150.668 417.111 150.602 417.11 150.586C417.107 150.555 417.095 150.524 417.076 150.493L417.071 150.446L414.723 145.477L412.945 151.838ZM431.243 159.402C430.877 159.439 430.67 159.228 430.622 158.766C430.571 158.273 430.913 157.843 431.647 157.478C431.968 157.316 432.52 157.13 433.302 156.92L433.431 156.762L432.815 150.818C432.799 150.659 432.732 150.561 432.616 150.525C432.5 150.489 432.376 150.461 432.245 150.443C432.113 150.408 431.988 150.365 431.87 150.313C431.75 150.245 431.681 150.115 431.661 149.924C431.612 149.447 431.888 149.161 432.489 149.066C432.334 147.57 431.993 145.748 431.464 143.599C431.13 143.633 430.851 143.815 430.628 144.144C430.403 144.457 430.198 144.808 430.013 145.197C429.843 145.568 429.67 145.916 429.494 146.24C429.333 146.546 429.156 146.709 428.965 146.729C428.775 146.749 428.608 146.693 428.466 146.563C428.34 146.432 428.271 146.318 428.262 146.223L428.239 146.008C428.233 145.944 428.236 145.895 428.248 145.862C428.588 144.637 429.31 143.613 430.416 142.79C431.46 142.007 432.619 141.549 433.893 141.417C433.939 141.396 433.994 141.382 434.057 141.376C435.251 141.252 436.294 141.233 437.188 141.317C438.131 141.412 438.935 141.57 439.601 141.791C440.284 142.01 440.85 142.273 441.3 142.58C441.75 142.888 442.104 143.205 442.363 143.532C442.84 144.094 443.105 144.637 443.16 145.162C443.171 145.274 443.171 145.346 443.158 145.38C443.211 145.423 443.263 145.691 443.314 146.184C443.365 146.677 443.299 147.127 443.115 147.532C442.948 147.935 442.639 148.369 442.189 148.834C443.099 149.078 443.807 149.471 444.313 150.013C444.834 150.539 445.141 151.247 445.233 152.138C445.325 153.029 445.267 153.783 445.057 154.4C444.846 155.001 444.554 155.522 444.182 155.963C443.823 156.386 443.408 156.726 442.936 156.984C442.466 157.258 442.014 157.474 441.58 157.631C440.959 157.857 440.323 158.003 439.671 158.07C439.018 158.138 438.344 158.152 437.648 158.111C436.952 158.07 436.246 158.087 435.53 158.161L434.48 158.27C434.429 158.404 434.375 158.498 434.316 158.553C434.273 158.605 434.172 158.64 434.013 158.656C433.87 158.671 433.737 158.629 433.614 158.529C433.507 158.427 433.35 158.387 433.143 158.409C432.952 158.428 432.781 158.486 432.63 158.582L432.158 158.921C431.787 159.217 431.482 159.377 431.243 159.402ZM438.644 156.777C438.659 156.921 438.881 156.97 439.311 156.925C439.756 156.879 440.284 156.768 440.893 156.593C441.5 156.401 442.06 156.134 442.571 155.792C443.805 154.972 444.362 153.973 444.24 152.796C444.118 151.618 443.877 150.847 443.517 150.482C443.302 150.263 443.027 150.098 442.694 149.988C442.361 149.878 441.915 149.763 441.356 149.644L440.902 149.691C440.792 149.718 440.589 149.772 440.291 149.851C440.01 149.928 439.712 150.007 439.399 150.088L438.456 150.306C438.175 150.384 437.979 150.436 437.87 150.464C437.776 150.489 437.735 150.566 437.749 150.693L437.758 150.789C437.92 152.348 438.219 154.304 438.655 156.655C438.641 156.673 438.635 156.69 438.637 156.706L438.644 156.777ZM437.617 149.187L438.614 149.035C438.758 149.02 438.955 148.984 439.206 148.926C439.742 148.822 440.181 148.712 440.523 148.596L440.781 148.521C441.318 148.112 441.672 147.649 441.844 147.132C442.031 146.614 442.107 146.18 442.071 145.83C441.937 144.541 441.18 143.598 439.799 143.001C439.26 142.767 438.731 142.629 438.212 142.586C437.707 142.526 437.383 142.503 437.24 142.518C437.112 142.531 437.05 142.546 437.051 142.562L436.574 142.611C436.641 143.264 436.769 144.103 436.955 145.129C437.329 147.182 437.549 148.534 437.617 149.187ZM461.257 155.401C460.78 155.45 460.527 155.34 460.499 155.069C460.471 154.799 460.531 154.599 460.679 154.471C460.825 154.328 460.983 154.223 461.153 154.157C461.337 154.074 461.507 154.008 461.663 153.959C461.817 153.895 461.888 153.799 461.875 153.672C461.86 153.529 461.819 153.445 461.752 153.419C461.683 153.378 461.525 153.242 461.275 153.01C461.042 152.777 460.724 152.424 460.321 151.951C459.936 151.492 459.512 151.053 459.051 150.635C457.949 149.623 456.952 149.163 456.061 149.255C455.17 149.348 454.599 149.664 454.35 150.205C454.34 150.736 454.373 151.36 454.447 152.077C454.519 152.777 454.597 153.292 454.679 153.621C454.776 153.933 454.935 154.23 455.158 154.512L456.651 154.02C456.698 154.015 456.778 154.079 456.888 154.213C457.014 154.344 457.084 154.474 457.097 154.601C457.108 154.712 457.056 154.83 456.941 154.955C456.823 155.064 456.68 155.159 456.512 155.241C456.238 155.398 455.935 155.494 455.6 155.528L447.46 156.371C447.455 156.323 447.451 156.284 447.448 156.252C447.415 155.933 447.449 155.721 447.55 155.614C447.695 155.454 447.892 155.337 448.142 155.263C448.407 155.187 448.63 155.092 448.812 154.976C449.007 154.844 449.191 154.76 449.365 154.726L449.312 153.984C449.23 153.188 449.104 152.445 448.936 151.754C448.784 151.062 448.614 150.268 448.424 149.371L447.469 149.469C447.441 149.199 447.495 148.944 447.631 148.705C447.766 148.449 447.992 148.305 448.31 148.272L447.613 141.54C447.489 141.585 447.263 141.657 446.936 141.755L445.671 142.128C445.289 142.167 445.073 141.94 445.022 141.447L445.009 141.086C445.819 140.681 446.949 140.33 448.398 140.036C448.729 139.969 448.974 139.928 449.134 139.911L451.404 139.7L453.961 139.46L454.295 139.425C454.389 139.399 454.499 139.38 454.627 139.366L454.698 139.359C455.048 139.323 455.242 139.488 455.28 139.854C455.295 139.997 455.124 140.135 454.768 140.269C454.426 140.385 454.172 140.491 454.005 140.589C453.837 140.671 453.751 140.776 453.748 140.905C453.608 142.03 453.682 143.992 453.972 146.793L453.999 147.056L454.1 147.794L454.125 148.032C454.432 147.743 455.01 147.112 455.859 146.14L457.995 143.699C458.604 143.056 459.167 142.435 459.684 141.835C460.837 140.541 461.553 139.767 461.832 139.513C462.126 139.241 462.326 139.084 462.435 139.041C462.557 138.98 462.714 138.939 462.905 138.919C463.112 138.898 463.271 138.89 463.385 138.894C463.514 138.897 463.621 139.006 463.708 139.222C463.35 139.806 462.848 140.47 462.201 141.212L460.17 143.498L458.162 145.78C457.515 146.523 457.013 147.186 456.655 147.77C457.702 148.096 458.866 148.852 460.147 150.039C460.681 150.53 461.2 151.04 461.705 151.566C462.208 152.077 462.689 152.526 463.147 152.913C463.62 153.282 464.046 153.512 464.425 153.601C464.803 153.674 465.254 153.684 465.779 153.63C465.827 154.091 465.234 154.498 463.999 154.851C463.155 155.084 462.351 155.247 461.589 155.342L461.257 155.401ZM467.774 155.619C467.408 155.657 467.201 155.445 467.153 154.983C467.102 154.49 467.444 154.06 468.178 153.695C468.499 153.533 469.051 153.347 469.834 153.137L469.962 152.979L469.346 147.035C469.33 146.876 469.263 146.778 469.147 146.742C469.031 146.706 468.907 146.678 468.777 146.66C468.644 146.625 468.519 146.582 468.401 146.53C468.282 146.462 468.212 146.332 468.192 146.141C468.143 145.664 468.419 145.378 469.02 145.283C468.865 143.787 468.524 141.965 467.996 139.816C467.661 139.85 467.383 140.032 467.159 140.361C466.934 140.674 466.729 141.025 466.544 141.414C466.374 141.785 466.201 142.133 466.025 142.457C465.864 142.763 465.688 142.926 465.497 142.946C465.306 142.966 465.139 142.911 464.997 142.78C464.871 142.649 464.803 142.535 464.793 142.44L464.771 142.225C464.764 142.161 464.767 142.113 464.78 142.079C465.119 140.854 465.842 139.83 466.947 139.008C467.992 138.224 469.151 137.766 470.424 137.634C470.47 137.613 470.525 137.6 470.588 137.593C471.782 137.469 472.826 137.45 473.719 137.534C474.662 137.63 475.466 137.788 476.133 138.008C476.815 138.227 477.381 138.49 477.831 138.797C478.281 139.105 478.636 139.422 478.895 139.749C479.371 140.311 479.636 140.854 479.691 141.38C479.702 141.491 479.702 141.563 479.689 141.597C479.742 141.64 479.794 141.908 479.845 142.401C479.896 142.894 479.83 143.344 479.647 143.749C479.479 144.152 479.17 144.586 478.72 145.051C479.63 145.295 480.338 145.688 480.845 146.231C481.366 146.756 481.672 147.464 481.764 148.355C481.857 149.246 481.798 150 481.588 150.617C481.377 151.218 481.085 151.739 480.713 152.18C480.354 152.603 479.939 152.943 479.467 153.201C478.997 153.475 478.545 153.691 478.111 153.849C477.491 154.074 476.854 154.22 476.202 154.288C475.549 154.355 474.875 154.369 474.179 154.328C473.483 154.288 472.777 154.304 472.061 154.379L471.011 154.487C470.96 154.621 470.906 154.715 470.847 154.77C470.804 154.822 470.703 154.857 470.544 154.873C470.401 154.888 470.268 154.846 470.145 154.746C470.038 154.644 469.881 154.604 469.674 154.626C469.483 154.646 469.312 154.703 469.161 154.799L468.689 155.138C468.318 155.434 468.013 155.594 467.774 155.619ZM475.175 152.994C475.19 153.138 475.412 153.187 475.842 153.143C476.288 153.096 476.815 152.985 477.424 152.81C478.032 152.618 478.591 152.351 479.103 152.009C480.337 151.189 480.893 150.191 480.771 149.013C480.649 147.835 480.408 147.064 480.049 146.699C479.833 146.48 479.559 146.315 479.225 146.205C478.892 146.095 478.446 145.98 477.887 145.861L477.433 145.908C477.324 145.936 477.12 145.989 476.823 146.068C476.541 146.145 476.244 146.224 475.93 146.305L474.988 146.523C474.706 146.601 474.511 146.653 474.401 146.681C474.307 146.706 474.267 146.783 474.28 146.91L474.29 147.006C474.451 148.565 474.75 150.521 475.187 152.873C475.172 152.89 475.166 152.907 475.168 152.923L475.175 152.994ZM474.148 145.404L475.146 145.252C475.289 145.237 475.486 145.201 475.737 145.143C476.274 145.039 476.713 144.929 477.055 144.813L477.312 144.738C477.849 144.329 478.203 143.866 478.375 143.35C478.562 142.831 478.638 142.397 478.602 142.047C478.468 140.758 477.711 139.815 476.33 139.218C475.791 138.984 475.262 138.846 474.743 138.803C474.238 138.743 473.914 138.72 473.771 138.735C473.644 138.748 473.581 138.763 473.583 138.779L473.105 138.828C473.173 139.481 473.3 140.32 473.486 141.346C473.86 143.399 474.08 144.751 474.148 145.404ZM496.056 152.183C494.496 152.345 493.195 151.514 492.154 149.692C492.091 150.326 491.58 150.982 490.621 151.66C489.736 152.283 488.904 152.634 488.124 152.715C487.121 152.819 486.2 152.464 485.36 151.65C484.626 150.938 484.211 150.112 484.114 149.173L483.701 145.187C483.681 144.996 483.618 144.85 483.511 144.748C483.402 144.631 483.286 144.522 483.164 144.422C483.039 144.306 482.922 144.19 482.814 144.072C482.703 143.939 482.637 143.761 482.614 143.538C482.566 143.076 483.322 142.765 484.881 142.603L485.812 142.507C486.401 142.446 486.809 142.42 487.035 142.429L487.95 142.648C488.01 143.221 488.047 144.053 488.064 145.145C488.087 147.234 488.12 148.558 488.162 149.116L488.189 149.379C488.253 149.839 488.324 150.137 488.402 150.274C488.593 150.559 488.879 150.683 489.261 150.643C489.531 150.615 489.77 150.51 489.976 150.328L490.531 149.86C490.558 149.809 490.66 149.63 490.837 149.322C491.184 148.787 491.354 148.488 491.347 148.424L490.719 142.361C490.668 141.867 491.516 141.514 493.264 141.301L494.481 141.175C494.815 141.14 495.042 141.157 495.162 141.225C495.296 141.276 495.372 141.388 495.39 141.563C495.407 141.723 495.41 141.835 495.401 141.9C495.39 141.95 495.346 141.994 495.27 142.034C495.258 142.389 495.229 142.722 495.18 143.033L495.078 143.912C495.001 144.564 494.995 145.2 495.059 145.82C495.314 148.287 495.936 149.783 496.923 150.308C497.263 150.482 497.548 150.597 497.779 150.654C498.026 150.709 498.15 150.744 498.152 150.76C498.177 150.999 497.933 151.289 497.422 151.632C496.734 151.976 496.294 152.159 496.103 152.178C496.103 152.178 496.095 152.179 496.079 152.181L496.056 152.183ZM503.264 150.834C502.42 150.921 501.341 151.145 500.028 151.507C499.63 151.548 499.409 151.362 499.367 150.948C499.335 150.645 499.395 150.446 499.546 150.35C499.713 150.252 499.908 150.192 500.13 150.169C500.352 150.13 500.565 150.092 500.77 150.055C500.991 150.016 501.133 149.912 501.196 149.745L501.172 149.506L501.119 148.764L501.094 148.525C500.896 146.615 500.567 144.984 500.105 143.633C499.884 143.366 499.636 143.223 499.361 143.203C499.085 143.183 498.82 143.187 498.566 143.213C498.325 143.222 498.107 143.212 497.911 143.184C497.73 143.139 497.627 143.005 497.604 142.782C497.581 142.559 497.674 142.373 497.884 142.222C498.11 142.07 498.369 141.931 498.661 141.804C498.969 141.675 499.264 141.565 499.543 141.471C499.838 141.36 500.16 141.214 500.511 141.033L501.959 140.328C502.586 140.022 503.123 139.846 503.569 139.8C504.014 139.754 504.266 139.776 504.324 139.866C504.395 139.939 504.448 140.135 504.481 140.453C504.514 140.772 504.492 141.031 504.417 141.232L504.821 145.364C504.911 146.24 504.994 146.802 505.068 147.052C505.166 147.379 505.303 147.775 505.48 148.24C505.673 148.702 505.874 149.011 506.083 149.167C506.29 149.306 506.505 149.437 506.727 149.558L507.334 149.833C507.505 149.928 507.594 150.015 507.603 150.095C507.631 150.366 507.552 150.543 507.368 150.626C507.185 150.725 506.975 150.787 506.736 150.812L506.447 150.818C505.757 150.68 504.696 150.685 503.264 150.834ZM500.52 139.247C499.453 139.357 498.856 138.792 498.727 137.55C498.597 136.293 499.196 135.242 500.524 134.397C501.192 134.327 501.745 134.463 502.183 134.804C502.634 135.127 502.894 135.615 502.962 136.267C503.029 136.92 502.79 137.564 502.245 138.2C501.699 138.835 501.124 139.184 500.52 139.247ZM509.521 150.355L509.166 150.416C508.609 150.473 508.206 150.386 507.957 150.155C507.851 150.069 507.793 149.971 507.781 149.859C507.766 149.716 507.809 149.583 507.909 149.46C507.994 149.355 508.093 149.296 508.204 149.285L510.138 149.084C510.17 149.081 510.196 149.022 510.216 148.907C510.252 148.791 510.268 148.709 510.263 148.661C510.256 148.598 510.239 148.503 510.209 148.377C510.18 148.252 510.15 148.11 510.117 147.953C510.023 147.512 509.881 146.915 509.691 146.163C509.516 145.409 509.355 144.316 509.206 142.883L508.736 136.707C508.708 136.437 508.633 136.187 508.513 135.958C508.279 136.03 508.107 136.072 507.995 136.084C507.534 136.132 507.283 135.965 507.244 135.583C507.233 135.326 507.579 135.017 508.282 134.655L508.968 134.294L510.129 133.619C510.766 133.248 511.272 133.01 511.648 132.907C511.855 132.885 512.017 132.981 512.136 133.194C512.254 133.407 512.323 133.601 512.341 133.776C512.359 133.951 512.358 134.176 512.338 134.452C512.319 134.727 512.299 135.003 512.279 135.278L512.186 136.012C512.16 136.224 512.173 136.584 512.226 137.094C512.279 137.603 512.322 138.25 512.355 139.035C512.403 139.818 512.434 140.579 512.446 141.317C512.493 143.323 512.553 144.676 512.625 145.377C512.727 146.363 512.86 147.098 513.022 147.579C513.094 147.958 513.188 148.173 513.306 148.226C513.459 148.306 513.719 148.328 514.085 148.29L514.228 148.275C514.499 148.247 514.739 148.238 514.949 148.248C515.176 148.257 515.298 148.357 515.318 148.548C515.364 148.994 515.231 149.257 514.917 149.337C513.219 149.562 511.421 149.901 509.521 150.355ZM524.039 134.616C523.752 134.645 523.496 134.736 523.271 134.888C523.061 135.039 522.829 135.127 522.574 135.153C522.32 135.18 522.139 135.142 522.032 135.041C521.941 134.937 521.888 134.814 521.873 134.671C521.858 134.528 521.899 134.379 521.996 134.224C522.092 134.069 522.203 133.977 522.329 133.948C522.453 133.903 522.724 133.803 523.142 133.647C523.56 133.491 524.009 133.316 524.487 133.122L525.83 132.572C526.266 132.431 526.514 132.341 526.574 132.302C526.82 132.196 527.002 132.089 527.12 131.98C527.223 131.889 527.305 131.824 527.365 131.786C527.502 131.708 527.689 131.656 527.928 131.631C528.167 131.606 528.332 131.646 528.423 131.749C528.512 131.836 528.569 131.999 528.594 132.238C528.617 132.461 528.58 132.649 528.484 132.804C528.387 132.959 528.34 133.278 528.342 133.76L528.308 135.766L528.241 138.379C528.201 140.329 528.196 141.753 528.225 142.651C528.269 143.547 528.288 144.117 528.281 144.359L528.257 145.061C528.237 145.642 528.245 146.108 528.281 146.458C528.316 146.792 528.379 147.091 528.471 147.355C528.929 147.275 529.313 147.107 529.625 146.849C529.936 146.592 530.234 146.288 530.519 145.936C530.905 145.929 531.115 146.1 531.152 146.45C531.186 146.784 531.104 147.082 530.906 147.344C530.707 147.59 530.455 147.801 530.152 147.977C529.575 148.31 529.04 148.502 528.546 148.554C528.069 148.603 527.695 148.569 527.426 148.452C527.157 148.336 526.899 148.177 526.653 147.977C526.249 147.649 525.864 147.191 525.497 146.601C524.971 147.428 524.273 148.136 523.401 148.724C522.53 149.329 521.634 149.68 520.711 149.775C519.803 149.869 519.072 149.8 518.518 149.568C517.945 149.322 517.475 148.976 517.107 148.532C516.407 147.671 515.971 146.413 515.8 144.758C515.726 144.042 515.87 143.343 516.234 142.662C516.596 141.965 517.047 141.348 517.586 140.809C518.14 140.253 518.704 139.801 519.28 139.452C519.871 139.101 520.421 138.899 520.93 138.846C521.439 138.794 521.898 138.794 522.306 138.849C522.712 138.887 523.04 138.95 523.29 139.036C523.556 139.121 523.767 139.212 523.922 139.309C524.076 139.405 524.22 139.471 524.352 139.505C524.53 139.053 524.61 138.578 524.591 138.081C524.586 137.567 524.536 136.856 524.442 135.949C524.348 135.042 524.214 134.598 524.039 134.616ZM519.922 144.959C520.01 145.497 520.16 146.012 520.372 146.505C521.017 147.451 521.628 147.991 522.204 148.124C522.22 148.123 522.236 148.121 522.252 148.12C523.064 148.035 523.69 147.56 524.131 146.694C524.495 146.013 524.734 145.136 524.848 144.063C524.931 143.314 524.949 142.709 524.901 142.247C524.854 141.786 524.753 141.434 524.599 141.193C524.446 140.951 524.246 140.731 524 140.531C523.438 140.075 522.902 139.873 522.393 139.925C522.377 139.927 522.369 139.928 522.369 139.928C521.846 139.998 521.418 140.139 521.086 140.35C520.752 140.546 520.474 140.808 520.25 141.137C520.025 141.449 519.862 141.812 519.76 142.225C519.658 142.638 519.629 143.059 519.673 143.489C519.718 143.918 519.801 144.408 519.922 144.959ZM537.108 137.557C535.787 137.694 535.147 137.961 535.189 138.359C535.24 138.853 535.436 139.275 535.778 139.625C536.12 139.976 536.532 140.303 537.014 140.607C537.494 140.895 538.013 141.171 538.571 141.435C539.146 141.697 539.673 141.98 540.155 142.284C541.291 143.003 541.906 143.816 542 144.723C542.116 145.837 541.574 146.666 540.376 147.208C539.638 147.542 538.696 147.768 537.551 147.887C536.421 148.004 535.473 148.013 534.706 147.916C533.956 147.816 533.347 147.759 532.879 147.743C532.428 147.741 532.149 147.682 532.04 147.564C531.947 147.445 531.892 147.298 531.874 147.123C531.854 146.932 531.876 146.761 531.941 146.61C532.004 146.442 532.084 146.281 532.181 146.126C532.456 145.68 532.617 145.365 532.662 145.184C532.706 144.986 532.736 144.806 532.751 144.644C532.77 144.513 532.804 144.381 532.855 144.247C532.952 143.947 533.136 143.783 533.407 143.755C533.693 143.726 533.951 143.884 534.18 144.23C534.425 144.575 534.698 144.957 534.998 145.376C535.313 145.778 535.673 146.143 536.077 146.471C536.497 146.797 537.017 146.928 537.638 146.864C538.704 146.754 539.207 146.404 539.146 145.815C539.095 145.322 538.468 144.711 537.267 143.983C536.752 143.666 536.187 143.339 535.573 143C534.959 142.662 534.392 142.318 533.874 141.97C532.648 141.164 532.001 140.427 531.931 139.758C531.867 139.137 531.977 138.643 532.261 138.276C532.558 137.892 532.936 137.579 533.394 137.339C534.018 137 535.001 136.706 536.343 136.454L537.534 136.307L539.346 136.095C540.046 136.022 540.472 136.026 540.626 136.107C540.849 136.245 540.984 136.537 541.03 136.982C541.076 137.428 541.108 137.819 541.127 138.154C541.162 138.489 541.176 138.785 541.171 139.043C541.162 139.574 541.03 139.853 540.775 139.88C540.425 139.916 540.1 139.813 539.802 139.57C539.502 139.312 539.207 139.029 538.918 138.721C538.644 138.411 538.358 138.135 538.06 137.893C537.776 137.633 537.458 137.521 537.108 137.557ZM550.553 146.564L549.364 146.736L548.911 146.783C548.449 146.83 548.089 146.852 547.832 146.846C547.233 146.812 546.766 146.812 546.432 146.846L544.427 147.054C544.156 147.082 543.953 147.063 543.818 146.996C543.698 146.928 543.617 146.768 543.575 146.515C543.532 146.262 543.621 146.108 543.841 146.053C544.06 145.998 544.307 145.972 544.581 145.976C544.853 145.964 545.116 145.945 545.371 145.919C545.626 145.892 545.785 145.803 545.85 145.652L545.552 142.305L545.332 139.722C545.314 139.547 545.294 139.428 545.271 139.366C545.179 139.408 545.077 139.434 544.966 139.446C544.855 139.457 544.717 139.375 544.554 139.199C544.39 139.007 544.299 138.831 544.283 138.672C544.266 138.513 544.303 138.405 544.394 138.347C544.483 138.273 544.581 138.215 544.689 138.172C544.797 138.128 544.898 138.086 544.99 138.044C545.082 138.002 545.124 137.942 545.116 137.862C545.019 137.389 544.933 136.876 544.86 136.32C544.8 135.747 544.733 135.175 544.658 134.604C544.581 134.017 544.505 133.437 544.429 132.866C544.37 132.293 544.291 131.762 544.192 131.274C544.069 131.174 543.992 131.126 543.96 131.129L543.053 131.223C542.846 131.245 542.639 131.266 542.432 131.287C542.224 131.293 542.057 131.238 541.933 131.122C541.806 130.99 541.737 130.861 541.723 130.733C541.71 130.606 541.7 130.511 541.694 130.447C541.703 130.382 541.753 130.32 541.844 130.263L544.195 129.899C544.484 129.901 544.764 129.888 545.035 129.86L549.274 129.324L549.609 129.29L550.638 129.207L550.972 129.173C551.088 129.209 551.161 129.37 551.191 129.657C551.219 129.927 551.159 130.126 551.011 130.254C550.862 130.366 550.573 130.444 550.143 130.489L548.992 130.56C549.15 132.088 549.272 133.651 549.357 135.251C549.459 136.849 549.61 138.627 549.813 140.585C550.014 142.526 550.271 144.148 550.583 145.451L552.218 145.403C552.552 145.368 552.746 145.533 552.8 145.897C552.751 146.047 552.657 146.145 552.517 146.192L550.553 146.564ZM557.533 145.455C557.326 145.477 557.204 145.313 557.168 144.962C557.158 144.867 557.165 144.778 557.188 144.695C557.212 144.612 557.295 144.563 557.439 144.548L559.229 144.363C559.22 143.962 559.217 143.471 559.222 142.892C559.224 142.296 559.221 141.645 559.212 140.938C559.19 139.171 559.106 137.58 558.959 136.163L558.358 130.362L556.924 130.728L553.248 133.666C553.232 133.668 553.22 133.709 553.212 133.79C553.219 133.854 553.206 133.888 553.174 133.891C552.999 133.909 552.84 133.845 552.696 133.699C552.552 133.553 552.471 133.393 552.453 133.218L553.617 128.85L556.402 129.407C556.862 129.504 557.53 129.507 558.405 129.416L560.238 129.178L562.557 128.962C563.718 128.842 564.655 128.568 565.367 128.14C565.503 128.062 565.616 127.986 565.705 127.912C565.776 127.825 565.857 127.744 565.946 127.67C566.107 127.525 566.3 127.441 566.523 127.418C566.745 127.394 566.894 127.427 566.967 127.516L568.934 130.666C568.942 130.746 568.875 130.874 568.732 131.049C568.604 131.207 568.539 131.278 568.537 131.262L565.647 130.379L563.586 129.821C563.395 129.841 563.241 129.905 563.124 130.013C563.022 130.12 562.955 130.32 562.921 130.614C562.843 131.104 562.893 132.209 563.071 133.928L563.59 140.34C563.798 142.346 564.01 143.466 564.227 143.701C564.301 143.789 564.385 143.821 564.479 143.795L565.755 143.542C565.962 143.521 566.139 143.519 566.285 143.536C566.413 143.522 566.485 143.595 566.501 143.755C566.544 144.168 566.464 144.402 566.26 144.455L564.79 144.704L557.533 145.455ZM586.273 142.093C584.28 142.573 582.209 142.924 580.061 143.147C579.504 143.204 578.993 143.241 578.528 143.257C578.079 143.271 577.649 143.236 577.238 143.149C576.829 143.079 576.594 142.991 576.535 142.884C576.476 142.778 576.426 142.526 576.384 142.128L578.915 141.866L578.701 140.03L578.627 139.314C578.603 139.091 578.599 138.891 578.612 138.712L578.22 135.858C577.653 135.82 577.311 135.775 577.193 135.723C577.089 135.653 577.032 135.562 577.02 135.451C577.007 135.324 577.042 135.199 577.126 135.078C577.193 134.943 577.283 134.804 577.397 134.664C577.711 134.278 577.877 134.019 577.896 133.888C577.914 133.758 577.934 133.482 577.955 133.062C577.974 132.626 577.989 132.15 578 131.634L578.043 130.182C578.06 129.729 578.055 129.448 578.028 129.339L577.824 127.84L575.951 128.154C575.617 128.189 575.431 128.031 575.395 127.681C575.371 127.603 575.481 127.503 575.726 127.381C576.123 127.179 576.417 127.068 576.608 127.049L577.136 127.018L584.287 125.94C584.971 125.869 585.331 126.001 585.365 126.335C585.4 126.669 585.19 126.892 584.735 127.003C583.951 127.197 583.49 127.333 583.354 127.412C583.308 127.594 583.274 127.734 583.253 127.833C583.147 128.213 583.094 128.557 583.094 128.862L583.102 129.875C583.092 130.246 583.085 130.641 583.08 131.059C583.089 131.461 583.089 131.847 583.079 132.218C583.084 132.571 583.083 132.877 583.078 133.135C583.088 133.391 583.083 133.649 583.061 133.909C583.019 134.428 583.075 135.443 583.232 136.955L583.553 139.817C583.594 140.215 583.674 140.529 583.795 140.757C583.929 140.969 584.243 141.049 584.736 140.998L586.491 140.937C586.873 140.897 587.156 140.828 587.339 140.728L587.882 140.382C588.065 140.283 588.246 140.168 588.425 140.037C588.921 139.696 589.225 139.455 589.34 139.315L589.963 138.575C590.214 138.211 590.497 137.828 590.809 137.425L592.252 135.514C592.747 135.64 593.037 136.109 593.121 136.92C593.184 137.525 593.144 138.229 593.002 139.032C592.876 139.833 592.757 140.392 592.645 140.71C592.383 141.444 592.069 141.831 591.703 141.869C590.955 141.946 590.209 141.959 589.463 141.908C588.736 141.87 588.165 141.873 587.751 141.916L586.987 141.995L586.417 142.078L586.273 142.093ZM604.201 140.237C602.208 140.717 600.137 141.068 597.988 141.29C597.431 141.348 596.921 141.385 596.456 141.401C596.007 141.415 595.577 141.379 595.166 141.293C594.756 141.223 594.522 141.135 594.463 141.028C594.403 140.922 594.353 140.669 594.312 140.272L596.842 140.01L596.628 138.174L596.554 137.458C596.531 137.235 596.526 137.034 596.54 136.856L596.148 134.001C595.581 133.963 595.239 133.918 595.121 133.866C595.017 133.797 594.959 133.706 594.948 133.595C594.934 133.467 594.97 133.343 595.054 133.222C595.12 133.086 595.21 132.948 595.325 132.808C595.638 132.421 595.805 132.163 595.823 132.032C595.842 131.901 595.862 131.626 595.883 131.206C595.902 130.769 595.917 130.293 595.928 129.777L595.97 128.325C595.988 127.873 595.983 127.592 595.955 127.482L595.752 125.983L593.878 126.298C593.544 126.332 593.359 126.175 593.323 125.825C593.299 125.747 593.409 125.647 593.654 125.525C594.051 125.323 594.345 125.212 594.536 125.192L595.064 125.162L602.215 124.083C602.899 124.013 603.258 124.144 603.293 124.478C603.328 124.813 603.118 125.036 602.663 125.147C601.878 125.341 601.418 125.477 601.281 125.555C601.236 125.737 601.202 125.877 601.18 125.976C601.075 126.357 601.022 126.7 601.021 127.006L601.03 128.018C601.02 128.389 601.012 128.784 601.008 129.203C601.017 129.604 601.017 129.99 601.007 130.361C601.011 130.715 601.011 131.02 601.005 131.278C601.016 131.535 601.01 131.793 600.989 132.052C600.946 132.571 601.003 133.587 601.16 135.099L601.48 137.961C601.521 138.359 601.602 138.672 601.722 138.901C601.857 139.112 602.171 139.192 602.664 139.141L604.419 139.08C604.801 139.041 605.083 138.971 605.266 138.872L605.809 138.526C605.992 138.427 606.173 138.311 606.353 138.18C606.848 137.839 607.153 137.599 607.267 137.458L607.89 136.718C608.142 136.354 608.424 135.971 608.736 135.569L610.179 133.658C610.675 133.784 610.965 134.252 611.049 135.064C611.111 135.669 611.072 136.373 610.929 137.175C610.803 137.977 610.684 138.536 610.572 138.853C610.311 139.588 609.997 139.974 609.631 140.012C608.883 140.09 608.136 140.103 607.391 140.051C606.663 140.014 606.092 140.017 605.679 140.06L604.915 140.139L604.344 140.222L604.201 140.237ZM619.462 138.463L620.635 138.366C622.067 138.218 623.18 137.861 623.974 137.296C624.678 136.789 625.06 136.291 625.122 135.802C625.195 135.264 625.295 134.908 625.422 134.734C625.549 134.56 625.684 134.465 625.827 134.451C625.97 134.436 626.102 134.47 626.224 134.554C626.359 134.621 626.439 134.773 626.464 135.012C626.487 135.235 626.453 135.528 626.362 135.891C626.269 136.238 626.128 136.583 625.938 136.924C625.546 137.64 625.054 138.174 624.463 138.525C623.434 139.146 622.187 139.532 620.723 139.684C618.877 139.875 617.312 139.523 616.029 138.626C614.345 137.433 613.248 135.303 612.737 132.235L611.543 132.359C611.416 132.372 611.343 132.283 611.323 132.092C611.303 131.901 611.328 131.754 611.398 131.65C611.467 131.546 611.555 131.465 611.662 131.405C611.767 131.33 611.881 131.27 612.005 131.225C612.145 131.178 612.269 131.133 612.377 131.09C612.334 129.582 612.488 128.199 612.84 126.94C613.122 125.93 613.429 125.247 613.762 124.89C614.109 124.517 614.54 124.174 615.055 123.864C615.552 123.539 616.078 123.259 616.633 123.025C617.681 122.578 618.714 122.303 619.732 122.197L622.494 122.538C622.572 122.353 622.7 122.195 622.879 122.064C623.075 121.931 623.308 121.851 623.578 121.823C624.008 121.778 624.262 122.13 624.339 122.878L623.93 126.154C623.933 126.186 623.803 126.247 623.539 126.339C623.221 126.372 622.995 126.291 622.863 126.095C622.061 124.409 621.124 123.525 620.054 123.443C619.779 123.423 619.538 123.424 619.331 123.445C618.344 123.547 617.889 123.964 617.964 124.696C617.974 124.792 617.99 124.871 618.013 124.933L618.029 124.859L618.074 125.288L618.331 127.771C618.694 131.272 618.903 133.76 618.959 135.234C619.014 136.692 619.06 137.604 619.098 137.97C619.134 138.32 619.255 138.485 619.462 138.463ZM634.634 137.327C634.443 137.346 634.332 137.205 634.301 136.903C634.269 136.6 634.405 136.434 634.707 136.402L636.08 136.381L635.25 128.36L634.496 128.534C634.177 128.567 634.003 128.432 633.971 128.13C633.96 128.019 634.117 127.906 634.443 127.792C634.783 127.66 634.993 127.59 635.073 127.582C634.773 124.685 634.282 122.822 633.601 121.991C633.417 121.769 633.214 121.67 632.991 121.693L632.304 121.812C631.969 121.847 631.787 121.713 631.755 121.411C631.734 121.204 631.83 121.041 632.043 120.922C632.754 120.8 633.412 120.708 634.017 120.646L636.117 120.428C640.032 120.023 642.963 120.363 644.909 121.448C645.967 122.03 646.561 122.958 646.693 124.231C646.792 125.186 646.612 126.089 646.154 126.941C645.951 127.316 645.644 127.685 645.231 128.05C644.817 128.398 644.332 128.69 643.777 128.924C643.237 129.141 642.699 129.309 642.165 129.429C641.504 129.578 640.665 129.705 639.647 129.81L640.24 135.54L640.556 135.797C640.65 135.771 640.792 135.748 640.983 135.728L641.604 135.664C642.24 135.598 642.649 135.58 642.829 135.609C643.092 135.663 643.357 135.82 643.626 136.082L643.347 136.424L634.634 137.327ZM640.941 128.566L641.894 128.444C642.732 128.309 643.268 127.811 643.5 126.95C643.637 126.405 643.668 125.775 643.594 125.059C643.518 124.326 643.43 123.781 643.328 123.421C643.242 123.06 643.104 122.737 642.914 122.451C642.4 121.684 641.431 121.253 640.005 121.159C639.244 121.11 638.609 121.111 638.1 121.164C638.113 121.291 638.126 121.418 638.139 121.546C638.377 123.837 638.71 125.741 639.141 127.257C639.289 127.756 639.413 128.097 639.512 128.28C639.627 128.461 639.775 128.567 639.955 128.596C640.135 128.626 640.464 128.616 640.941 128.566ZM654.503 135.173L650.104 135.797C649.737 135.835 649.422 135.819 649.158 135.75C648.909 135.68 648.763 135.437 648.72 135.023C648.717 134.831 648.919 134.689 649.328 134.599C649.785 134.503 650.056 134.403 650.141 134.297C650.452 133.879 650.518 132.811 650.34 131.092C650.217 129.898 650.093 129.018 649.97 128.452C649.847 127.885 649.775 127.579 649.754 127.533C649.664 127.285 649.506 127.149 649.278 127.124C649.064 127.082 648.837 127.057 648.595 127.05C648.352 127.043 648.132 127.009 647.933 126.95C647.748 126.872 647.644 126.722 647.621 126.499C647.596 126.261 647.638 126.12 647.746 126.076C648.062 126.027 648.589 125.909 649.325 125.72L651.067 125.298C651.478 125.223 651.855 125.136 652.198 125.036C652.917 124.833 653.316 124.727 653.396 124.719C653.762 124.681 653.971 124.909 654.022 125.402C654.096 126.118 654.071 126.732 653.947 127.244C654.136 127.047 654.324 126.77 654.512 126.413C654.701 126.056 654.905 125.697 655.125 125.336C655.676 124.443 656.174 123.973 656.62 123.927C657.065 123.881 657.465 123.936 657.819 124.092C658.173 124.249 658.485 124.466 658.755 124.743C659.332 125.343 659.66 126.025 659.739 126.789C659.833 127.857 659.522 128.653 658.804 129.178C658.534 129.367 658.216 129.48 657.85 129.518C657.5 129.554 657.218 129.471 657.004 129.268C656.79 129.065 656.602 128.811 656.442 128.505C656.298 128.199 656.16 127.875 656.028 127.535C655.895 127.179 655.757 126.863 655.616 126.588C654.452 127.931 653.883 129.35 653.909 130.843C653.922 131.276 653.943 131.708 653.971 132.139L654.156 133.689C654.177 133.895 654.255 134.024 654.389 134.075C654.523 134.125 654.672 134.166 654.836 134.197C654.998 134.213 655.147 134.245 655.28 134.296C655.413 134.331 655.489 134.443 655.508 134.634C655.528 134.825 655.448 134.986 655.269 135.117L654.503 135.173ZM661.972 132.228C661.606 131.799 661.372 131.333 661.272 130.828C661.172 130.324 661.087 129.738 661.017 129.069C660.948 128.401 661.112 127.732 661.51 127.064C661.905 126.379 662.438 125.777 663.108 125.258C664.505 124.148 666.063 123.504 667.782 123.326C669.262 123.173 670.588 123.783 671.76 125.158C672.271 125.748 672.678 126.414 672.98 127.155C673.296 127.878 673.495 128.63 673.575 129.41C673.656 130.189 673.496 130.97 673.094 131.752C672.56 132.804 671.718 133.535 670.57 133.943C670.198 134.078 669.714 134.217 669.117 134.359C668.538 134.516 668.193 134.6 668.082 134.611C666.904 134.733 665.808 134.629 664.792 134.3C663.777 133.971 662.837 133.28 661.972 132.228ZM665.685 129.406C665.723 129.772 665.78 130.169 665.856 130.595C665.949 131.02 666.071 131.425 666.224 131.812C666.595 132.754 667.035 133.199 667.544 133.147C668.101 133.089 668.511 132.853 668.774 132.44C669.037 132.027 669.212 131.542 669.299 130.986C669.414 130.235 669.391 129.079 669.229 127.519C669.16 126.851 669.021 126.278 668.81 125.801C668.343 125.013 668.008 124.581 667.807 124.506C667.792 124.507 667.776 124.509 667.76 124.511C666.789 124.611 666.155 125.248 665.858 126.421C665.626 127.281 665.568 128.276 665.685 129.406ZM683.219 118.132C682.932 118.162 682.676 118.253 682.451 118.405C682.241 118.555 682.009 118.644 681.754 118.67C681.5 118.696 681.319 118.659 681.212 118.557C681.121 118.454 681.068 118.331 681.053 118.188C681.038 118.044 681.079 117.895 681.176 117.741C681.272 117.586 681.383 117.494 681.509 117.465C681.633 117.42 681.904 117.319 682.322 117.163C682.74 117.008 683.189 116.832 683.667 116.638L685.01 116.089C685.446 115.947 685.694 115.857 685.754 115.819C686 115.713 686.182 115.606 686.3 115.497C686.403 115.406 686.485 115.341 686.545 115.303C686.682 115.224 686.869 115.173 687.108 115.148C687.347 115.123 687.512 115.162 687.603 115.265C687.692 115.353 687.749 115.516 687.774 115.754C687.797 115.977 687.761 116.166 687.664 116.321C687.567 116.476 687.52 116.794 687.522 117.277L687.488 119.283L687.421 121.895C687.382 123.846 687.376 125.27 687.405 126.168C687.449 127.064 687.468 127.633 687.461 127.875L687.437 128.577C687.417 129.159 687.425 129.624 687.461 129.974C687.496 130.309 687.559 130.608 687.651 130.872C688.109 130.792 688.494 130.623 688.805 130.366C689.116 130.109 689.414 129.804 689.699 129.453C690.085 129.445 690.295 129.616 690.332 129.967C690.366 130.301 690.285 130.599 690.086 130.861C689.887 131.106 689.635 131.318 689.332 131.494C688.755 131.827 688.22 132.019 687.726 132.07C687.249 132.12 686.876 132.086 686.606 131.969C686.337 131.852 686.079 131.694 685.833 131.494C685.429 131.166 685.044 130.707 684.677 130.118C684.152 130.944 683.453 131.652 682.581 132.241C681.71 132.846 680.814 133.196 679.891 133.292C678.983 133.386 678.252 133.317 677.698 133.085C677.125 132.838 676.655 132.493 676.287 132.048C675.587 131.188 675.151 129.93 674.98 128.275C674.906 127.559 675.05 126.86 675.414 126.179C675.776 125.482 676.227 124.864 676.767 124.326C677.32 123.77 677.885 123.317 678.46 122.968C679.051 122.617 679.601 122.416 680.11 122.363C680.619 122.31 681.078 122.311 681.486 122.365C681.892 122.404 682.22 122.466 682.47 122.553C682.736 122.638 682.947 122.729 683.102 122.825C683.256 122.922 683.4 122.987 683.532 123.022C683.711 122.569 683.79 122.095 683.771 121.598C683.766 121.084 683.716 120.373 683.622 119.466C683.528 118.559 683.394 118.114 683.219 118.132ZM679.102 128.475C679.19 129.013 679.34 129.528 679.552 130.021C680.197 130.968 680.808 131.508 681.385 131.641C681.4 131.639 681.416 131.638 681.432 131.636C682.244 131.552 682.87 131.077 683.311 130.211C683.675 129.53 683.914 128.653 684.028 127.579C684.112 126.831 684.129 126.226 684.082 125.764C684.034 125.302 683.933 124.951 683.779 124.71C683.626 124.468 683.426 124.247 683.18 124.048C682.618 123.591 682.082 123.389 681.573 123.442C681.557 123.444 681.549 123.445 681.549 123.445C681.026 123.515 680.598 123.656 680.266 123.867C679.932 124.062 679.654 124.324 679.43 124.653C679.205 124.966 679.042 125.329 678.94 125.741C678.838 126.154 678.809 126.575 678.854 127.005C678.898 127.435 678.981 127.925 679.102 128.475ZM703.633 130.688C702.073 130.85 700.773 130.019 699.732 128.197C699.669 128.831 699.158 129.487 698.198 130.165C697.314 130.788 696.481 131.139 695.702 131.22C694.699 131.324 693.778 130.969 692.937 130.155C692.204 129.443 691.789 128.617 691.692 127.678L691.279 123.692C691.259 123.501 691.196 123.354 691.088 123.253C690.98 123.136 690.864 123.027 690.741 122.927C690.616 122.811 690.5 122.695 690.391 122.577C690.281 122.444 690.214 122.266 690.191 122.043C690.143 121.581 690.899 121.27 692.459 121.108L693.39 121.012C693.979 120.951 694.386 120.925 694.612 120.934L695.528 121.153C695.587 121.725 695.625 122.558 695.642 123.65C695.665 125.739 695.697 127.062 695.739 127.621L695.766 127.884C695.83 128.344 695.901 128.642 695.98 128.779C696.17 129.064 696.456 129.188 696.838 129.148C697.109 129.12 697.347 129.015 697.554 128.833L698.108 128.365C698.135 128.314 698.237 128.135 698.415 127.827C698.761 127.292 698.931 126.993 698.925 126.929L698.297 120.866C698.246 120.372 699.094 120.019 700.841 119.806L702.059 119.68C702.393 119.645 702.62 119.662 702.74 119.73C702.874 119.781 702.95 119.893 702.968 120.068C702.984 120.228 702.988 120.34 702.978 120.405C702.967 120.455 702.924 120.499 702.848 120.539C702.836 120.894 702.806 121.227 702.758 121.538L702.656 122.417C702.579 123.068 702.572 123.705 702.636 124.325C702.892 126.792 703.513 128.288 704.501 128.813C704.84 128.987 705.126 129.102 705.357 129.159C705.604 129.214 705.728 129.249 705.73 129.265C705.754 129.504 705.511 129.794 705 130.137C704.311 130.481 703.872 130.664 703.681 130.683C703.681 130.683 703.673 130.684 703.657 130.686L703.633 130.688ZM715.785 118.09C715.992 118.068 716.191 118.12 716.38 118.245C716.585 118.353 716.688 118.414 716.689 118.43L716.971 121.152C716.987 121.311 716.906 121.456 716.727 121.587C716.547 121.719 716.37 121.793 716.195 121.811C716.036 121.828 715.825 121.737 715.563 121.539C715.316 121.323 715.018 121.089 714.67 120.835C713.751 120.19 712.838 119.915 711.93 120.009C711.596 120.044 711.312 120.25 711.078 120.628C710.859 121.005 710.691 121.4 710.573 121.814C710.455 122.229 710.384 122.63 710.36 123.019C710.321 123.57 710.334 124.163 710.4 124.8C710.389 124.849 710.385 124.89 710.388 124.922C710.449 125.511 710.559 126.022 710.716 126.456C710.89 126.889 711.092 127.286 711.322 127.648C712.003 128.318 712.58 128.692 713.055 128.772C714.169 128.656 715.177 128.061 716.079 126.987C716.163 126.865 716.222 126.739 716.257 126.606C716.292 126.474 716.334 126.341 716.385 126.207C716.5 125.922 716.709 125.763 717.011 125.732C717.312 125.685 717.518 125.736 717.63 125.885C717.742 126.034 717.806 126.189 717.823 126.348C717.709 126.649 717.503 126.984 717.203 127.353C716.919 127.72 716.615 128.041 716.289 128.316C715.98 128.589 715.641 128.818 715.274 129C714.616 129.326 713.794 129.54 712.807 129.642C711.837 129.742 710.96 129.745 710.178 129.649C709.41 129.535 708.726 129.3 708.127 128.944C706.839 128.161 706.091 126.758 705.881 124.737C705.752 123.335 706.132 122.105 707.019 121.048C708.037 119.849 709.468 119.146 711.313 118.939C711.79 118.889 712.233 118.892 712.641 118.946C713.063 118.983 713.568 118.971 714.157 118.91C714.746 118.849 715.289 118.575 715.785 118.09ZM721.106 116.839L720.822 115.493L720.798 115.496C720.718 115.504 720.429 115.582 719.929 115.73C719.754 115.748 719.581 115.702 719.408 115.591C719.236 115.48 719.14 115.329 719.12 115.138C719.099 114.932 719.154 114.765 719.285 114.639C719.431 114.495 719.62 114.371 719.85 114.267C720.111 114.143 720.68 113.972 721.558 113.752L721.99 113.731C722.242 113.673 722.487 113.559 722.727 113.39L723.404 112.934C723.883 112.594 724.29 112.407 724.624 112.373C724.975 112.337 725.183 112.411 725.251 112.597C725.333 112.766 725.387 112.978 725.413 113.232L725.393 113.5C725.326 114.568 725.311 115.278 725.348 115.628C725.384 115.978 725.412 116.248 725.432 116.439L725.539 117.007C725.558 117.198 725.577 117.373 725.593 117.533C725.625 117.69 725.645 117.801 725.652 117.864C726.018 117.826 726.372 117.757 726.716 117.658C727.059 117.558 727.422 117.488 727.804 117.448C728.202 117.407 728.417 117.546 728.45 117.864C728.472 118.071 728.441 118.235 728.357 118.356C727.911 118.402 727.374 118.498 726.746 118.644C726.117 118.789 725.772 118.873 725.71 118.896C725.591 118.988 725.508 119.431 725.462 120.224C725.415 121.017 725.397 121.542 725.407 121.798C725.432 122.037 725.441 122.277 725.434 122.519C725.427 122.761 725.413 123.012 725.391 123.272C725.341 123.872 725.351 124.515 725.422 125.199C725.455 125.517 725.605 125.799 725.871 126.045C726.138 126.291 726.439 126.397 726.773 126.362L727.675 126.22C727.898 126.197 728.1 126.208 728.282 126.254C728.479 126.298 728.59 126.439 728.615 126.678C728.617 126.694 728.61 126.711 728.596 126.728L728.599 126.752C728.162 127.505 726.957 127.984 724.983 128.188C723.694 128.321 722.716 127.964 722.049 127.116C721.55 126.493 721.241 125.6 721.121 124.438C721.101 124.247 721.081 122.97 721.062 120.608L720.905 119.562L717.969 119.866C717.857 119.878 717.77 119.814 717.708 119.676C717.629 119.539 717.586 119.431 717.578 119.352C717.553 119.113 717.647 118.934 717.86 118.816C719.868 118.479 720.948 118.263 721.098 118.167C721.135 117.584 721.137 117.141 721.106 116.839Z" fill="white"/>
</svg>
