<svg width="171" height="64" viewBox="0 0 171 64" fill="none" xmlns="http://www.w3.org/2000/svg">
<path d="M89.2637 5.9245C89.0059 6.08856 88.877 6.21747 88.877 6.31122C88.9004 6.38153 88.8652 6.42841 88.7715 6.45184C88.6543 6.49872 88.5488 6.58075 88.4551 6.69794C88.3848 6.79169 88.291 6.862 88.1738 6.90887C87.916 6.97919 87.7754 7.03778 87.752 7.08466C87.7285 7.10809 87.6934 7.11981 87.6465 7.11981C87.5293 7.14325 87.3887 7.14325 87.2246 7.11981C87.0605 7.07294 86.9316 7.07294 86.8379 7.11981C86.627 7.07294 86.416 7.08466 86.2051 7.15497C85.9941 7.20184 85.7832 7.22528 85.5723 7.22528C85.3613 7.24872 85.1387 7.24872 84.9043 7.22528C84.6934 7.17841 84.4824 7.14325 84.2715 7.11981C84.084 7.07294 83.8965 7.00262 83.709 6.90887C83.5449 6.79169 83.3691 6.69794 83.1816 6.62762L82.8301 6.41669C82.5488 6.27606 82.373 6.19403 82.3027 6.17059C82.2559 6.14716 82.1738 6.14716 82.0566 6.17059C81.9863 6.02997 81.8809 5.93622 81.7402 5.88934C81.5996 5.81903 81.4707 5.72528 81.3535 5.60809C81.1895 5.65497 81.0371 5.65497 80.8965 5.60809C80.7793 5.56122 80.6387 5.52606 80.4746 5.50262C80.3105 5.45575 80.1113 5.44403 79.877 5.46747C79.666 5.49091 79.502 5.43231 79.3848 5.29169C79.3145 5.33856 79.2559 5.39716 79.209 5.46747C79.1855 5.51434 79.1387 5.56122 79.0684 5.60809C78.9043 5.53778 78.752 5.53778 78.6113 5.60809C78.541 5.63153 78.4238 5.66669 78.2598 5.71356C78.1191 5.76044 77.9668 5.81903 77.8027 5.88934C77.6621 5.93622 77.5215 5.99481 77.3809 6.06512C77.2402 6.112 77.1582 6.14716 77.1348 6.17059C77.0176 6.12372 76.8184 6.12372 76.5371 6.17059C76.2793 6.19403 76.0801 6.21747 75.9395 6.24091C75.8223 6.24091 75.7402 6.2995 75.6934 6.41669C75.6699 6.51044 75.5762 6.53387 75.4121 6.487C75.2715 6.55731 75.2129 6.6745 75.2363 6.83856C75.0488 6.81512 74.8848 6.87372 74.7441 7.01434C74.627 7.13153 74.5215 7.28387 74.4277 7.47137C74.334 7.65887 74.2637 7.85809 74.2168 8.06903C74.1699 8.27997 74.1348 8.45575 74.1113 8.59637C74.1113 8.64325 74.0879 8.72528 74.041 8.84247C74.0176 8.93622 74.0059 9.00653 74.0059 9.05341C74.0527 9.31122 74.0527 9.47528 74.0059 9.54559C73.9824 9.59247 73.9707 9.65106 73.9707 9.72137C73.9707 9.862 73.9824 10.0143 74.0059 10.1784C74.0293 10.3425 74.0645 10.4831 74.1113 10.6003C74.1582 10.7878 74.2051 10.9753 74.252 11.1628C74.3223 11.3268 74.2637 11.4792 74.0762 11.6198C74.1699 11.9011 74.2051 12.2643 74.1816 12.7097C74.1816 13.1315 74.2754 13.4479 74.4629 13.6589C74.4863 13.7292 74.4863 13.8347 74.4629 13.9753C74.4395 14.1159 74.4512 14.2097 74.498 14.2565C74.6387 14.3034 74.7676 14.3034 74.8848 14.2565C75.002 14.1862 75.1191 14.1393 75.2363 14.1159C75.3066 14.1159 75.377 14.1276 75.4473 14.1511C75.5176 14.1745 75.5879 14.1862 75.6582 14.1862C75.7754 14.1862 75.8809 14.1628 75.9746 14.1159C76.0918 14.069 76.209 14.0456 76.3262 14.0456C76.6074 14.0456 76.8887 14.069 77.1699 14.1159C77.4746 14.1628 77.7793 14.1628 78.084 14.1159C78.1309 14.2331 78.1895 14.28 78.2598 14.2565C78.3535 14.2331 78.4473 14.2331 78.541 14.2565C78.6582 14.3034 78.7754 14.3503 78.8926 14.3972C79.0098 14.444 79.127 14.4909 79.2441 14.5378C79.3145 14.5612 79.3848 14.5729 79.4551 14.5729C79.5254 14.5495 79.5957 14.5495 79.666 14.5729C80.0879 14.737 80.416 14.819 80.6504 14.819C80.8848 14.7956 81.1191 14.8073 81.3535 14.8542C81.7051 14.9714 81.916 15.03 81.9863 15.03C82.0566 15.0065 82.127 14.9948 82.1973 14.9948C82.291 14.9714 82.3848 14.9597 82.4785 14.9597C82.5957 14.9597 82.7598 14.9948 82.9707 15.0651C83.2285 14.9245 83.4863 14.8776 83.7441 14.9245C84.002 14.9714 84.2598 14.9948 84.5176 14.9948C84.6348 14.9948 84.7402 14.9714 84.834 14.9245C84.9512 14.8776 85.0684 14.8776 85.1855 14.9245C85.3262 15.0651 85.4316 15.1354 85.502 15.1354C85.5723 15.112 85.6309 15.112 85.6777 15.1354C85.748 15.1823 85.8066 15.2409 85.8535 15.3112C85.9004 15.3581 85.9824 15.3698 86.0996 15.3464C86.123 15.487 86.0996 15.6393 86.0293 15.8034C85.9824 15.944 86.0059 16.0847 86.0996 16.2253C85.9824 16.319 85.8652 16.4128 85.748 16.5065C85.6543 16.6003 85.5488 16.6823 85.4316 16.7526C85.3848 16.8698 85.3262 16.9987 85.2559 17.1393C85.209 17.28 85.127 17.3972 85.0098 17.4909C84.8691 17.3972 84.7168 17.362 84.5527 17.3854C84.4121 17.4089 84.2715 17.3972 84.1309 17.3503C84.0371 17.3268 83.9551 17.3034 83.8848 17.28C83.8145 17.2331 83.7324 17.1862 83.6387 17.1393C83.4043 17.0925 83.1348 17.069 82.8301 17.069C82.5488 17.0456 82.3027 17.0925 82.0918 17.2097C81.9043 17.1393 81.7051 17.1042 81.4941 17.1042C81.3066 17.0807 81.1191 17.0339 80.9316 16.9636C80.8613 16.9636 80.791 16.9753 80.7207 16.9987C80.6504 17.0222 80.5918 17.0456 80.5449 17.069C80.4043 17.0222 80.2402 16.9753 80.0527 16.9284C79.8887 16.8815 79.7246 16.8464 79.5605 16.8229C79.4434 16.7995 79.3145 16.7995 79.1738 16.8229C79.0332 16.8229 78.8926 16.7995 78.752 16.7526C78.3535 16.612 78.0371 16.5534 77.8027 16.5768C77.5918 16.5768 77.3926 16.5182 77.2051 16.4011C77.0879 16.4479 76.9473 16.4831 76.7832 16.5065C76.6191 16.5065 76.4668 16.53 76.3262 16.5768C76.1855 16.6003 76.0566 16.6472 75.9395 16.7175C75.8457 16.7878 75.7871 16.905 75.7637 17.069C75.6465 17.069 75.5293 17.0925 75.4121 17.1393C75.3184 17.1862 75.2129 17.2097 75.0957 17.2097C75.0254 17.444 74.9902 17.6667 74.9902 17.8776C74.9902 18.0886 74.9551 18.2995 74.8848 18.5104C74.7676 18.9323 74.7441 19.3307 74.8145 19.7057C74.8613 19.8464 74.8965 19.9636 74.9199 20.0573C74.9668 20.1511 74.9668 20.28 74.9199 20.444C74.8496 20.655 74.8027 20.8073 74.7793 20.9011C74.7793 20.9948 74.7793 21.0768 74.7793 21.1472C74.7793 21.2175 74.791 21.2995 74.8145 21.3932C74.8379 21.487 74.8613 21.6276 74.8848 21.8151C74.8848 21.9792 74.8848 22.1784 74.8848 22.4128C74.8848 22.6472 74.8613 22.8464 74.8145 23.0104C74.7207 23.3151 74.6855 23.5143 74.709 23.6081C74.7559 23.6784 74.7793 23.7487 74.7793 23.819C74.8027 24.0768 74.8145 24.3347 74.8145 24.5925C74.8379 24.8503 74.8613 25.1081 74.8848 25.3659C74.8848 25.5768 74.8848 25.7643 74.8848 25.9284C74.8848 26.0925 74.9434 26.2682 75.0605 26.4557C75.0137 26.5729 74.9902 26.7253 74.9902 26.9128C75.0137 27.1003 75.0137 27.2643 74.9902 27.405C74.9668 27.5456 74.9316 27.6979 74.8848 27.862C74.8379 28.0026 74.8496 28.1432 74.9199 28.2839C74.7793 28.3307 74.7207 28.3893 74.7441 28.4597C74.7676 28.53 74.7793 28.6237 74.7793 28.7409C74.7324 28.8581 74.6621 28.9518 74.5684 29.0222C74.498 29.0925 74.4277 29.1862 74.3574 29.3034C74.3574 29.3972 74.3691 29.4909 74.3926 29.5847C74.416 29.6784 74.416 29.7839 74.3926 29.9011C74.3457 30.0886 74.2402 30.2175 74.0762 30.2878C73.9121 30.3815 73.8301 30.5456 73.8301 30.78C73.6426 30.7331 73.4902 30.7448 73.373 30.8151C73.2793 30.8854 73.1855 30.8972 73.0918 30.8503C72.8809 30.8268 72.7285 30.7331 72.6348 30.569C72.5645 30.4284 72.4004 30.3815 72.1426 30.4284C72.166 30.3347 72.1309 30.2409 72.0371 30.1472C71.9668 30.0534 71.9199 29.9479 71.8965 29.8307C71.8496 29.6667 71.8496 29.5143 71.8965 29.3737C71.9668 29.2097 72.0371 29.0573 72.1074 28.9167C72.2012 28.7761 72.2832 28.6472 72.3535 28.53C72.4473 28.3893 72.5059 28.237 72.5293 28.0729C72.5762 27.7917 72.5645 27.4987 72.4941 27.194C72.4473 26.8659 72.4238 26.5495 72.4238 26.2448C72.4238 26.1276 72.4121 25.9167 72.3887 25.612C72.3652 25.3073 72.3418 25.0026 72.3184 24.6979C72.2949 24.3698 72.2715 24.0768 72.248 23.819C72.248 23.5378 72.2715 23.362 72.3184 23.2917C72.3184 23.1511 72.3066 22.987 72.2832 22.7995C72.2832 22.612 72.2832 22.4831 72.2832 22.4128C72.2598 22.1784 72.2598 22.0143 72.2832 21.9206C72.3301 21.8268 72.3535 21.7448 72.3535 21.6745C72.377 21.5104 72.3535 21.3347 72.2832 21.1472C72.2363 20.9597 72.248 20.7956 72.3184 20.655C72.3887 20.5143 72.4004 20.4089 72.3535 20.3386C72.3301 20.2682 72.3066 20.1979 72.2832 20.1276C72.2598 20.0339 72.2598 19.9518 72.2832 19.8815C72.3066 19.8112 72.3184 19.7292 72.3184 19.6354C72.3184 19.5651 72.2949 19.4948 72.248 19.4245C72.2246 19.3307 72.2129 19.2487 72.2129 19.1784C72.3066 18.8972 72.3301 18.7097 72.2832 18.6159C72.2363 18.4987 72.2246 18.3932 72.248 18.2995C72.3652 18.0651 72.4004 17.8776 72.3535 17.737C72.3066 17.5729 72.3184 17.4206 72.3887 17.28C72.3652 17.1862 72.3184 17.1276 72.248 17.1042C72.1777 17.0807 72.1074 17.0573 72.0371 17.0339C72.0605 16.8464 72.0254 16.694 71.9316 16.5768C71.8379 16.4362 71.7441 16.2956 71.6504 16.155C71.5801 16.0143 71.5566 15.8503 71.5801 15.6628C71.6035 15.4753 71.7559 15.2057 72.0371 14.8542C71.9668 14.5964 71.9199 14.3386 71.8965 14.0807C71.8965 13.8229 71.873 13.5651 71.8262 13.3073C71.8027 13.2136 71.7793 13.1315 71.7559 13.0612C71.7324 12.9909 71.7207 12.9206 71.7207 12.8503C71.7207 12.7097 71.7324 12.5807 71.7559 12.4636C71.8027 12.3464 71.8262 12.2292 71.8262 12.112C71.8262 11.9948 71.8027 11.8893 71.7559 11.7956C71.709 11.7018 71.6738 11.5964 71.6504 11.4792C71.6504 11.3854 71.6621 11.3034 71.6855 11.2331C71.709 11.1393 71.709 11.0456 71.6855 10.9518C71.6855 10.8815 71.6621 10.8112 71.6152 10.7409C71.5918 10.6706 71.5684 10.6003 71.5449 10.53C71.498 10.3893 71.4629 10.2253 71.4395 10.0378C71.4395 9.82684 71.4512 9.61591 71.4746 9.40497C71.498 9.19403 71.5332 8.99481 71.5801 8.80731C71.627 8.59637 71.6855 8.43231 71.7559 8.31512C71.7559 8.19794 71.7441 8.11591 71.7207 8.06903C71.6973 8.02216 71.6738 7.95184 71.6504 7.85809C71.8613 7.64716 71.9785 7.4245 72.002 7.19012C72.0488 6.93231 72.1074 6.6745 72.1777 6.41669C72.2012 6.32294 72.2715 6.21747 72.3887 6.10028C72.5059 5.98309 72.6348 5.87762 72.7754 5.78387C72.9395 5.66669 73.0918 5.56122 73.2324 5.46747C73.373 5.37372 73.4902 5.29169 73.584 5.22137C73.7949 5.05731 73.9941 4.88153 74.1816 4.69403C74.3691 4.50653 74.5566 4.31903 74.7441 4.13153C74.8613 4.15497 74.9668 4.13153 75.0605 4.06122C75.1777 3.99091 75.2949 3.94403 75.4121 3.92059C75.6465 3.99091 75.8809 4.00262 76.1152 3.95575C76.3496 3.88544 76.584 3.81512 76.8184 3.74481C77.0762 3.65106 77.2988 3.55731 77.4863 3.46356C77.6973 3.34637 77.8262 3.25262 77.873 3.18231C78.3184 3.27606 78.7637 3.28778 79.209 3.21747C79.6543 3.14716 80.0996 3.112 80.5449 3.112C80.6152 3.13544 80.6855 3.15887 80.7559 3.18231C80.8496 3.18231 80.9434 3.15887 81.0371 3.112C81.2246 3.25262 81.4473 3.34637 81.7051 3.39325C81.9629 3.44012 82.209 3.46356 82.4434 3.46356C82.5137 3.51044 82.584 3.55731 82.6543 3.60419C82.7246 3.65106 82.7715 3.72137 82.7949 3.81512C83.0527 3.83856 83.2754 3.90887 83.4629 4.02606C83.6738 4.14325 83.873 4.29559 84.0605 4.48309C84.2246 4.45966 84.3887 4.45966 84.5527 4.48309C84.7168 4.50653 84.8691 4.57684 85.0098 4.69403C85.1973 4.62372 85.3848 4.62372 85.5723 4.69403C85.7832 4.74091 85.9824 4.75262 86.1699 4.72919C86.3574 4.72919 86.5449 4.70575 86.7324 4.65887C86.9199 4.612 87.1074 4.57684 87.2949 4.55341C87.4121 4.55341 87.5176 4.56512 87.6113 4.58856C87.7285 4.612 87.8457 4.60028 87.9629 4.55341C88.1738 4.74091 88.4199 4.90497 88.7012 5.04559C89.0059 5.18622 89.1934 5.40887 89.2637 5.71356V5.9245ZM96.9629 28.8464C96.8457 29.0807 96.7285 29.3151 96.6113 29.5495C96.4941 29.7839 96.2949 29.9362 96.0137 30.0065C95.8496 30.2643 95.7207 30.4167 95.627 30.4636C95.5332 30.5339 95.4395 30.5573 95.3457 30.5339C95.252 30.5104 95.1465 30.4518 95.0293 30.3581C94.9355 30.2878 94.7949 30.2292 94.6074 30.1823C94.5371 29.9479 94.4199 29.7604 94.2559 29.6198C94.1152 29.4792 93.9863 29.3151 93.8691 29.1276C93.916 28.9401 93.9512 28.7643 93.9746 28.6003C94.0215 28.4362 94.0801 28.2722 94.1504 28.1081C94.127 27.9909 94.0566 27.944 93.9395 27.9675C93.8457 27.9675 93.7754 27.944 93.7285 27.8972C93.6582 27.8972 93.5762 27.944 93.4824 28.0378C93.3887 28.1315 93.3184 28.2018 93.2715 28.2487C93.0605 28.2956 92.9082 28.3659 92.8145 28.4597C92.7441 28.5534 92.6855 28.6354 92.6387 28.7057C92.3809 28.7292 92.1816 28.7995 92.041 28.9167C91.9004 29.0104 91.7012 29.0339 91.4434 28.987C91.3496 29.0339 91.2793 29.1042 91.2324 29.1979C91.209 29.2682 91.1738 29.3268 91.127 29.3737C90.8926 29.4675 90.7285 29.5143 90.6348 29.5143C90.5645 29.4909 90.5059 29.4909 90.459 29.5143C90.2715 29.5847 90.0957 29.655 89.9316 29.7253C89.791 29.819 89.627 29.7956 89.4395 29.655C89.3457 29.7722 89.252 29.7956 89.1582 29.7253C89.0645 29.6784 88.9824 29.7018 88.9121 29.7956C88.7715 29.7722 88.666 29.737 88.5957 29.6901C88.5488 29.6432 88.4316 29.6315 88.2441 29.655C88.127 29.6784 88.0566 29.6432 88.0332 29.5495C88.0332 29.4557 87.9863 29.3972 87.8926 29.3737C87.7988 29.3268 87.7051 29.3034 87.6113 29.3034C87.541 29.3034 87.4707 29.2917 87.4004 29.2682C87.3535 29.1276 87.2715 29.0573 87.1543 29.0573C87.0371 29.0573 86.9316 29.0339 86.8379 28.987C86.791 28.8464 86.7441 28.7878 86.6973 28.8112C86.6504 28.8112 86.5801 28.7761 86.4863 28.7057C86.3457 28.612 86.2402 28.4948 86.1699 28.3542C86.0996 28.1901 85.9707 28.0847 85.7832 28.0378C85.6426 27.8034 85.5605 27.5456 85.5371 27.2643C85.5371 26.9831 85.4785 26.7253 85.3613 26.4909C85.4551 26.4206 85.5137 26.3151 85.5371 26.1745C85.5605 26.0339 85.5723 25.8932 85.5723 25.7526C85.5957 25.612 85.6191 25.4831 85.6426 25.3659C85.6895 25.2487 85.7598 25.155 85.8535 25.0847C85.8066 24.9206 85.8184 24.8034 85.8887 24.7331C85.959 24.6393 85.9824 24.5339 85.959 24.4167C86.1465 24.3229 86.2637 24.1706 86.3105 23.9597C86.3809 23.7253 86.5215 23.5847 86.7324 23.5378C86.709 23.3737 86.7676 23.1862 86.9082 22.9753C87.0723 22.7409 87.2363 22.6354 87.4004 22.6589C87.5176 22.5182 87.6582 22.4011 87.8223 22.3073C87.9863 22.1901 88.1035 22.0378 88.1738 21.8503C88.291 21.8503 88.373 21.8034 88.4199 21.7097C88.4902 21.6159 88.5605 21.5456 88.6309 21.4987C88.6777 21.4518 88.748 21.4401 88.8418 21.4636C88.9355 21.4636 89.0176 21.4518 89.0879 21.4284C89.252 21.3347 89.4746 21.2643 89.7559 21.2175C90.0371 21.1706 90.1895 21.1472 90.2129 21.1472C90.4707 21.194 90.6348 21.2057 90.7051 21.1823C90.7754 21.1589 90.834 21.1354 90.8809 21.112C91.0449 21.2292 91.209 21.2643 91.373 21.2175C91.5605 21.1472 91.7363 21.112 91.9004 21.112C92.252 21.1589 92.4746 21.1706 92.5684 21.1472C92.6855 21.1003 92.8027 21.0886 92.9199 21.112C92.9902 21.112 93.0605 21.1354 93.1309 21.1823C93.2012 21.2057 93.2715 21.2175 93.3418 21.2175C93.5059 21.2643 93.6582 21.2643 93.7988 21.2175C93.9629 21.1706 94.127 21.1706 94.291 21.2175C94.2676 21.0065 94.2559 20.7487 94.2559 20.444C94.2559 20.1159 94.1152 19.9167 93.834 19.8464C93.8105 19.7526 93.7871 19.6823 93.7637 19.6354C93.7402 19.5651 93.7285 19.4831 93.7285 19.3893C93.6816 19.3659 93.6113 19.319 93.5176 19.2487C93.4238 19.1784 93.3184 19.1081 93.2012 19.0378C93.1074 18.9675 93.0254 18.8972 92.9551 18.8268C92.8848 18.7565 92.8496 18.6979 92.8496 18.6511C92.5918 18.6042 92.3457 18.6159 92.1113 18.6862C91.9004 18.7331 91.666 18.7448 91.4082 18.7214C91.2441 18.8854 91.0215 18.9909 90.7402 19.0378C90.4824 19.0847 90.2598 19.1667 90.0723 19.2839C89.8848 19.4948 89.6738 19.6823 89.4395 19.8464C89.2285 20.0104 89.0176 20.1159 88.8066 20.1628C88.5957 20.2097 88.3965 20.1745 88.209 20.0573C88.0215 19.9401 87.8457 19.7175 87.6816 19.3893C87.6348 19.2722 87.5762 19.155 87.5059 19.0378C87.459 18.8972 87.4355 18.7682 87.4355 18.6511C87.5527 18.4636 87.5996 18.3464 87.5762 18.2995C87.5762 18.2526 87.5879 18.2057 87.6113 18.1589C87.8457 17.9714 87.9863 17.8425 88.0332 17.7722C88.0801 17.7018 88.1387 17.6315 88.209 17.5612C88.2793 17.4909 88.3496 17.4323 88.4199 17.3854C88.5137 17.3386 88.584 17.2682 88.6309 17.1745C88.7715 17.1745 89.0059 17.1042 89.334 16.9636C89.6855 16.8229 89.9551 16.7292 90.1426 16.6823C90.2598 16.6589 90.4238 16.6354 90.6348 16.612C90.8691 16.5886 91.0332 16.53 91.127 16.4362C91.2676 16.4831 91.3613 16.53 91.4082 16.5768C91.4551 16.6237 91.5723 16.612 91.7598 16.5417C91.8301 16.4948 91.9004 16.4597 91.9707 16.4362C92.041 16.3893 92.123 16.3542 92.2168 16.3307C92.3574 16.3073 92.4629 16.319 92.5332 16.3659C92.627 16.3893 92.7441 16.3307 92.8848 16.1901C93.0488 16.1432 93.2246 16.155 93.4121 16.2253C93.5996 16.2722 93.7871 16.2722 93.9746 16.2253C94.0215 16.3425 94.0918 16.4011 94.1855 16.4011C94.3027 16.4011 94.3379 16.4831 94.291 16.6472C94.4082 16.6706 94.502 16.7292 94.5723 16.8229C94.6426 16.8932 94.7363 16.9518 94.8535 16.9987C94.8535 17.0925 94.877 17.1628 94.9238 17.2097C94.9707 17.2565 95.0293 17.2917 95.0996 17.3151C95.1699 17.3386 95.2168 17.3737 95.2402 17.4206C95.2871 17.4675 95.2871 17.5378 95.2402 17.6315C95.3574 17.7722 95.4746 17.9128 95.5918 18.0534C95.7324 18.194 95.8965 18.3229 96.084 18.4401C96.0137 18.5104 96.0137 18.5807 96.084 18.6511C96.1543 18.7214 96.1895 18.8034 96.1895 18.8972C96.2363 18.9675 96.2598 19.0729 96.2598 19.2136C96.2598 19.3307 96.2949 19.4011 96.3652 19.4245C96.3652 19.4948 96.3652 19.612 96.3652 19.7761C96.3887 19.9167 96.4004 20.069 96.4004 20.2331C96.4238 20.3737 96.4473 20.5143 96.4707 20.655C96.4941 20.7956 96.5176 20.9011 96.541 20.9714C96.6816 21.3464 96.752 21.6159 96.752 21.78C96.7285 21.8503 96.6934 21.9206 96.6465 21.9909C96.623 22.0378 96.5879 22.0964 96.541 22.1667C96.5176 22.2839 96.5059 22.4479 96.5059 22.6589C96.5059 22.8698 96.5059 23.0807 96.5059 23.2917C96.5293 23.5026 96.541 23.7136 96.541 23.9245C96.541 24.112 96.5176 24.2526 96.4707 24.3464C96.6113 24.7448 96.6699 25.1667 96.6465 25.612C96.6465 26.0573 96.7051 26.4792 96.8223 26.8776C96.752 26.9245 96.7285 27.0065 96.752 27.1237C96.7754 27.2409 96.7402 27.3229 96.6465 27.3698C96.6465 27.4636 96.6699 27.5339 96.7168 27.5807C96.7871 27.6042 96.8223 27.6628 96.8223 27.7565C96.7051 27.7565 96.6582 27.8151 96.6816 27.9323C96.7051 28.0495 96.6934 28.1315 96.6465 28.1784C96.6699 28.2956 96.7168 28.4128 96.7871 28.53C96.8574 28.6237 96.916 28.7292 96.9629 28.8464ZM94.2559 24.2761C94.0684 24.0886 93.8809 23.9011 93.6934 23.7136C93.5059 23.5261 93.2949 23.3737 93.0605 23.2565C92.9199 23.3268 92.7793 23.3386 92.6387 23.2917C92.498 23.2214 92.3574 23.1862 92.2168 23.1862C92.0996 23.1862 91.9824 23.2214 91.8652 23.2917C91.748 23.3386 91.6309 23.3737 91.5137 23.3972C91.209 23.3503 91.0098 23.362 90.916 23.4323C90.8457 23.4792 90.7754 23.4675 90.7051 23.3972C90.6582 23.4909 90.5879 23.5612 90.4941 23.6081C90.4238 23.655 90.3652 23.7136 90.3184 23.7839H89.8262C89.7559 23.8307 89.7207 23.9011 89.7207 23.9948C89.7207 24.0886 89.6621 24.1589 89.5449 24.2057C89.3809 24.2526 89.252 24.3229 89.1582 24.4167C89.0645 24.5104 88.9473 24.569 88.8066 24.5925C88.7129 24.8268 88.6074 25.0495 88.4902 25.2604C88.373 25.4714 88.2559 25.6823 88.1387 25.8932C88.1855 26.0807 88.1855 26.2214 88.1387 26.3151C88.0918 26.4089 88.0215 26.5378 87.9277 26.7018C88.1387 26.9597 88.373 27.1472 88.6309 27.2643C88.9121 27.3581 89.1113 27.4167 89.2285 27.4401C89.3223 27.4401 89.4043 27.4167 89.4746 27.3698C89.5449 27.3229 89.627 27.2995 89.7207 27.2995C89.9082 27.3464 90.0254 27.3581 90.0723 27.3347C90.1426 27.2878 90.2012 27.2526 90.248 27.2292C90.4355 27.1823 90.6113 27.1589 90.7754 27.1589C90.9395 27.1589 91.1152 27.1589 91.3027 27.1589C91.4668 27.0651 91.5605 26.9831 91.584 26.9128C91.6309 26.819 91.6895 26.7487 91.7598 26.7018H92.1816C92.1348 26.5847 92.1582 26.5261 92.252 26.5261C92.3691 26.5026 92.4746 26.4909 92.5684 26.4909C92.6855 26.2565 92.8613 26.0925 93.0957 25.9987C93.3535 25.905 93.5879 25.7995 93.7988 25.6823C93.9629 25.5417 94.0684 25.4597 94.1152 25.4362C94.1621 25.3893 94.209 25.3542 94.2559 25.3307C94.2559 25.1432 94.2559 24.9675 94.2559 24.8034C94.2793 24.6393 94.2793 24.4636 94.2559 24.2761ZM112.15 30.7448C112.01 30.8854 111.939 31.0026 111.939 31.0964C111.963 31.2136 111.916 31.2956 111.799 31.3425C111.564 31.3425 111.412 31.3425 111.342 31.3425C111.295 31.3425 111.189 31.4362 111.025 31.6237C110.838 31.6472 110.65 31.6823 110.463 31.7292C110.299 31.7995 110.123 31.8581 109.936 31.905C109.631 31.6003 109.385 31.3073 109.197 31.0261C109.033 30.8854 108.963 30.7448 108.986 30.6042C109.01 30.487 109.021 30.3932 109.021 30.3229C108.998 30.1589 108.869 30.1003 108.635 30.1472C108.682 29.9597 108.682 29.7722 108.635 29.5847C108.588 29.3737 108.564 29.1745 108.564 28.987C108.564 28.7995 108.588 28.5886 108.635 28.3542C108.682 28.0964 108.646 27.8854 108.529 27.7214C108.646 27.6511 108.693 27.5456 108.67 27.405C108.646 27.2643 108.646 27.1354 108.67 27.0182C108.693 26.8542 108.717 26.6901 108.74 26.5261C108.787 26.362 108.752 26.1979 108.635 26.0339C108.682 25.9636 108.717 25.8932 108.74 25.8229C108.787 25.7526 108.857 25.7057 108.951 25.6823C108.857 25.4479 108.846 25.1901 108.916 24.9089C109.01 24.6042 109.057 24.3229 109.057 24.0651C109.057 23.9714 109.045 23.8893 109.021 23.819C108.998 23.7253 108.986 23.6315 108.986 23.5378C109.057 23.3034 109.068 23.1511 109.021 23.0807C108.998 23.0104 108.986 22.9401 108.986 22.8698C108.986 22.7526 109.01 22.6003 109.057 22.4128C109.104 22.2253 109.127 22.0378 109.127 21.8503C109.127 21.6393 109.092 21.4636 109.021 21.3229C108.975 21.1823 108.857 21.112 108.67 21.112C108.576 20.8776 108.506 20.737 108.459 20.6901C108.436 20.6198 108.365 20.5964 108.248 20.6198C108.248 20.5026 108.166 20.3972 108.002 20.3034C107.838 20.3503 107.674 20.4089 107.51 20.4792C107.346 20.5261 107.17 20.5495 106.982 20.5495C106.771 20.4792 106.643 20.444 106.596 20.444C106.549 20.4206 106.502 20.4206 106.455 20.444C106.268 20.4675 106.068 20.5261 105.857 20.6198C105.67 20.6901 105.494 20.7604 105.33 20.8307C105.213 20.8776 105.143 20.9362 105.119 21.0065C105.119 21.0768 105.084 21.1354 105.014 21.1823C104.779 21.2995 104.639 21.3698 104.592 21.3932C104.545 21.3932 104.498 21.405 104.451 21.4284C104.334 21.5222 104.229 21.6276 104.135 21.7448C104.041 21.862 103.924 21.944 103.783 21.9909C103.736 22.2018 103.631 22.3425 103.467 22.4128C103.303 22.4831 103.221 22.6354 103.221 22.8698C103.15 22.9167 103.08 22.9401 103.01 22.9401C102.939 22.9167 102.881 22.9284 102.834 22.9753C102.881 23.1628 102.869 23.3268 102.799 23.4675C102.752 23.6081 102.729 23.7604 102.729 23.9245C102.752 24.1354 102.799 24.3347 102.869 24.5222C102.939 24.6862 102.916 24.8737 102.799 25.0847C102.893 25.319 102.939 25.53 102.939 25.7175C102.963 25.8815 102.951 26.0339 102.904 26.1745C102.928 26.2448 102.975 26.3034 103.045 26.3503C103.115 26.3972 103.162 26.4675 103.186 26.5612C103.209 26.6784 103.162 26.7604 103.045 26.8073C102.928 26.8542 102.951 26.9479 103.115 27.0886C102.928 27.4636 102.787 27.7565 102.693 27.9675C102.623 28.155 102.529 28.3425 102.412 28.53C102.154 28.5534 101.943 28.6354 101.779 28.7761C101.639 28.8932 101.451 28.987 101.217 29.0573C101.076 29.0104 100.982 28.9401 100.936 28.8464C100.889 28.7526 100.771 28.7057 100.584 28.7057C100.584 28.4479 100.514 28.237 100.373 28.0729C100.256 27.8854 100.221 27.6276 100.268 27.2995C100.291 27.1589 100.326 27.0768 100.373 27.0534C100.42 27.0065 100.443 26.9597 100.443 26.9128C100.35 26.5612 100.326 26.28 100.373 26.069C100.42 25.8347 100.361 25.6823 100.197 25.612C100.221 25.5651 100.256 25.5182 100.303 25.4714C100.35 25.4011 100.385 25.3307 100.408 25.2604C100.455 25.1901 100.467 25.1315 100.443 25.0847C100.443 25.0143 100.385 24.944 100.268 24.8737C100.385 24.7565 100.408 24.6745 100.338 24.6276C100.291 24.5573 100.268 24.4636 100.268 24.3464C100.268 24.2057 100.291 24.0768 100.338 23.9597C100.385 23.8425 100.408 23.7253 100.408 23.6081C100.432 23.5378 100.42 23.4675 100.373 23.3972C100.35 23.3268 100.338 23.2565 100.338 23.1862C100.338 23.1393 100.361 23.0573 100.408 22.9401C100.479 22.8229 100.514 22.7292 100.514 22.6589C100.443 22.5417 100.443 22.4128 100.514 22.2722C100.607 22.1315 100.584 21.9675 100.443 21.78C100.49 21.4753 100.467 21.2761 100.373 21.1823C100.303 21.0886 100.244 20.9714 100.197 20.8307C100.174 20.737 100.162 20.6315 100.162 20.5143C100.186 20.3972 100.127 20.3268 99.9863 20.3034C100.01 20.069 100.01 19.9167 99.9863 19.8464C99.9629 19.7526 99.8926 19.694 99.7754 19.6706C99.7754 19.4362 99.7168 19.2604 99.5996 19.1432C99.5059 19.0026 99.3887 18.8503 99.248 18.6862C98.8262 18.5222 98.5684 18.2292 98.4746 17.8073C98.3809 17.3854 98.3691 16.9987 98.4395 16.6472C98.6973 16.53 98.8496 16.4479 98.8965 16.4011C98.9668 16.3542 99.0371 16.3073 99.1074 16.2604C99.4355 16.1901 99.6582 16.1901 99.7754 16.2604C99.916 16.3307 100.139 16.3659 100.443 16.3659C100.584 16.4831 100.713 16.6003 100.83 16.7175C100.971 16.8112 101.135 16.8815 101.322 16.9284C101.416 17.1159 101.475 17.2565 101.498 17.3503C101.521 17.4206 101.604 17.4557 101.744 17.4557C101.674 17.5964 101.65 17.7136 101.674 17.8073C101.721 17.9011 101.768 17.9831 101.814 18.0534C101.885 18.1237 101.943 18.2057 101.99 18.2995C102.037 18.3698 102.037 18.4753 101.99 18.6159C102.014 18.6862 102.061 18.7331 102.131 18.7565C102.201 18.78 102.26 18.8151 102.307 18.862C102.307 19.237 102.365 19.4831 102.482 19.6003C102.67 19.6237 102.822 19.5886 102.939 19.4948C103.057 19.3776 103.209 19.3307 103.396 19.3542C103.514 19.3073 103.572 19.1901 103.572 19.0026C103.666 19.0261 103.771 19.0026 103.889 18.9323C104.006 18.862 104.088 18.8034 104.135 18.7565C104.393 18.7097 104.557 18.6511 104.627 18.5807C104.721 18.5104 104.826 18.4518 104.943 18.405C105.178 18.2409 105.307 18.1706 105.33 18.194C105.354 18.2175 105.389 18.2175 105.436 18.194C105.717 18.1003 105.869 18.03 105.893 17.9831C105.939 17.9128 105.998 17.8776 106.068 17.8776C106.303 17.8307 106.537 17.8307 106.771 17.8776C107.029 17.9245 107.252 17.8542 107.439 17.6667C107.674 17.7839 107.908 17.819 108.143 17.7722C108.4 17.7018 108.658 17.7136 108.916 17.8073C109.127 17.9714 109.268 18.0417 109.338 18.0182C109.408 17.9948 109.432 18.03 109.408 18.1237C109.572 18.0534 109.725 18.0534 109.865 18.1237C110.029 18.194 110.193 18.2175 110.357 18.194C110.404 18.3815 110.416 18.5104 110.393 18.5807C110.393 18.6276 110.393 18.6979 110.393 18.7917C110.65 18.8151 110.814 18.8972 110.885 19.0378C110.979 19.155 111.107 19.2839 111.271 19.4245C111.225 19.6823 111.295 19.8815 111.482 20.0222C111.436 20.2097 111.436 20.3503 111.482 20.444C111.529 20.5378 111.588 20.6667 111.658 20.8307C111.588 21.0182 111.588 21.2175 111.658 21.4284C111.729 21.6159 111.775 21.8034 111.799 21.9909C111.822 22.1784 111.822 22.3659 111.799 22.5534C111.775 22.7409 111.752 22.9284 111.729 23.1159C111.705 23.2565 111.67 23.4089 111.623 23.5729C111.6 23.7136 111.623 23.8542 111.693 23.9948C111.67 24.0886 111.611 24.2292 111.518 24.4167C111.588 24.6745 111.611 24.944 111.588 25.2253C111.564 25.4831 111.529 25.7526 111.482 26.0339C111.436 26.3151 111.389 26.5964 111.342 26.8776C111.318 27.1589 111.342 27.4401 111.412 27.7214C111.318 27.8151 111.26 27.944 111.236 28.1081C111.236 28.2722 111.236 28.4479 111.236 28.6354C111.26 28.8229 111.283 29.0104 111.307 29.1979C111.354 29.3854 111.377 29.5378 111.377 29.655C111.611 29.7487 111.787 29.7956 111.904 29.7956C111.857 29.8893 111.881 29.9714 111.975 30.0417C112.068 30.1354 112.115 30.2175 112.115 30.2878C112.092 30.3347 112.057 30.405 112.01 30.4987C111.963 30.6159 111.963 30.6979 112.01 30.7448H112.15ZM122.627 17.7722C122.533 17.9362 122.439 18.03 122.346 18.0534C122.252 18.0768 122.229 18.2057 122.275 18.4401C122.158 18.487 122.041 18.5573 121.924 18.6511C121.807 18.7214 121.701 18.7917 121.607 18.862C121.49 18.7917 121.326 18.7565 121.115 18.7565C120.904 18.7565 120.67 18.7682 120.412 18.7917C120.178 18.8151 119.943 18.8503 119.709 18.8972C119.475 18.9206 119.275 18.9323 119.111 18.9323C119.158 19.4714 119.146 20.0222 119.076 20.5847C119.029 21.1472 119.029 21.6979 119.076 22.237C119.076 22.3073 119.088 22.3776 119.111 22.4479C119.158 22.5182 119.146 22.5768 119.076 22.6237C119.123 22.7409 119.123 22.8815 119.076 23.0456C119.053 23.1862 119.018 23.3151 118.971 23.4323C119.041 23.5729 119.135 23.7018 119.252 23.819C119.252 23.9362 119.229 24.1354 119.182 24.4167C119.158 24.6979 119.123 24.8737 119.076 24.944C119.076 25.0378 119.088 25.1901 119.111 25.4011C119.158 25.612 119.205 25.7409 119.252 25.7878C119.229 26.0222 119.229 26.1745 119.252 26.2448C119.275 26.2917 119.311 26.3503 119.357 26.4206C119.287 26.5378 119.252 26.6667 119.252 26.8073C119.252 26.9245 119.252 27.0534 119.252 27.194C119.275 27.3112 119.287 27.4284 119.287 27.5456C119.311 27.6628 119.299 27.7565 119.252 27.8268C119.369 27.8737 119.416 28.0261 119.393 28.2839C119.393 28.5182 119.451 28.6823 119.568 28.7761C119.709 28.8229 119.838 28.905 119.955 29.0222C120.096 29.1393 120.225 29.2214 120.342 29.2682C120.529 29.4323 120.635 29.5495 120.658 29.6198C120.705 29.6901 120.717 29.7604 120.693 29.8307C120.693 29.9011 120.682 29.9831 120.658 30.0768C120.635 30.1706 120.646 30.2995 120.693 30.4636C120.576 30.5573 120.482 30.6628 120.412 30.78C120.342 30.8972 120.248 31.0026 120.131 31.0964C119.873 31.0729 119.686 31.1081 119.568 31.2018C119.451 31.2956 119.334 31.3425 119.217 31.3425C119.053 31.155 118.924 31.0612 118.83 31.0612C118.76 31.0847 118.678 31.0612 118.584 30.9909C118.443 30.944 118.373 30.8854 118.373 30.8151C118.396 30.7448 118.373 30.6862 118.303 30.6393C118.209 30.569 118.139 30.5573 118.092 30.6042C118.045 30.6745 117.986 30.6979 117.916 30.6745C117.822 30.5339 117.74 30.3815 117.67 30.2175C117.623 30.0534 117.518 29.9362 117.354 29.8659C117.236 29.819 117.166 29.7487 117.143 29.655C117.119 29.5847 117.107 29.5143 117.107 29.444C117.107 29.3503 117.096 29.2682 117.072 29.1979C117.049 29.1276 116.979 29.0807 116.861 29.0573C116.955 28.9636 116.967 28.8815 116.896 28.8112C116.826 28.7409 116.791 28.6823 116.791 28.6354C116.814 28.3073 116.803 28.1081 116.756 28.0378C116.732 27.944 116.721 27.8503 116.721 27.7565C116.744 27.6393 116.768 27.5573 116.791 27.5104C116.838 27.4401 116.85 27.3347 116.826 27.194C116.732 26.9128 116.697 26.737 116.721 26.6667C116.744 26.5729 116.756 26.4792 116.756 26.3854C116.732 26.2917 116.709 26.2097 116.686 26.1393C116.686 26.069 116.686 25.987 116.686 25.8932C116.662 25.612 116.662 25.3307 116.686 25.0495C116.732 24.7682 116.721 24.487 116.65 24.2057C116.627 24.0417 116.639 23.8659 116.686 23.6784C116.756 23.4909 116.732 23.3268 116.615 23.1862C116.568 22.8581 116.592 22.6354 116.686 22.5182C116.803 22.3776 116.803 22.2487 116.686 22.1315C116.732 22.0143 116.732 21.8854 116.686 21.7448C116.662 21.6042 116.662 21.4753 116.686 21.3581C116.686 21.3581 116.674 21.2878 116.65 21.1472C116.65 20.9831 116.65 20.8073 116.65 20.6198C116.65 20.4323 116.639 20.2682 116.615 20.1276C116.615 19.9636 116.615 19.8815 116.615 19.8815C116.662 19.6237 116.662 19.4479 116.615 19.3542C116.568 19.237 116.604 19.1198 116.721 19.0026C116.65 18.9323 116.568 18.9206 116.475 18.9675C116.404 18.9909 116.346 18.944 116.299 18.8268C116.158 18.8972 115.912 18.9675 115.561 19.0378C115.209 19.1081 114.951 19.1432 114.787 19.1432C114.482 19.0026 114.307 18.9557 114.26 19.0026C114.213 19.0495 114.166 19.0729 114.119 19.0729C114.002 19.0495 113.85 18.9792 113.662 18.862C113.498 18.7448 113.393 18.6393 113.346 18.5456C113.322 18.2643 113.299 18.1003 113.275 18.0534C113.252 18.0065 113.229 17.9597 113.205 17.9128C113.182 17.7722 113.193 17.6315 113.24 17.4909C113.311 17.3503 113.334 17.1979 113.311 17.0339C113.428 16.987 113.521 16.9284 113.592 16.8581C113.662 16.7878 113.756 16.7292 113.873 16.6823C114.178 16.7995 114.471 16.8347 114.752 16.7878C115.057 16.7175 115.35 16.6589 115.631 16.612C115.771 16.7057 115.971 16.7526 116.229 16.7526C116.486 16.7292 116.674 16.6472 116.791 16.5065C116.791 15.9909 116.826 15.4636 116.896 14.9245C116.779 14.6432 116.686 14.3854 116.615 14.1511L116.756 12.6745C116.756 12.2761 116.768 11.8776 116.791 11.4792C116.814 11.0573 116.838 10.6472 116.861 10.2487C116.814 10.1784 116.779 10.0964 116.756 10.0026C116.732 9.88544 116.686 9.80341 116.615 9.75653C116.732 9.63934 116.779 9.47528 116.756 9.26434C116.756 9.02997 116.814 8.84247 116.932 8.70184C116.955 8.58466 116.92 8.51434 116.826 8.49091C116.732 8.46747 116.674 8.42059 116.65 8.35028C116.58 8.02216 116.627 7.76434 116.791 7.57684C116.955 7.38934 117.131 7.20184 117.318 7.01434C117.459 7.01434 117.611 7.01434 117.775 7.01434C117.939 6.99091 118.08 7.03778 118.197 7.15497C118.244 7.10809 118.291 7.07294 118.338 7.0495C118.408 7.00262 118.479 6.95575 118.549 6.90887C118.596 6.90887 118.631 6.96747 118.654 7.08466C118.678 7.20184 118.725 7.28387 118.795 7.33075C118.842 7.37762 118.912 7.48309 119.006 7.64716C119.1 7.78778 119.158 7.89325 119.182 7.96356C119.182 8.19794 119.193 8.33856 119.217 8.38544C119.24 8.43231 119.24 8.47919 119.217 8.52606C119.217 8.59637 119.193 8.66669 119.146 8.737C119.1 8.78387 119.076 8.84247 119.076 8.91278C119.053 9.10028 119.064 9.28778 119.111 9.47528C119.158 9.63934 119.182 9.81512 119.182 10.0026C119.182 10.1198 119.158 10.2253 119.111 10.319C119.088 10.3893 119.1 10.5065 119.146 10.6706C119.193 10.9987 119.217 11.1979 119.217 11.2682C119.193 11.3386 119.193 11.4089 119.217 11.4792C119.24 11.5495 119.252 11.6198 119.252 11.6901C119.252 11.8307 119.229 11.9479 119.182 12.0417C119.135 12.112 119.123 12.2409 119.146 12.4284C119.193 12.6159 119.205 12.7331 119.182 12.78C119.158 12.8034 119.146 12.9089 119.146 13.0964C119.146 13.1667 119.146 13.2722 119.146 13.4128C119.17 13.5534 119.182 13.7057 119.182 13.8698C119.182 14.0339 119.17 14.1745 119.146 14.2917C119.146 14.4089 119.111 14.4792 119.041 14.5026C119.135 14.8073 119.158 14.9948 119.111 15.0651C119.088 15.1354 119.076 15.2175 119.076 15.3112C119.053 15.5222 119.064 15.7331 119.111 15.944C119.182 16.155 119.24 16.3776 119.287 16.612C119.404 16.612 119.51 16.6237 119.604 16.6472C119.697 16.6706 119.791 16.6472 119.885 16.5768C120.283 16.7175 120.588 16.7643 120.799 16.7175C121.01 16.6472 121.303 16.5886 121.678 16.5417C121.982 16.7995 122.252 17.0104 122.486 17.1745C122.721 17.3151 122.768 17.5143 122.627 17.7722ZM134.299 28.8464C134.182 29.0807 134.064 29.3151 133.947 29.5495C133.83 29.7839 133.631 29.9362 133.35 30.0065C133.186 30.2643 133.057 30.4167 132.963 30.4636C132.869 30.5339 132.775 30.5573 132.682 30.5339C132.588 30.5104 132.482 30.4518 132.365 30.3581C132.271 30.2878 132.131 30.2292 131.943 30.1823C131.873 29.9479 131.756 29.7604 131.592 29.6198C131.451 29.4792 131.322 29.3151 131.205 29.1276C131.252 28.9401 131.287 28.7643 131.311 28.6003C131.357 28.4362 131.416 28.2722 131.486 28.1081C131.463 27.9909 131.393 27.944 131.275 27.9675C131.182 27.9675 131.111 27.944 131.064 27.8972C130.994 27.8972 130.912 27.944 130.818 28.0378C130.725 28.1315 130.654 28.2018 130.607 28.2487C130.396 28.2956 130.244 28.3659 130.15 28.4597C130.08 28.5534 130.021 28.6354 129.975 28.7057C129.717 28.7292 129.518 28.7995 129.377 28.9167C129.236 29.0104 129.037 29.0339 128.779 28.987C128.686 29.0339 128.615 29.1042 128.568 29.1979C128.545 29.2682 128.51 29.3268 128.463 29.3737C128.229 29.4675 128.064 29.5143 127.971 29.5143C127.9 29.4909 127.842 29.4909 127.795 29.5143C127.607 29.5847 127.432 29.655 127.268 29.7253C127.127 29.819 126.963 29.7956 126.775 29.655C126.682 29.7722 126.588 29.7956 126.494 29.7253C126.4 29.6784 126.318 29.7018 126.248 29.7956C126.107 29.7722 126.002 29.737 125.932 29.6901C125.885 29.6432 125.768 29.6315 125.58 29.655C125.463 29.6784 125.393 29.6432 125.369 29.5495C125.369 29.4557 125.322 29.3972 125.229 29.3737C125.135 29.3268 125.041 29.3034 124.947 29.3034C124.877 29.3034 124.807 29.2917 124.736 29.2682C124.689 29.1276 124.607 29.0573 124.49 29.0573C124.373 29.0573 124.268 29.0339 124.174 28.987C124.127 28.8464 124.08 28.7878 124.033 28.8112C123.986 28.8112 123.916 28.7761 123.822 28.7057C123.682 28.612 123.576 28.4948 123.506 28.3542C123.436 28.1901 123.307 28.0847 123.119 28.0378C122.979 27.8034 122.896 27.5456 122.873 27.2643C122.873 26.9831 122.814 26.7253 122.697 26.4909C122.791 26.4206 122.85 26.3151 122.873 26.1745C122.896 26.0339 122.908 25.8932 122.908 25.7526C122.932 25.612 122.955 25.4831 122.979 25.3659C123.025 25.2487 123.096 25.155 123.189 25.0847C123.143 24.9206 123.154 24.8034 123.225 24.7331C123.295 24.6393 123.318 24.5339 123.295 24.4167C123.482 24.3229 123.6 24.1706 123.646 23.9597C123.717 23.7253 123.857 23.5847 124.068 23.5378C124.045 23.3737 124.104 23.1862 124.244 22.9753C124.408 22.7409 124.572 22.6354 124.736 22.6589C124.854 22.5182 124.994 22.4011 125.158 22.3073C125.322 22.1901 125.439 22.0378 125.51 21.8503C125.627 21.8503 125.709 21.8034 125.756 21.7097C125.826 21.6159 125.896 21.5456 125.967 21.4987C126.014 21.4518 126.084 21.4401 126.178 21.4636C126.271 21.4636 126.354 21.4518 126.424 21.4284C126.588 21.3347 126.811 21.2643 127.092 21.2175C127.373 21.1706 127.525 21.1472 127.549 21.1472C127.807 21.194 127.971 21.2057 128.041 21.1823C128.111 21.1589 128.17 21.1354 128.217 21.112C128.381 21.2292 128.545 21.2643 128.709 21.2175C128.896 21.1472 129.072 21.112 129.236 21.112C129.588 21.1589 129.811 21.1706 129.904 21.1472C130.021 21.1003 130.139 21.0886 130.256 21.112C130.326 21.112 130.396 21.1354 130.467 21.1823C130.537 21.2057 130.607 21.2175 130.678 21.2175C130.842 21.2643 130.994 21.2643 131.135 21.2175C131.299 21.1706 131.463 21.1706 131.627 21.2175C131.604 21.0065 131.592 20.7487 131.592 20.444C131.592 20.1159 131.451 19.9167 131.17 19.8464C131.146 19.7526 131.123 19.6823 131.1 19.6354C131.076 19.5651 131.064 19.4831 131.064 19.3893C131.018 19.3659 130.947 19.319 130.854 19.2487C130.76 19.1784 130.654 19.1081 130.537 19.0378C130.443 18.9675 130.361 18.8972 130.291 18.8268C130.221 18.7565 130.186 18.6979 130.186 18.6511C129.928 18.6042 129.682 18.6159 129.447 18.6862C129.236 18.7331 129.002 18.7448 128.744 18.7214C128.58 18.8854 128.357 18.9909 128.076 19.0378C127.818 19.0847 127.596 19.1667 127.408 19.2839C127.221 19.4948 127.01 19.6823 126.775 19.8464C126.564 20.0104 126.354 20.1159 126.143 20.1628C125.932 20.2097 125.732 20.1745 125.545 20.0573C125.357 19.9401 125.182 19.7175 125.018 19.3893C124.971 19.2722 124.912 19.155 124.842 19.0378C124.795 18.8972 124.771 18.7682 124.771 18.6511C124.889 18.4636 124.936 18.3464 124.912 18.2995C124.912 18.2526 124.924 18.2057 124.947 18.1589C125.182 17.9714 125.322 17.8425 125.369 17.7722C125.416 17.7018 125.475 17.6315 125.545 17.5612C125.615 17.4909 125.686 17.4323 125.756 17.3854C125.85 17.3386 125.92 17.2682 125.967 17.1745C126.107 17.1745 126.342 17.1042 126.67 16.9636C127.021 16.8229 127.291 16.7292 127.479 16.6823C127.596 16.6589 127.76 16.6354 127.971 16.612C128.205 16.5886 128.369 16.53 128.463 16.4362C128.604 16.4831 128.697 16.53 128.744 16.5768C128.791 16.6237 128.908 16.612 129.096 16.5417C129.166 16.4948 129.236 16.4597 129.307 16.4362C129.377 16.3893 129.459 16.3542 129.553 16.3307C129.693 16.3073 129.799 16.319 129.869 16.3659C129.963 16.3893 130.08 16.3307 130.221 16.1901C130.385 16.1432 130.561 16.155 130.748 16.2253C130.936 16.2722 131.123 16.2722 131.311 16.2253C131.357 16.3425 131.428 16.4011 131.521 16.4011C131.639 16.4011 131.674 16.4831 131.627 16.6472C131.744 16.6706 131.838 16.7292 131.908 16.8229C131.979 16.8932 132.072 16.9518 132.189 16.9987C132.189 17.0925 132.213 17.1628 132.26 17.2097C132.307 17.2565 132.365 17.2917 132.436 17.3151C132.506 17.3386 132.553 17.3737 132.576 17.4206C132.623 17.4675 132.623 17.5378 132.576 17.6315C132.693 17.7722 132.811 17.9128 132.928 18.0534C133.068 18.194 133.232 18.3229 133.42 18.4401C133.35 18.5104 133.35 18.5807 133.42 18.6511C133.49 18.7214 133.525 18.8034 133.525 18.8972C133.572 18.9675 133.596 19.0729 133.596 19.2136C133.596 19.3307 133.631 19.4011 133.701 19.4245C133.701 19.4948 133.701 19.612 133.701 19.7761C133.725 19.9167 133.736 20.069 133.736 20.2331C133.76 20.3737 133.783 20.5143 133.807 20.655C133.83 20.7956 133.854 20.9011 133.877 20.9714C134.018 21.3464 134.088 21.6159 134.088 21.78C134.064 21.8503 134.029 21.9206 133.982 21.9909C133.959 22.0378 133.924 22.0964 133.877 22.1667C133.854 22.2839 133.842 22.4479 133.842 22.6589C133.842 22.8698 133.842 23.0807 133.842 23.2917C133.865 23.5026 133.877 23.7136 133.877 23.9245C133.877 24.112 133.854 24.2526 133.807 24.3464C133.947 24.7448 134.006 25.1667 133.982 25.612C133.982 26.0573 134.041 26.4792 134.158 26.8776C134.088 26.9245 134.064 27.0065 134.088 27.1237C134.111 27.2409 134.076 27.3229 133.982 27.3698C133.982 27.4636 134.006 27.5339 134.053 27.5807C134.123 27.6042 134.158 27.6628 134.158 27.7565C134.041 27.7565 133.994 27.8151 134.018 27.9323C134.041 28.0495 134.029 28.1315 133.982 28.1784C134.006 28.2956 134.053 28.4128 134.123 28.53C134.193 28.6237 134.252 28.7292 134.299 28.8464ZM131.592 24.2761C131.404 24.0886 131.217 23.9011 131.029 23.7136C130.842 23.5261 130.631 23.3737 130.396 23.2565C130.256 23.3268 130.115 23.3386 129.975 23.2917C129.834 23.2214 129.693 23.1862 129.553 23.1862C129.436 23.1862 129.318 23.2214 129.201 23.2917C129.084 23.3386 128.967 23.3737 128.85 23.3972C128.545 23.3503 128.346 23.362 128.252 23.4323C128.182 23.4792 128.111 23.4675 128.041 23.3972C127.994 23.4909 127.924 23.5612 127.83 23.6081C127.76 23.655 127.701 23.7136 127.654 23.7839H127.162C127.092 23.8307 127.057 23.9011 127.057 23.9948C127.057 24.0886 126.998 24.1589 126.881 24.2057C126.717 24.2526 126.588 24.3229 126.494 24.4167C126.4 24.5104 126.283 24.569 126.143 24.5925C126.049 24.8268 125.943 25.0495 125.826 25.2604C125.709 25.4714 125.592 25.6823 125.475 25.8932C125.521 26.0807 125.521 26.2214 125.475 26.3151C125.428 26.4089 125.357 26.5378 125.264 26.7018C125.475 26.9597 125.709 27.1472 125.967 27.2643C126.248 27.3581 126.447 27.4167 126.564 27.4401C126.658 27.4401 126.74 27.4167 126.811 27.3698C126.881 27.3229 126.963 27.2995 127.057 27.2995C127.244 27.3464 127.361 27.3581 127.408 27.3347C127.479 27.2878 127.537 27.2526 127.584 27.2292C127.771 27.1823 127.947 27.1589 128.111 27.1589C128.275 27.1589 128.451 27.1589 128.639 27.1589C128.803 27.0651 128.896 26.9831 128.92 26.9128C128.967 26.819 129.025 26.7487 129.096 26.7018H129.518C129.471 26.5847 129.494 26.5261 129.588 26.5261C129.705 26.5026 129.811 26.4909 129.904 26.4909C130.021 26.2565 130.197 26.0925 130.432 25.9987C130.689 25.905 130.924 25.7995 131.135 25.6823C131.299 25.5417 131.404 25.4597 131.451 25.4362C131.498 25.3893 131.545 25.3542 131.592 25.3307C131.592 25.1432 131.592 24.9675 131.592 24.8034C131.615 24.6393 131.615 24.4636 131.592 24.2761ZM147.342 24.2761C147.389 24.7682 147.412 25.2956 147.412 25.8581C147.436 26.4206 147.318 26.9245 147.061 27.3698C146.967 27.6511 146.908 27.8737 146.885 28.0378C146.861 28.1784 146.779 28.2722 146.639 28.319C146.662 28.53 146.627 28.6706 146.533 28.7409C146.439 28.8112 146.346 28.9167 146.252 29.0573C146.111 29.0573 145.959 29.0807 145.795 29.1276C145.631 29.1745 145.49 29.2214 145.373 29.2682C145.279 29.4557 145.209 29.5261 145.162 29.4792C145.115 29.4323 145.045 29.4323 144.951 29.4792C144.717 29.6432 144.494 29.7253 144.283 29.7253C144.096 29.7253 143.943 29.7253 143.826 29.7253C143.732 29.7956 143.639 29.8542 143.545 29.9011C143.475 29.9714 143.428 30.0768 143.404 30.2175C143.287 30.2643 143.217 30.2409 143.193 30.1472C143.17 30.0768 143.111 30.03 143.018 30.0065C142.807 30.1003 142.654 30.1003 142.561 30.0065C142.49 29.9128 142.373 29.8659 142.209 29.8659C142.115 29.8659 142.01 29.8893 141.893 29.9362C141.799 30.0065 141.693 30.0651 141.576 30.112C141.482 30.1589 141.377 30.1823 141.26 30.1823C141.166 30.2057 141.072 30.1706 140.979 30.0768C140.861 30.0768 140.779 30.112 140.732 30.1823C140.709 30.2526 140.639 30.2878 140.521 30.2878C140.264 30.2643 140.018 30.2292 139.783 30.1823C139.549 30.1589 139.303 30.1706 139.045 30.2175C138.998 30.1003 138.893 30.03 138.729 30.0065C138.588 30.0065 138.471 30.0065 138.377 30.0065C138.354 29.9128 138.295 29.8659 138.201 29.8659C138.131 29.8659 138.096 29.819 138.096 29.7253C138.002 29.7722 137.861 29.737 137.674 29.6198C137.51 29.5261 137.381 29.4557 137.287 29.4089C137.193 29.2917 137.064 29.1511 136.9 28.987C136.736 28.8229 136.643 28.7175 136.619 28.6706C136.572 28.6003 136.549 28.5182 136.549 28.4245C136.572 28.3073 136.525 28.2253 136.408 28.1784C136.408 28.0143 136.396 27.9089 136.373 27.862C136.373 27.7917 136.361 27.7448 136.338 27.7214C136.314 27.6745 136.279 27.6393 136.232 27.6159C136.186 27.569 136.127 27.487 136.057 27.3698C136.104 27.2526 136.092 27.1354 136.021 27.0182C135.975 26.8776 135.986 26.7487 136.057 26.6315C135.986 26.5612 135.939 26.444 135.916 26.28C135.916 26.0925 135.916 25.905 135.916 25.7175C135.939 25.5065 135.975 25.3073 136.021 25.1198C136.068 24.9323 136.104 24.7917 136.127 24.6979C136.338 24.5807 136.525 24.4401 136.689 24.2761C136.854 24.0886 137.053 23.9362 137.287 23.819C137.498 23.9128 137.732 23.9948 137.99 24.0651C138.271 24.112 138.482 24.2292 138.623 24.4167C138.553 24.5807 138.541 24.7214 138.588 24.8386C138.658 24.9323 138.646 25.0261 138.553 25.1198C138.553 25.3542 138.471 25.4831 138.307 25.5065C138.283 25.6237 138.283 25.7409 138.307 25.8581C138.354 25.9753 138.33 26.0807 138.236 26.1745C138.33 26.362 138.354 26.4792 138.307 26.5261C138.283 26.5495 138.283 26.5847 138.307 26.6315C138.33 26.7487 138.389 26.8542 138.482 26.9479C138.576 27.0182 138.623 27.1354 138.623 27.2995C138.834 27.487 139.068 27.6159 139.326 27.6862C139.607 27.7565 139.865 27.8386 140.1 27.9323C140.17 27.9089 140.252 27.8972 140.346 27.8972C140.463 27.8972 140.521 27.8386 140.521 27.7214C140.639 27.7682 140.779 27.7917 140.943 27.7917C141.107 27.7682 141.236 27.6979 141.33 27.5807C141.471 27.5807 141.623 27.5925 141.787 27.6159C141.975 27.6393 142.15 27.6511 142.314 27.6511C142.502 27.6511 142.666 27.6276 142.807 27.5807C142.971 27.5339 143.088 27.4284 143.158 27.2643C143.463 27.2643 143.686 27.2175 143.826 27.1237C143.99 27.03 144.119 26.9245 144.213 26.8073C144.307 26.6667 144.389 26.5378 144.459 26.4206C144.553 26.28 144.682 26.1745 144.846 26.1042C144.846 25.9636 144.869 25.8581 144.916 25.7878C144.986 25.694 144.998 25.5534 144.951 25.3659C144.928 25.2253 144.846 25.1432 144.705 25.1198C144.564 25.0964 144.447 25.0378 144.354 24.944C144.307 24.6862 144.189 24.5104 144.002 24.4167C143.814 24.3229 143.639 24.1823 143.475 23.9948C143.193 24.0417 142.994 24.03 142.877 23.9597C142.76 23.8893 142.584 23.7956 142.35 23.6784C142.256 23.6315 142.162 23.5964 142.068 23.5729C141.975 23.5495 141.881 23.5143 141.787 23.4675C141.67 23.444 141.588 23.4557 141.541 23.5026C141.494 23.5495 141.424 23.6081 141.33 23.6784C141.283 23.5612 141.213 23.4909 141.119 23.4675C141.025 23.4206 140.932 23.3737 140.838 23.3268C140.58 23.3268 140.299 23.3268 139.994 23.3268C139.689 23.3034 139.432 23.1979 139.221 23.0104C139.127 22.987 139.033 22.9753 138.939 22.9753C138.869 22.9753 138.787 22.9636 138.693 22.9401C138.623 22.7057 138.471 22.5886 138.236 22.5886C138.189 22.4948 138.143 22.4128 138.096 22.3425C138.072 22.2722 138.002 22.2487 137.885 22.2722C137.861 22.155 137.826 22.0378 137.779 21.9206C137.732 21.8034 137.639 21.7331 137.498 21.7097C137.475 21.4987 137.416 21.2995 137.322 21.112C137.229 20.9245 137.17 20.7253 137.146 20.5143C137.193 20.2331 137.205 20.069 137.182 20.0222C137.158 19.9518 137.146 19.8932 137.146 19.8464C137.17 19.5417 137.24 19.2487 137.357 18.9675C137.475 18.6862 137.545 18.3932 137.568 18.0886C137.709 18.0417 137.803 17.9479 137.85 17.8073C137.896 17.6667 137.932 17.5378 137.955 17.4206C138.189 17.3503 138.307 17.1862 138.307 16.9284C138.494 16.9518 138.623 16.9167 138.693 16.8229C138.764 16.7292 138.857 16.6354 138.975 16.5417C139.092 16.5886 139.186 16.5768 139.256 16.5065C139.326 16.4362 139.408 16.3776 139.502 16.3307C139.619 16.2839 139.725 16.2722 139.818 16.2956C139.912 16.319 140.006 16.3073 140.1 16.2604C140.217 16.2136 140.322 16.1667 140.416 16.1198C140.51 16.0495 140.615 16.0026 140.732 15.9792C140.732 15.9792 140.791 15.9792 140.908 15.9792C141.049 15.9557 141.201 15.944 141.365 15.944C141.529 15.944 141.682 15.944 141.822 15.944C141.963 15.9206 142.045 15.9089 142.068 15.9089C142.256 15.9323 142.432 15.9675 142.596 16.0143C142.783 16.0612 142.971 16.0729 143.158 16.0495C143.299 16.0495 143.439 16.0143 143.58 15.944C143.721 15.8737 143.873 15.862 144.037 15.9089C144.131 16.0026 144.213 16.1198 144.283 16.2604C144.424 16.2604 144.529 16.2839 144.6 16.3307C144.67 16.3776 144.729 16.4362 144.775 16.5065C144.846 16.5768 144.904 16.6472 144.951 16.7175C145.021 16.7643 145.115 16.7878 145.232 16.7878C145.232 16.8815 145.268 16.9753 145.338 17.069C145.408 17.1393 145.467 17.2097 145.514 17.28C145.654 17.4206 145.725 17.6081 145.725 17.8425C145.748 18.0768 145.771 18.2878 145.795 18.4753C145.725 18.5456 145.643 18.6159 145.549 18.6862C145.479 18.7331 145.42 18.8034 145.373 18.8972C145.326 18.9675 145.279 19.0612 145.232 19.1784C145.209 19.2722 145.139 19.3073 145.021 19.2839C144.857 19.5182 144.752 19.612 144.705 19.5651C144.682 19.4948 144.646 19.4362 144.6 19.3893C144.576 19.3425 144.529 19.319 144.459 19.319C144.389 19.2956 144.271 19.3542 144.107 19.4948C143.943 19.3073 143.779 19.1667 143.615 19.0729C143.475 18.9557 143.381 18.7565 143.334 18.4753C143.24 18.3815 143.1 18.3347 142.912 18.3347C142.748 18.3347 142.619 18.2761 142.525 18.1589C142.408 18.1823 142.232 18.2292 141.998 18.2995C141.764 18.3698 141.588 18.3464 141.471 18.2292C141.354 18.2057 141.271 18.2409 141.225 18.3347C141.201 18.4284 141.096 18.4518 140.908 18.405C140.838 18.4518 140.791 18.5104 140.768 18.5807C140.744 18.6511 140.709 18.7097 140.662 18.7565C140.451 18.78 140.264 18.9206 140.1 19.1784C139.936 19.4128 139.877 19.6354 139.924 19.8464C139.736 20.1745 139.666 20.3737 139.713 20.444C139.783 20.4909 139.854 20.5612 139.924 20.655C140.111 20.8893 140.264 20.9948 140.381 20.9714C140.498 20.9479 140.674 20.9948 140.908 21.112C141.166 21.0886 141.354 21.112 141.471 21.1823C141.588 21.2292 141.693 21.2761 141.787 21.3229C141.881 21.2761 141.963 21.2409 142.033 21.2175C142.127 21.194 142.209 21.1589 142.279 21.112C142.514 21.2292 142.748 21.3229 142.982 21.3932C143.217 21.4401 143.451 21.5222 143.686 21.6393C143.803 21.6862 143.896 21.7331 143.967 21.78C144.061 21.8268 144.166 21.8737 144.283 21.9206C144.494 21.9909 144.635 22.0378 144.705 22.0612C144.799 22.0847 144.846 22.155 144.846 22.2722C145.08 22.2253 145.256 22.2604 145.373 22.3776C145.49 22.4948 145.643 22.5651 145.83 22.5886C145.947 22.7057 146.1 22.8815 146.287 23.1159C146.475 23.3503 146.639 23.4909 146.779 23.5378C146.803 23.7253 146.873 23.8659 146.99 23.9597C147.107 24.03 147.225 24.1354 147.342 24.2761ZM162.002 34.612C161.885 34.7292 161.814 34.8464 161.791 34.9636C161.768 35.1042 161.791 35.1862 161.861 35.2097C161.838 35.3034 161.779 35.362 161.686 35.3854C161.615 35.4089 161.557 35.4557 161.51 35.5261C161.463 35.5729 161.451 35.6315 161.475 35.7018C161.498 35.7956 161.486 35.8776 161.439 35.9479C161.182 36.2526 160.947 36.4987 160.736 36.6862C160.549 36.8972 160.443 37.1432 160.42 37.4245C160.326 37.4479 160.256 37.4831 160.209 37.53C160.162 37.6003 160.092 37.6354 159.998 37.6354C159.951 37.6823 159.869 37.7409 159.752 37.8112C159.658 37.905 159.541 37.9987 159.4 38.0925C159.283 38.2097 159.166 38.3034 159.049 38.3737C158.932 38.4675 158.85 38.5261 158.803 38.5495C158.756 38.6667 158.686 38.7487 158.592 38.7956C158.521 38.8425 158.475 38.9245 158.451 39.0417C158.006 39.112 157.596 39.3347 157.221 39.7097C156.939 39.7331 156.635 39.7331 156.307 39.7097C156.189 39.6862 156.107 39.7097 156.061 39.78C156.014 39.8737 155.943 39.944 155.85 39.9909C155.779 40.0143 155.697 40.0143 155.604 39.9909C155.533 39.9675 155.475 39.9792 155.428 40.0261C155.053 40.237 154.701 40.319 154.373 40.2722C154.068 40.2487 153.752 40.237 153.424 40.237C153.236 40.237 153.037 40.237 152.826 40.237C152.615 40.2604 152.404 40.2604 152.193 40.237C151.982 40.237 151.783 40.2018 151.596 40.1315C151.408 40.0612 151.256 39.944 151.139 39.78C151.045 39.8268 150.951 39.8386 150.857 39.8151C150.787 39.7917 150.705 39.7565 150.611 39.7097C150.541 39.6862 150.459 39.6628 150.365 39.6393C150.271 39.6159 150.178 39.6393 150.084 39.7097C150.061 39.5925 149.99 39.5104 149.873 39.4636C149.779 39.4401 149.709 39.3815 149.662 39.2878C149.451 39.1472 149.299 39.0534 149.205 39.0065C149.135 38.9831 149.076 38.9362 149.029 38.8659C148.982 38.819 148.936 38.7604 148.889 38.6901C148.865 38.6432 148.807 38.6198 148.713 38.6198C148.713 38.5026 148.654 38.2917 148.537 37.987C148.42 37.6823 148.338 37.4714 148.291 37.3542C148.174 37.1432 148.127 37.0261 148.15 37.0026C148.197 36.9792 148.221 36.944 148.221 36.8972L148.291 36.3347C148.338 35.9831 148.443 35.7604 148.607 35.6667C148.771 35.5729 148.83 35.3972 148.783 35.1393C148.994 35.069 149.076 34.905 149.029 34.6472L149.521 34.4011C149.615 34.1198 149.826 33.944 150.154 33.8737C150.201 33.7097 150.271 33.5925 150.365 33.5222C150.482 33.4518 150.529 33.3229 150.506 33.1354C150.646 33.0886 150.787 33.0534 150.928 33.03C151.068 33.0065 151.197 32.9714 151.314 32.9245C151.385 32.8307 151.467 32.7604 151.561 32.7136C151.654 32.6901 151.689 32.5964 151.666 32.4323C151.924 32.4557 152.158 32.444 152.369 32.3972C152.604 32.3503 152.838 32.3386 153.072 32.362C153.189 32.3854 153.295 32.4206 153.389 32.4675C153.506 32.5378 153.623 32.5495 153.74 32.5026C153.811 32.6667 153.939 32.7604 154.127 32.7839C154.314 32.8307 154.467 32.8776 154.584 32.9245C154.561 33.0182 154.561 33.1003 154.584 33.1706C154.631 33.2643 154.654 33.3581 154.654 33.4518C154.654 33.569 154.689 33.6393 154.76 33.6628C154.83 33.7097 154.889 33.78 154.936 33.8737C154.982 33.944 154.994 34.0261 154.971 34.1198C154.947 34.237 154.982 34.3307 155.076 34.4011C155.076 34.5182 155.006 34.612 154.865 34.6823C154.748 34.7526 154.654 34.8112 154.584 34.8581C154.537 34.905 154.467 34.987 154.373 35.1042C154.303 35.2214 154.232 35.3034 154.162 35.3503C153.6 35.4675 153.236 35.3737 153.072 35.069C152.768 34.9753 152.592 34.9636 152.545 35.0339C152.498 35.1042 152.439 35.1862 152.369 35.28C152.322 35.2097 152.264 35.1862 152.193 35.2097C152.123 35.2565 152.041 35.28 151.947 35.28L150.998 35.8776C150.998 36.1354 150.975 36.2995 150.928 36.3698C150.904 36.4401 150.869 36.4753 150.822 36.4753C150.775 36.4987 150.729 36.5339 150.682 36.5807C150.658 36.6276 150.646 36.7448 150.646 36.9323C150.6 37.0495 150.623 37.1081 150.717 37.1081C150.811 37.1315 150.881 37.1667 150.928 37.2136C151.045 37.4714 151.127 37.6003 151.174 37.6003C151.221 37.6237 151.268 37.6589 151.314 37.7057C151.549 37.8229 151.701 37.8698 151.771 37.8464C151.865 37.8229 152.018 37.8347 152.229 37.8815C152.744 38.0456 153.189 38.1159 153.564 38.0925C153.939 38.0925 154.279 38.069 154.584 38.0222C154.818 37.8815 154.994 37.7995 155.111 37.7761C155.229 37.7761 155.334 37.7526 155.428 37.7057C155.545 37.6823 155.639 37.6472 155.709 37.6003C155.803 37.5534 155.85 37.4948 155.85 37.4245C155.99 37.4948 156.131 37.5065 156.271 37.4597C156.412 37.4128 156.541 37.3307 156.658 37.2136C156.799 37.1198 156.928 37.0143 157.045 36.8972C157.162 36.78 157.268 36.6862 157.361 36.6159C157.432 36.569 157.525 36.5339 157.643 36.5104C157.76 36.487 157.807 36.405 157.783 36.2643C157.877 36.2878 157.936 36.2643 157.959 36.194C158.006 36.1472 158.076 36.1354 158.17 36.1589C158.17 36.0182 158.205 35.9128 158.275 35.8425C158.369 35.7722 158.404 35.6667 158.381 35.5261C158.568 35.5026 158.721 35.4206 158.838 35.28C158.955 35.1628 159.037 35.0104 159.084 34.8229C159.154 34.6589 159.201 34.4831 159.225 34.2956C159.271 34.1081 159.318 33.944 159.365 33.8034C159.318 33.6628 159.271 33.487 159.225 33.2761C159.178 33.0651 159.225 32.9011 159.365 32.7839C159.271 32.5729 159.213 32.3503 159.189 32.1159C159.166 31.8815 159.107 31.6589 159.014 31.4479C158.85 31.0495 158.756 30.7214 158.732 30.4636C158.709 30.2292 158.592 30.0417 158.381 29.9011C158.475 29.6198 158.439 29.362 158.275 29.1276C158.135 28.8698 158.064 28.612 158.064 28.3542C158.041 28.237 157.994 28.1784 157.924 28.1784C157.877 28.155 157.854 28.0964 157.854 28.0026C157.807 27.9323 157.795 27.862 157.818 27.7917C157.865 27.6979 157.83 27.6159 157.713 27.5456C157.572 27.4753 157.455 27.4987 157.361 27.6159C157.268 27.7097 157.15 27.78 157.01 27.8268C156.682 28.0612 156.436 28.237 156.271 28.3542C156.131 28.4714 155.99 28.5886 155.85 28.7057C155.662 28.6589 155.498 28.6706 155.357 28.7409C155.217 28.7878 155.053 28.8229 154.865 28.8464C154.443 28.7761 154.139 28.7761 153.951 28.8464C153.787 28.8932 153.611 28.8932 153.424 28.8464C153.096 28.7057 152.791 28.612 152.51 28.5651C152.229 28.5182 152.018 28.4948 151.877 28.4948C151.76 28.4948 151.689 28.4597 151.666 28.3893C151.666 28.319 151.631 28.2604 151.561 28.2136C151.396 28.2839 151.256 28.2839 151.139 28.2136C151.021 28.1667 150.881 28.0729 150.717 27.9323C150.576 27.7917 150.424 27.6393 150.26 27.4753C150.119 27.3112 149.979 27.1472 149.838 26.9831C149.721 26.819 149.627 26.6784 149.557 26.5612C149.533 26.3737 149.51 26.2682 149.486 26.2448C149.463 26.2214 149.439 26.1862 149.416 26.1393C149.322 25.9753 149.252 25.7995 149.205 25.612C149.158 25.4245 149.111 25.2487 149.064 25.0847C149.182 24.9675 149.217 24.7917 149.17 24.5573C149.146 24.3229 149.135 24.1354 149.135 23.9948C149.135 23.7839 149.17 23.5729 149.24 23.362C149.311 23.1511 149.346 22.9401 149.346 22.7292C149.346 22.5417 149.334 22.3542 149.311 22.1667C149.287 21.9557 149.369 21.78 149.557 21.6393C149.557 21.3815 149.545 21.112 149.521 20.8307C149.498 20.5495 149.51 20.28 149.557 20.0222C149.58 19.8347 149.627 19.612 149.697 19.3542C149.768 19.0964 149.721 18.8972 149.557 18.7565C149.604 18.7097 149.627 18.6511 149.627 18.5807C149.627 18.487 149.639 18.405 149.662 18.3347C149.779 18.2175 149.826 18.1354 149.803 18.0886C149.779 18.0417 149.779 17.9948 149.803 17.9479C150.014 17.7839 150.166 17.6667 150.26 17.5964C150.354 17.5261 150.482 17.4675 150.646 17.4206C150.74 17.4206 150.822 17.4557 150.893 17.5261C150.986 17.5729 151.068 17.5964 151.139 17.5964C151.256 17.6198 151.373 17.6315 151.49 17.6315C151.631 17.6315 151.76 17.6432 151.877 17.6667L152.158 18.0182C152.275 18.1823 152.334 18.3815 152.334 18.6159C152.334 18.8503 152.275 19.0495 152.158 19.2136C152.158 19.3542 152.17 19.53 152.193 19.7409C152.217 19.9284 152.158 20.069 152.018 20.1628C152.041 20.3972 152.064 20.5847 152.088 20.7253C152.111 20.8425 152.111 20.9479 152.088 21.0417C152.088 21.112 152.064 21.2175 152.018 21.3581C151.971 21.4987 151.971 21.5925 152.018 21.6393C151.877 22.0143 151.783 22.2956 151.736 22.4831C151.689 22.6706 151.725 22.8581 151.842 23.0456C151.678 23.2097 151.607 23.3972 151.631 23.6081C151.654 23.7956 151.607 23.9714 151.49 24.1354C151.584 24.2292 151.643 24.3581 151.666 24.5222C151.689 24.6862 151.713 24.8503 151.736 25.0143C151.76 25.155 151.795 25.2956 151.842 25.4362C151.912 25.5534 152.041 25.612 152.229 25.612C152.275 25.7292 152.369 25.8815 152.51 26.069C152.721 26.0456 152.908 26.069 153.072 26.1393C153.26 26.2097 153.436 26.28 153.6 26.3503C153.787 26.4206 153.963 26.4792 154.127 26.5261C154.314 26.5495 154.537 26.5378 154.795 26.4909C154.912 26.444 155.029 26.3972 155.146 26.3503C155.287 26.3034 155.404 26.2331 155.498 26.1393C155.568 25.9987 155.65 25.9284 155.744 25.9284C155.861 25.905 155.943 25.8464 155.99 25.7526C156.014 25.612 156.061 25.5065 156.131 25.4362C156.201 25.3425 156.271 25.2487 156.342 25.155C156.412 25.0612 156.471 24.9675 156.518 24.8737C156.588 24.7565 156.611 24.6159 156.588 24.4518C156.822 24.0768 156.986 23.7487 157.08 23.4675C157.174 23.1862 157.221 22.8932 157.221 22.5886C157.174 22.3073 157.162 22.1667 157.186 22.1667C157.209 22.1432 157.221 22.1081 157.221 22.0612C157.127 21.78 157.092 21.6159 157.115 21.569C157.162 21.5222 157.174 21.4753 157.15 21.4284C157.057 21.2175 157.01 21.0768 157.01 21.0065C157.033 20.9362 157.033 20.8776 157.01 20.8307C156.963 20.6667 156.904 20.5026 156.834 20.3386C156.764 20.1745 156.729 19.9987 156.729 19.8112C156.846 19.6472 156.869 19.53 156.799 19.4597C156.729 19.3659 156.705 19.2604 156.729 19.1432C156.564 19.0261 156.447 18.9206 156.377 18.8268C156.33 18.7331 156.307 18.6393 156.307 18.5456C156.33 18.4518 156.354 18.3581 156.377 18.2643C156.424 18.1472 156.471 17.9948 156.518 17.8073C156.564 17.5495 156.588 17.362 156.588 17.2448C156.611 17.1042 156.588 16.9753 156.518 16.8581C156.635 16.905 156.705 16.8932 156.729 16.8229C156.752 16.7292 156.799 16.6589 156.869 16.612C156.916 16.5651 156.986 16.5534 157.08 16.5768C157.174 16.6003 157.244 16.612 157.291 16.612C157.385 16.5886 157.443 16.5651 157.467 16.5417C157.514 16.4948 157.596 16.4714 157.713 16.4714C157.924 16.4714 158.135 16.5182 158.346 16.612C158.557 16.6823 158.756 16.7409 158.943 16.7878C159.014 16.9753 159.096 17.1276 159.189 17.2448C159.354 17.5261 159.424 17.7253 159.4 17.8425C159.377 17.9362 159.342 18.0182 159.295 18.0886C159.365 18.1589 159.389 18.2643 159.365 18.405C159.365 18.5456 159.424 18.6159 159.541 18.6159C159.494 18.8737 159.482 19.0612 159.506 19.1784C159.553 19.2956 159.6 19.4128 159.646 19.53V20.655C159.74 21.03 159.764 21.3347 159.717 21.569C159.67 21.78 159.646 22.0026 159.646 22.237C159.646 22.3073 159.658 22.3776 159.682 22.4479C159.705 22.4948 159.717 22.5534 159.717 22.6237C159.693 22.7175 159.682 22.8229 159.682 22.9401C159.705 23.0339 159.693 23.1276 159.646 23.2214C159.693 23.4323 159.717 23.6198 159.717 23.7839C159.74 23.9245 159.717 24.0886 159.646 24.2761C159.693 24.3932 159.74 24.487 159.787 24.5573C159.857 24.6276 159.904 24.7214 159.928 24.8386C159.834 25.1901 159.822 25.4011 159.893 25.4714C159.986 25.5417 160.021 25.6589 159.998 25.8229C160.045 25.8932 160.045 25.987 159.998 26.1042C159.975 26.2214 160.021 26.2917 160.139 26.3151C160.115 26.3854 160.139 26.5612 160.209 26.8425C160.303 27.1003 160.373 27.2643 160.42 27.3347C160.443 27.4284 160.525 27.5456 160.666 27.6862C160.572 27.8972 160.549 28.0612 160.596 28.1784C160.666 28.2722 160.736 28.3893 160.807 28.53C160.877 28.6472 160.924 28.7761 160.947 28.9167C160.971 29.0339 160.947 29.1628 160.877 29.3034C160.924 29.444 160.994 29.6081 161.088 29.7956C161.205 29.9831 161.229 30.1472 161.158 30.2878C161.229 30.405 161.311 30.4987 161.404 30.569C161.498 30.6393 161.58 30.7331 161.65 30.8503C161.65 30.8972 161.65 30.9675 161.65 31.0612C161.65 31.1784 161.627 31.2604 161.58 31.3073C161.721 31.612 161.803 31.9167 161.826 32.2214C161.85 32.5495 161.908 32.8659 162.002 33.1706C161.885 33.4284 161.838 33.6628 161.861 33.8737C161.908 34.1081 161.955 34.3542 162.002 34.612ZM100.496 60.7448C100.355 60.8854 100.285 61.0026 100.285 61.0964C100.309 61.2136 100.262 61.2956 100.145 61.3425C99.9102 61.3425 99.7578 61.3425 99.6875 61.3425C99.6406 61.3425 99.5352 61.4362 99.3711 61.6237C99.1836 61.6472 98.9961 61.6823 98.8086 61.7292C98.6445 61.7995 98.4688 61.8581 98.2812 61.905C97.9766 61.6003 97.7305 61.3073 97.543 61.0261C97.3789 60.8854 97.3086 60.7448 97.332 60.6042C97.3555 60.487 97.3672 60.3932 97.3672 60.3229C97.3438 60.1589 97.2148 60.1003 96.9805 60.1472C97.0273 59.9597 97.0273 59.7722 96.9805 59.5847C96.9336 59.3737 96.9102 59.1745 96.9102 58.987C96.9102 58.7995 96.9336 58.5886 96.9805 58.3542C97.0273 58.0964 96.9922 57.8854 96.875 57.7214C96.9922 57.6511 97.0391 57.5456 97.0156 57.405C96.9922 57.2643 96.9922 57.1354 97.0156 57.0182C97.0391 56.8542 97.0625 56.6901 97.0859 56.5261C97.1328 56.362 97.0977 56.1979 96.9805 56.0339C97.0273 55.9636 97.0625 55.8932 97.0859 55.8229C97.1328 55.7526 97.2031 55.7057 97.2969 55.6823C97.2031 55.4479 97.1914 55.1901 97.2617 54.9089C97.3555 54.6042 97.4023 54.3229 97.4023 54.0651C97.4023 53.9714 97.3906 53.8893 97.3672 53.819C97.3438 53.7253 97.332 53.6315 97.332 53.5378C97.4023 53.3034 97.4141 53.1511 97.3672 53.0807C97.3438 53.0104 97.332 52.9401 97.332 52.8698C97.332 52.7526 97.3555 52.6003 97.4023 52.4128C97.4492 52.2253 97.4727 52.0378 97.4727 51.8503C97.4727 51.6393 97.4375 51.4636 97.3672 51.3229C97.3203 51.1823 97.2031 51.112 97.0156 51.112C96.9219 50.8776 96.8516 50.737 96.8047 50.6901C96.7812 50.6198 96.7109 50.5964 96.5938 50.6198C96.5938 50.5026 96.5117 50.3972 96.3477 50.3034C96.1836 50.3503 96.0195 50.4089 95.8555 50.4792C95.6914 50.5261 95.5156 50.5495 95.3281 50.5495C95.1172 50.4792 94.9883 50.444 94.9414 50.444C94.8945 50.4206 94.8477 50.4206 94.8008 50.444C94.6133 50.4675 94.4141 50.5261 94.2031 50.6198C94.0156 50.6901 93.8398 50.7604 93.6758 50.8307C93.5586 50.8776 93.4883 50.9362 93.4648 51.0065C93.4648 51.0768 93.4297 51.1354 93.3594 51.1823C93.125 51.2995 92.9844 51.3698 92.9375 51.3932C92.8906 51.3932 92.8438 51.405 92.7969 51.4284C92.6797 51.5222 92.5742 51.6276 92.4805 51.7448C92.3867 51.862 92.2695 51.944 92.1289 51.9909C92.082 52.2018 91.9766 52.3425 91.8125 52.4128C91.6484 52.4831 91.5664 52.6354 91.5664 52.8698C91.4961 52.9167 91.4258 52.9401 91.3555 52.9401C91.2852 52.9167 91.2266 52.9284 91.1797 52.9753C91.2266 53.1628 91.2148 53.3268 91.1445 53.4675C91.0977 53.6081 91.0742 53.7604 91.0742 53.9245C91.0977 54.1354 91.1445 54.3347 91.2148 54.5222C91.2852 54.6862 91.2617 54.8737 91.1445 55.0847C91.2383 55.319 91.2852 55.53 91.2852 55.7175C91.3086 55.8815 91.2969 56.0339 91.25 56.1745C91.2734 56.2448 91.3203 56.3034 91.3906 56.3503C91.4609 56.3972 91.5078 56.4675 91.5312 56.5612C91.5547 56.6784 91.5078 56.7604 91.3906 56.8073C91.2734 56.8542 91.2969 56.9479 91.4609 57.0886C91.2734 57.4636 91.1328 57.7565 91.0391 57.9675C90.9688 58.155 90.875 58.3425 90.7578 58.53C90.5 58.5534 90.2891 58.6354 90.125 58.7761C89.9844 58.8932 89.7969 58.987 89.5625 59.0573C89.4219 59.0104 89.3281 58.9401 89.2812 58.8464C89.2344 58.7526 89.1172 58.7057 88.9297 58.7057C88.9297 58.4479 88.8594 58.237 88.7188 58.0729C88.6016 57.8854 88.5664 57.6276 88.6133 57.2995C88.6367 57.1589 88.6719 57.0768 88.7188 57.0534C88.7656 57.0065 88.7891 56.9597 88.7891 56.9128C88.6953 56.5612 88.6719 56.28 88.7188 56.069C88.7656 55.8347 88.707 55.6823 88.543 55.612C88.5664 55.5651 88.6016 55.5182 88.6484 55.4714C88.6953 55.4011 88.7305 55.3307 88.7539 55.2604C88.8008 55.1901 88.8125 55.1315 88.7891 55.0847C88.7891 55.0143 88.7305 54.944 88.6133 54.8737C88.7305 54.7565 88.7539 54.6745 88.6836 54.6276C88.6367 54.5573 88.6133 54.4636 88.6133 54.3464C88.6133 54.2057 88.6367 54.0768 88.6836 53.9597C88.7305 53.8425 88.7539 53.7253 88.7539 53.6081C88.7773 53.5378 88.7656 53.4675 88.7188 53.3972C88.6953 53.3268 88.6836 53.2565 88.6836 53.1862C88.6836 53.1393 88.707 53.0573 88.7539 52.9401C88.8242 52.8229 88.8594 52.7292 88.8594 52.6589C88.7891 52.5417 88.7891 52.4128 88.8594 52.2722C88.9531 52.1315 88.9297 51.9675 88.7891 51.78C88.8359 51.4753 88.8125 51.2761 88.7188 51.1823C88.6484 51.0886 88.5898 50.9714 88.543 50.8307C88.5195 50.737 88.5078 50.6315 88.5078 50.5143C88.5312 50.3972 88.4727 50.3268 88.332 50.3034C88.3555 50.069 88.3555 49.9167 88.332 49.8464C88.3086 49.7526 88.2383 49.694 88.1211 49.6706C88.1211 49.4362 88.0625 49.2604 87.9453 49.1432C87.8516 49.0026 87.7344 48.8503 87.5938 48.6862C87.1719 48.5222 86.9141 48.2292 86.8203 47.8073C86.7266 47.3854 86.7148 46.9987 86.7852 46.6472C87.043 46.53 87.1953 46.4479 87.2422 46.4011C87.3125 46.3542 87.3828 46.3073 87.4531 46.2604C87.7812 46.1901 88.0039 46.1901 88.1211 46.2604C88.2617 46.3307 88.4844 46.3659 88.7891 46.3659C88.9297 46.4831 89.0586 46.6003 89.1758 46.7175C89.3164 46.8112 89.4805 46.8815 89.668 46.9284C89.7617 47.1159 89.8203 47.2565 89.8438 47.3503C89.8672 47.4206 89.9492 47.4557 90.0898 47.4557C90.0195 47.5964 89.9961 47.7136 90.0195 47.8073C90.0664 47.9011 90.1133 47.9831 90.1602 48.0534C90.2305 48.1237 90.2891 48.2057 90.3359 48.2995C90.3828 48.3698 90.3828 48.4753 90.3359 48.6159C90.3594 48.6862 90.4062 48.7331 90.4766 48.7565C90.5469 48.78 90.6055 48.8151 90.6523 48.862C90.6523 49.237 90.7109 49.4831 90.8281 49.6003C91.0156 49.6237 91.168 49.5886 91.2852 49.4948C91.4023 49.3776 91.5547 49.3307 91.7422 49.3542C91.8594 49.3073 91.918 49.1901 91.918 49.0026C92.0117 49.0261 92.1172 49.0026 92.2344 48.9323C92.3516 48.862 92.4336 48.8034 92.4805 48.7565C92.7383 48.7097 92.9023 48.6511 92.9727 48.5807C93.0664 48.5104 93.1719 48.4518 93.2891 48.405C93.5234 48.2409 93.6523 48.1706 93.6758 48.194C93.6992 48.2175 93.7344 48.2175 93.7812 48.194C94.0625 48.1003 94.2148 48.03 94.2383 47.9831C94.2852 47.9128 94.3438 47.8776 94.4141 47.8776C94.6484 47.8307 94.8828 47.8307 95.1172 47.8776C95.375 47.9245 95.5977 47.8542 95.7852 47.6667C96.0195 47.7839 96.2539 47.819 96.4883 47.7722C96.7461 47.7018 97.0039 47.7136 97.2617 47.8073C97.4727 47.9714 97.6133 48.0417 97.6836 48.0182C97.7539 47.9948 97.7773 48.03 97.7539 48.1237C97.918 48.0534 98.0703 48.0534 98.2109 48.1237C98.375 48.194 98.5391 48.2175 98.7031 48.194C98.75 48.3815 98.7617 48.5104 98.7383 48.5807C98.7383 48.6276 98.7383 48.6979 98.7383 48.7917C98.9961 48.8151 99.1602 48.8972 99.2305 49.0378C99.3242 49.155 99.4531 49.2839 99.6172 49.4245C99.5703 49.6823 99.6406 49.8815 99.8281 50.0222C99.7812 50.2097 99.7812 50.3503 99.8281 50.444C99.875 50.5378 99.9336 50.6667 100.004 50.8307C99.9336 51.0182 99.9336 51.2175 100.004 51.4284C100.074 51.6159 100.121 51.8034 100.145 51.9909C100.168 52.1784 100.168 52.3659 100.145 52.5534C100.121 52.7409 100.098 52.9284 100.074 53.1159C100.051 53.2565 100.016 53.4089 99.9688 53.5729C99.9453 53.7136 99.9688 53.8542 100.039 53.9948C100.016 54.0886 99.957 54.2292 99.8633 54.4167C99.9336 54.6745 99.957 54.944 99.9336 55.2253C99.9102 55.4831 99.875 55.7526 99.8281 56.0339C99.7812 56.3151 99.7344 56.5964 99.6875 56.8776C99.6641 57.1589 99.6875 57.4401 99.7578 57.7214C99.6641 57.8151 99.6055 57.944 99.582 58.1081C99.582 58.2722 99.582 58.4479 99.582 58.6354C99.6055 58.8229 99.6289 59.0104 99.6523 59.1979C99.6992 59.3854 99.7227 59.5378 99.7227 59.655C99.957 59.7487 100.133 59.7956 100.25 59.7956C100.203 59.8893 100.227 59.9714 100.32 60.0417C100.414 60.1354 100.461 60.2175 100.461 60.2878C100.438 60.3347 100.402 60.405 100.355 60.4987C100.309 60.6159 100.309 60.6979 100.355 60.7448H100.496ZM113.926 51.3229C113.902 51.4401 113.855 51.5456 113.785 51.6393C113.738 51.7331 113.738 51.8386 113.785 51.9557C113.691 52.0729 113.574 52.1667 113.434 52.237C113.316 52.3073 113.234 52.4128 113.188 52.5534C113.023 52.4831 112.871 52.4948 112.73 52.5886C112.613 52.6823 112.52 52.7878 112.449 52.905C112.332 52.8581 112.215 52.8464 112.098 52.8698C111.98 52.8698 111.863 52.8815 111.746 52.905C111.652 52.905 111.547 52.905 111.43 52.905C111.336 52.8815 111.242 52.8112 111.148 52.694C110.844 52.7878 110.539 52.8347 110.234 52.8347C109.93 52.8347 109.613 52.8347 109.285 52.8347C109.168 52.8112 109.098 52.8347 109.074 52.905C109.074 52.9753 109.027 53.0339 108.934 53.0807C108.723 53.0573 108.488 53.069 108.23 53.1159C107.996 53.1628 107.75 53.2097 107.492 53.2565C107.258 53.3034 107.023 53.3386 106.789 53.362C106.578 53.3854 106.391 53.3386 106.227 53.2214C106.039 53.2917 105.863 53.3268 105.699 53.3268C105.535 53.3268 105.359 53.3151 105.172 53.2917C105.031 53.3386 104.938 53.4323 104.891 53.5729C104.844 53.6198 104.785 53.655 104.715 53.6784C104.645 53.6784 104.586 53.7018 104.539 53.7487C104.633 53.9128 104.691 54.112 104.715 54.3464C104.738 54.5573 104.844 54.6979 105.031 54.7682C105.031 55.0261 105.09 55.2722 105.207 55.5065C105.348 55.7409 105.488 55.9636 105.629 56.1745C105.793 56.362 105.934 56.5261 106.051 56.6667C106.191 56.7839 106.25 56.8776 106.227 56.9479C106.484 57.0886 106.648 57.1472 106.719 57.1237C106.789 57.1003 106.859 57.1003 106.93 57.1237C106.93 57.194 107.012 57.2761 107.176 57.3698C107.34 57.4401 107.527 57.4987 107.738 57.5456C107.949 57.5925 108.148 57.6159 108.336 57.6159C108.523 57.6159 108.629 57.569 108.652 57.4753C108.816 57.4987 108.945 57.5104 109.039 57.5104C109.133 57.487 109.203 57.4636 109.25 57.4401C109.32 57.3932 109.391 57.3581 109.461 57.3347C109.531 57.3112 109.625 57.2878 109.742 57.2643C109.836 57.2409 109.918 57.2409 109.988 57.2643C110.082 57.2878 110.176 57.2878 110.27 57.2643C110.41 57.2409 110.551 57.194 110.691 57.1237C110.832 57.0534 110.961 57.0534 111.078 57.1237C111.172 57.0534 111.312 56.9714 111.5 56.8776C111.57 56.9245 111.652 56.9362 111.746 56.9128C111.84 56.8893 111.934 56.9011 112.027 56.9479C112.145 56.9948 112.25 56.9948 112.344 56.9479C112.438 56.9011 112.543 56.9011 112.66 56.9479C112.754 56.9714 112.836 57.0182 112.906 57.0886C112.977 57.1354 113.07 57.1706 113.188 57.194C113.164 57.3347 113.176 57.5104 113.223 57.7214C113.293 57.9089 113.234 58.0026 113.047 58.0026C113.094 58.1432 113.07 58.2487 112.977 58.319C112.906 58.3893 112.883 58.4948 112.906 58.6354C112.742 58.7057 112.566 58.7878 112.379 58.8815C112.215 58.9518 112.074 59.069 111.957 59.2331C111.863 59.1628 111.77 59.1628 111.676 59.2331C111.605 59.3034 111.523 59.3503 111.43 59.3737C111.336 59.3972 111.242 59.3854 111.148 59.3386C111.055 59.2917 110.973 59.3268 110.902 59.444C110.598 59.3503 110.387 59.3503 110.27 59.444C110.176 59.5143 110.047 59.5261 109.883 59.4792C109.766 59.4792 109.672 59.5026 109.602 59.5495C109.555 59.5729 109.484 59.5964 109.391 59.6198L108.934 59.7604C108.723 59.7136 108.559 59.7136 108.441 59.7604C108.348 59.8073 108.242 59.8307 108.125 59.8307C107.961 59.8307 107.809 59.8073 107.668 59.7604C107.551 59.7136 107.41 59.737 107.246 59.8307C107.129 59.8542 107.059 59.819 107.035 59.7253C107.035 59.655 107 59.5964 106.93 59.5495C106.789 59.5964 106.66 59.5964 106.543 59.5495C106.426 59.5026 106.297 59.4792 106.156 59.4792C105.969 59.362 105.781 59.2331 105.594 59.0925C105.43 58.9284 105.242 58.7878 105.031 58.6706C104.984 58.5534 104.902 58.4479 104.785 58.3542C104.691 58.2604 104.586 58.1667 104.469 58.0729C104.375 57.862 104.246 57.6862 104.082 57.5456C103.918 57.405 103.777 57.2409 103.66 57.0534C103.613 56.9831 103.578 56.8893 103.555 56.7722C103.555 56.655 103.531 56.5495 103.484 56.4557C103.367 56.2917 103.227 56.1511 103.062 56.0339C102.898 55.8932 102.852 55.6706 102.922 55.3659C102.758 55.0847 102.652 54.8268 102.605 54.5925C102.582 54.3347 102.559 54.1472 102.535 54.03C102.488 53.9128 102.441 53.7956 102.395 53.6784C102.348 53.5378 102.324 53.4089 102.324 53.2917C102.324 53.1745 102.336 53.0807 102.359 53.0104C102.383 52.9167 102.395 52.8112 102.395 52.694C102.395 52.6472 102.383 52.5534 102.359 52.4128C102.336 52.2722 102.312 52.1315 102.289 51.9909C102.289 51.8503 102.289 51.7331 102.289 51.6393C102.312 51.5222 102.371 51.4636 102.465 51.4636C102.395 51.2761 102.395 51.112 102.465 50.9714C102.559 50.8307 102.582 50.6784 102.535 50.5143C102.652 50.4675 102.734 50.3854 102.781 50.2682C102.828 50.1276 102.922 50.0339 103.062 49.987C103.039 49.8229 103.062 49.7175 103.133 49.6706C103.203 49.6003 103.297 49.5065 103.414 49.3893C103.391 49.2956 103.426 49.1784 103.52 49.0378C103.613 48.8737 103.73 48.7214 103.871 48.5807C104.012 48.4167 104.152 48.2761 104.293 48.1589C104.434 48.0417 104.539 47.9597 104.609 47.9128C104.797 47.655 105.008 47.4557 105.242 47.3151C105.5 47.1511 105.699 46.9401 105.84 46.6823C105.957 46.6589 106.051 46.6237 106.121 46.5768C106.215 46.5065 106.32 46.4479 106.438 46.4011C106.484 46.3542 106.543 46.2956 106.613 46.2253C106.684 46.1315 106.742 46.0612 106.789 46.0143C106.859 45.9675 106.953 45.9557 107.07 45.9792C107.188 45.9792 107.293 45.9675 107.387 45.944C107.645 45.8972 107.902 45.8268 108.16 45.7331C108.418 45.6159 108.664 45.5222 108.898 45.4518C109.156 45.3815 109.402 45.3581 109.637 45.3815C109.895 45.405 110.152 45.5222 110.41 45.7331C110.855 45.8034 111.148 45.9089 111.289 46.0495C111.43 46.1901 111.629 46.2839 111.887 46.3307C112.004 46.5417 112.145 46.7175 112.309 46.8581C112.473 46.9753 112.648 47.0925 112.836 47.2097C112.883 47.3503 112.93 47.4909 112.977 47.6315C113.047 47.7722 113.164 47.8659 113.328 47.9128C113.211 48.1237 113.188 48.2526 113.258 48.2995C113.328 48.3464 113.375 48.4167 113.398 48.5104C113.422 48.5807 113.41 48.6511 113.363 48.7214C113.34 48.7917 113.352 48.8503 113.398 48.8972C113.445 49.0143 113.492 49.1198 113.539 49.2136C113.609 49.3073 113.668 49.4128 113.715 49.53C113.762 49.6237 113.773 49.7292 113.75 49.8464C113.75 49.9401 113.809 50.0104 113.926 50.0573C113.855 50.2448 113.844 50.4557 113.891 50.6901C113.961 50.9245 113.973 51.1354 113.926 51.3229ZM111.43 49.7761C111.336 49.6354 111.254 49.53 111.184 49.4597C111.137 49.3659 111.125 49.2253 111.148 49.0378C111.102 48.9675 111.031 48.9323 110.938 48.9323C110.844 48.9323 110.762 48.8972 110.691 48.8268C110.691 48.7097 110.668 48.6159 110.621 48.5456C110.574 48.4518 110.527 48.3464 110.48 48.2292C110.152 48.2526 109.859 48.194 109.602 48.0534C109.344 47.8893 109.051 47.8659 108.723 47.9831L108.055 48.1589C107.891 48.3464 107.703 48.4753 107.492 48.5456C107.305 48.5925 107.117 48.6745 106.93 48.7917C106.836 48.8386 106.789 48.9089 106.789 49.0026C106.789 49.0964 106.742 49.155 106.648 49.1784C106.602 49.2253 106.531 49.2487 106.438 49.2487C106.367 49.2487 106.297 49.2487 106.227 49.2487C106.18 49.3893 106.121 49.4948 106.051 49.5651C106.004 49.612 105.934 49.6589 105.84 49.7057C105.77 49.7526 105.699 49.8112 105.629 49.8815C105.559 49.9284 105.512 50.0222 105.488 50.1628C105.441 50.3034 105.371 50.4089 105.277 50.4792C105.207 50.5495 105.148 50.6315 105.102 50.7253C105.148 50.8425 105.172 50.9479 105.172 51.0417C105.195 51.112 105.266 51.1589 105.383 51.1823C105.406 51.2057 105.488 51.2175 105.629 51.2175C105.77 51.194 105.922 51.1823 106.086 51.1823C106.273 51.1589 106.438 51.1589 106.578 51.1823C106.742 51.1823 106.859 51.194 106.93 51.2175C107.07 51.1003 107.223 51.03 107.387 51.0065C107.738 50.9831 107.973 50.9479 108.09 50.9011C108.207 50.8542 108.336 50.819 108.477 50.7956C108.594 50.7722 108.699 50.7722 108.793 50.7956C108.91 50.819 109.027 50.819 109.145 50.7956C109.262 50.7722 109.367 50.7487 109.461 50.7253C109.578 50.6784 109.695 50.655 109.812 50.655C110.188 50.7253 110.48 50.7487 110.691 50.7253C110.926 50.7018 111.148 50.6784 111.359 50.655C111.43 50.3503 111.453 50.0573 111.43 49.7761ZM129.008 58.6354C128.844 58.612 128.773 58.6823 128.797 58.8464C128.844 58.987 128.832 59.0807 128.762 59.1276C128.48 59.1276 128.352 59.1628 128.375 59.2331C128.422 59.28 128.434 59.3386 128.41 59.4089C128.316 59.4557 128.223 59.5026 128.129 59.5495C128.059 59.5729 128.035 59.655 128.059 59.7956C127.824 59.7956 127.625 59.8307 127.461 59.9011C127.32 59.9948 127.121 59.9831 126.863 59.8659C126.699 59.7722 126.547 59.6667 126.406 59.5495C126.289 59.4323 126.148 59.3386 125.984 59.2682C125.891 59.0339 125.809 58.9167 125.738 58.9167C125.668 58.9167 125.656 58.8464 125.703 58.7057C125.516 58.5651 125.34 58.4245 125.176 58.2839C125.012 58.1432 124.895 57.9557 124.824 57.7214C124.801 57.6979 124.707 57.6276 124.543 57.5104C124.402 57.3932 124.32 57.3229 124.297 57.2995C124.203 57.112 124.121 57.0182 124.051 57.0182C123.98 57.0182 123.945 56.9831 123.945 56.9128C123.758 56.8893 123.605 56.8425 123.488 56.7722C123.371 56.6784 123.266 56.5847 123.172 56.4909C123.078 56.3737 122.973 56.2682 122.855 56.1745C122.762 56.0807 122.633 56.0104 122.469 55.9636C122.328 55.6589 122.105 55.4128 121.801 55.2253C121.66 55.2253 121.555 55.2722 121.484 55.3659C121.414 55.4597 121.344 55.5651 121.273 55.6823C121.062 55.7526 120.898 55.8698 120.781 56.0339C120.664 56.1979 120.488 56.3034 120.254 56.3503C120.301 56.5143 120.266 56.6081 120.148 56.6315C120.031 56.655 119.996 56.7487 120.043 56.9128C119.926 57.0534 119.797 57.1706 119.656 57.2643C119.539 57.3581 119.469 57.5339 119.445 57.7917C119.398 57.8151 119.34 57.8503 119.27 57.8972C119.223 57.9206 119.164 57.944 119.094 57.9675C118.977 58.2253 118.871 58.4128 118.777 58.53C118.684 58.6237 118.59 58.7057 118.496 58.7761C118.402 58.8464 118.332 58.905 118.285 58.9518C118.262 58.9753 118.262 59.0573 118.285 59.1979C118.027 59.4323 117.816 59.6081 117.652 59.7253C117.512 59.8659 117.395 60.03 117.301 60.2175C117.184 60.2175 117.078 60.2409 116.984 60.2878C116.891 60.3581 116.785 60.4284 116.668 60.4987C116.574 60.569 116.457 60.6159 116.316 60.6393C116.176 60.6628 116 60.6276 115.789 60.5339C115.508 60.2761 115.32 60.1472 115.227 60.1472C115.156 60.1472 115.121 60.0534 115.121 59.8659C115.027 59.819 114.957 59.7722 114.91 59.7253C114.863 59.6784 114.828 59.6315 114.805 59.5847C114.758 59.3737 114.711 59.2565 114.664 59.2331C114.617 59.2097 114.617 59.1745 114.664 59.1276C114.805 59.0807 114.898 58.987 114.945 58.8464C115.016 58.6823 115.145 58.6003 115.332 58.6003C115.379 58.4128 115.473 58.2722 115.613 58.1784C115.777 58.0847 115.859 57.9323 115.859 57.7214C116.141 57.3698 116.375 57.1589 116.562 57.0886C116.75 56.9948 116.902 56.8659 117.02 56.7018C117.113 56.4206 117.207 56.2565 117.301 56.2097C117.395 56.1628 117.43 56.0807 117.406 55.9636C117.5 55.9167 117.641 55.8698 117.828 55.8229C117.898 55.7057 117.934 55.6237 117.934 55.5768C117.957 55.53 118.039 55.4714 118.18 55.4011C118.156 55.2839 118.191 55.2018 118.285 55.155C118.379 55.0847 118.402 54.9675 118.355 54.8034C118.426 54.8034 118.531 54.7565 118.672 54.6628C118.812 54.5456 118.953 54.4167 119.094 54.2761C119.234 54.112 119.352 53.9597 119.445 53.819C119.539 53.655 119.586 53.5378 119.586 53.4675C119.773 53.2331 119.832 53.1159 119.762 53.1159C119.691 53.1159 119.633 53.0925 119.586 53.0456C119.492 52.8347 119.41 52.7175 119.34 52.694C119.27 52.6706 119.211 52.6354 119.164 52.5886C119.117 52.5417 119.082 52.4831 119.059 52.4128C119.059 52.3425 119.035 52.2839 118.988 52.237C118.707 51.8854 118.473 51.6393 118.285 51.4987C118.168 51.3815 118.086 51.3229 118.039 51.3229C118.016 51.2995 117.992 51.2761 117.969 51.2526C117.875 51.0651 117.805 50.9479 117.758 50.9011C117.711 50.8542 117.664 50.8073 117.617 50.7604C117.406 50.2682 117.184 49.9284 116.949 49.7409C116.879 49.3893 116.727 49.1198 116.492 48.9323C116.328 48.5807 116.164 48.3229 116 48.1589C115.859 47.9948 115.707 47.8776 115.543 47.8073C115.566 47.6432 115.555 47.5261 115.508 47.4557C115.484 47.3854 115.426 47.2917 115.332 47.1745C115.402 46.6589 115.695 46.3542 116.211 46.2604C116.328 46.2136 116.492 46.1901 116.703 46.1901C116.938 46.1901 117.113 46.2136 117.23 46.2604C117.371 46.3073 117.477 46.3893 117.547 46.5065C117.641 46.6237 117.758 46.6706 117.898 46.6472C118.133 46.8581 118.262 47.0222 118.285 47.1393C118.309 47.2331 118.379 47.2917 118.496 47.3151V47.737C118.66 47.9245 118.789 48.1354 118.883 48.3698C119 48.6042 119.094 48.8386 119.164 49.0729C119.539 49.3776 119.891 49.7761 120.219 50.2682C120.57 50.737 120.969 51.0651 121.414 51.2526C121.625 51.1823 121.766 51.0417 121.836 50.8307C121.906 50.6198 122.035 50.4675 122.223 50.3737C122.199 50.2097 122.223 50.0925 122.293 50.0222C122.387 49.9518 122.422 49.8347 122.398 49.6706C122.656 49.4831 122.867 49.2604 123.031 49.0026L123.418 48.7917C123.418 48.6511 123.441 48.5456 123.488 48.4753C123.559 48.3815 123.582 48.2409 123.559 48.0534C123.887 47.8659 124.039 47.5964 124.016 47.2448C124.203 47.2682 124.379 47.2565 124.543 47.2097C124.707 47.1628 124.848 47.069 124.965 46.9284C125.316 47.0925 125.539 47.2097 125.633 47.28C125.727 47.3503 125.867 47.362 126.055 47.3151C126.219 47.5026 126.289 47.6198 126.266 47.6667C126.242 47.7136 126.242 47.7604 126.266 47.8073C126.289 47.9245 126.312 47.9948 126.336 48.0182C126.383 48.0182 126.383 48.1003 126.336 48.2643C126.289 48.3815 126.242 48.5573 126.195 48.7917C126.125 49.0261 126.02 49.237 125.879 49.4245C125.738 49.5886 125.645 49.7878 125.598 50.0222C125.41 50.0925 125.234 50.2097 125.07 50.3737C124.906 50.5143 124.848 50.6901 124.895 50.9011C124.754 50.9479 124.625 51.0417 124.508 51.1823C124.391 51.3229 124.32 51.4753 124.297 51.6393C124.133 51.8503 124.051 51.9792 124.051 52.0261C124.074 52.0495 124.062 52.0729 124.016 52.0964C123.875 52.2604 123.781 52.4011 123.734 52.5182C123.711 52.6354 123.629 52.7057 123.488 52.7292C123.488 52.7995 123.477 52.8698 123.453 52.9401C123.43 53.0104 123.371 53.069 123.277 53.1159C123.301 53.2331 123.371 53.3034 123.488 53.3268C123.605 53.3268 123.699 53.3503 123.77 53.3972C123.746 53.5143 123.781 53.5964 123.875 53.6432C123.992 53.6667 124.086 53.7136 124.156 53.7839L124.438 54.1354C124.484 54.2526 124.543 54.3464 124.613 54.4167C124.684 54.4636 124.719 54.5456 124.719 54.6628C124.766 54.7097 124.824 54.7331 124.895 54.7331C124.988 54.7331 125.059 54.7565 125.105 54.8034C125.316 54.9675 125.48 55.1315 125.598 55.2956C125.715 55.4362 125.844 55.5651 125.984 55.6823C126.195 55.8229 126.289 55.905 126.266 55.9284C126.266 55.9518 126.289 55.987 126.336 56.0339C126.57 56.4089 126.758 56.655 126.898 56.7722C127.039 56.8659 127.156 56.9948 127.25 57.1589C127.438 57.1823 127.578 57.2292 127.672 57.2995C127.766 57.3698 127.883 57.4636 128.023 57.5807C128.117 57.5339 128.199 57.5456 128.27 57.6159C128.363 57.6628 128.434 57.6511 128.48 57.5807C128.551 57.7682 128.621 57.8972 128.691 57.9675C128.762 58.0143 128.762 58.0612 128.691 58.1081C128.738 58.2253 128.797 58.319 128.867 58.3893C128.938 58.4362 128.984 58.5182 129.008 58.6354ZM143.281 60.0417C143.164 60.0651 143.105 60.1237 143.105 60.2175C143.129 60.3347 143.129 60.4284 143.105 60.4987C142.988 60.5222 142.871 60.5456 142.754 60.569C142.637 60.5925 142.543 60.6628 142.473 60.78C142.355 60.7331 142.227 60.7097 142.086 60.7097C141.945 60.7331 141.828 60.6979 141.734 60.6042L141.207 60.4987C141.09 60.4753 141.02 60.4284 140.996 60.3581C140.996 60.2878 140.949 60.2292 140.855 60.1823C140.574 60.112 140.422 60.0534 140.398 60.0065C140.398 59.9831 140.375 59.9479 140.328 59.9011C140.047 59.737 139.883 59.5964 139.836 59.4792C139.789 59.3386 139.695 59.2448 139.555 59.1979C139.578 58.9167 139.508 58.694 139.344 58.53C139.203 58.3659 139.109 58.155 139.062 57.8972C138.992 57.8268 138.91 57.7682 138.816 57.7214C138.746 57.6511 138.711 57.5573 138.711 57.4401C138.594 57.3932 138.512 57.4284 138.465 57.5456C138.418 57.6628 138.371 57.7448 138.324 57.7917C138.184 57.862 138.055 57.9792 137.938 58.1432C137.844 58.3073 137.809 58.4128 137.832 58.4597C137.645 58.53 137.48 58.6354 137.34 58.7761C137.199 58.9167 137.035 59.0104 136.848 59.0573C136.496 59.2682 136.238 59.4206 136.074 59.5143C135.91 59.5847 135.746 59.6667 135.582 59.7604C135.418 59.6901 135.266 59.6784 135.125 59.7253C134.984 59.7722 134.82 59.7839 134.633 59.7604C134.234 59.6432 133.941 59.6081 133.754 59.655C133.59 59.7018 133.414 59.6784 133.227 59.5847C132.945 59.3972 132.676 59.2682 132.418 59.1979C132.16 59.1042 131.961 59.0456 131.82 59.0222C131.703 58.9987 131.645 58.9518 131.645 58.8815C131.645 58.8112 131.609 58.7526 131.539 58.7057C131.375 58.7292 131.234 58.7057 131.117 58.6354C131 58.5651 130.871 58.4479 130.73 58.2839C130.613 58.1198 130.496 57.944 130.379 57.7565C130.262 57.569 130.156 57.3932 130.062 57.2292C129.969 57.0417 129.887 56.8893 129.816 56.7722C129.84 56.5847 129.84 56.4792 129.816 56.4557C129.793 56.4323 129.77 56.3972 129.746 56.3503C129.699 56.1628 129.664 55.9753 129.641 55.7878C129.641 55.6003 129.617 55.4128 129.57 55.2253C129.711 55.1315 129.77 54.9675 129.746 54.7331C129.746 54.4987 129.758 54.3112 129.781 54.1706C129.828 53.9597 129.887 53.7604 129.957 53.5729C130.051 53.362 130.121 53.1511 130.168 52.9401C130.215 52.7526 130.238 52.5651 130.238 52.3776C130.238 52.1667 130.332 52.0026 130.52 51.8854C130.566 51.6276 130.602 51.3698 130.625 51.112C130.648 50.8307 130.695 50.5612 130.766 50.3034C130.812 50.1159 130.883 49.905 130.977 49.6706C131.094 49.4128 131.082 49.1901 130.941 49.0026C131.012 48.9557 131.047 48.8972 131.047 48.8268C131.07 48.7565 131.105 48.6979 131.152 48.6511C131.27 48.5104 131.316 48.4284 131.293 48.405C131.27 48.3581 131.281 48.3112 131.328 48.2643C131.539 48.1237 131.691 48.03 131.785 47.9831C131.902 47.9128 132.043 47.8659 132.207 47.8425C132.277 47.8659 132.348 47.9128 132.418 47.9831C132.512 48.0534 132.582 48.1003 132.629 48.1237C132.91 48.1706 133.156 48.2175 133.367 48.2643L133.578 48.6511C133.648 48.8386 133.66 49.0495 133.613 49.2839C133.59 49.4948 133.52 49.6823 133.402 49.8464C133.355 49.987 133.332 50.1628 133.332 50.3737C133.355 50.5847 133.297 50.7136 133.156 50.7604C133.133 50.9948 133.121 51.1823 133.121 51.3229C133.145 51.4401 133.133 51.5456 133.086 51.6393C133.062 51.7097 133.016 51.8151 132.945 51.9557C132.898 52.0729 132.898 52.1667 132.945 52.237C132.734 52.5886 132.582 52.8581 132.488 53.0456C132.418 53.2331 132.43 53.4206 132.523 53.6081C132.336 53.7253 132.23 53.8893 132.207 54.1003C132.207 54.3112 132.148 54.487 132.031 54.6276C132.125 54.7214 132.172 54.8503 132.172 55.0143C132.172 55.1784 132.172 55.3425 132.172 55.5065C132.172 55.6706 132.184 55.8229 132.207 55.9636C132.254 56.1042 132.371 56.1862 132.559 56.2097C132.605 56.3972 132.676 56.5612 132.77 56.7018C132.98 56.7253 133.156 56.7839 133.297 56.8776C133.461 56.9479 133.625 57.03 133.789 57.1237C133.953 57.2175 134.117 57.2995 134.281 57.3698C134.445 57.4401 134.656 57.4636 134.914 57.4401C135.031 57.4167 135.148 57.3932 135.266 57.3698C135.406 57.3229 135.523 57.2643 135.617 57.194C135.688 57.0534 135.781 56.9831 135.898 56.9831C136.016 56.9831 136.098 56.9362 136.145 56.8425C136.309 56.5847 136.473 56.3972 136.637 56.28C136.801 56.1393 136.895 55.9401 136.918 55.6823C137.199 55.3307 137.398 55.0261 137.516 54.7682C137.656 54.487 137.75 54.194 137.797 53.8893C137.797 53.6081 137.809 53.4675 137.832 53.4675C137.855 53.444 137.867 53.4089 137.867 53.362C137.82 53.0807 137.809 52.9284 137.832 52.905C137.879 52.8581 137.902 52.8112 137.902 52.7643C137.832 52.5065 137.809 52.3542 137.832 52.3073C137.855 52.237 137.867 52.1784 137.867 52.1315C137.844 51.944 137.809 51.7682 137.762 51.6042C137.715 51.4401 137.703 51.2643 137.727 51.0768C137.867 50.9128 137.902 50.7956 137.832 50.7253C137.785 50.6315 137.785 50.5261 137.832 50.4089C137.691 50.2682 137.598 50.1511 137.551 50.0573C137.504 49.9636 137.48 49.8698 137.48 49.7761C137.504 49.6823 137.551 49.5886 137.621 49.4948C137.691 49.3776 137.762 49.237 137.832 49.0729C137.902 48.7917 137.949 48.5925 137.973 48.4753C137.996 48.3581 137.984 48.2409 137.938 48.1237C138.055 48.1706 138.125 48.1589 138.148 48.0886C138.195 47.9948 138.254 47.9362 138.324 47.9128C138.371 47.8893 138.43 47.8893 138.5 47.9128C138.594 47.9362 138.664 47.9479 138.711 47.9479C138.805 47.9479 138.875 47.9362 138.922 47.9128C138.969 47.8893 139.039 47.8776 139.133 47.8776C139.344 47.9245 139.543 47.9948 139.73 48.0886C139.918 48.1823 140.105 48.2878 140.293 48.405C140.316 48.569 140.363 48.7097 140.434 48.8268C140.527 48.9206 140.598 49.0378 140.645 49.1784C140.645 49.2487 140.633 49.3425 140.609 49.4597C140.609 49.5768 140.574 49.6589 140.504 49.7057C140.574 49.7761 140.598 49.8815 140.574 50.0222C140.551 50.1628 140.598 50.2565 140.715 50.3034C140.598 50.444 140.574 50.6198 140.645 50.8307C140.715 51.0417 140.762 51.1823 140.785 51.2526C140.715 51.487 140.691 51.6511 140.715 51.7448C140.762 51.8386 140.785 51.944 140.785 52.0612C140.809 52.2018 140.797 52.3425 140.75 52.4831C140.727 52.6237 140.727 52.7526 140.75 52.8698C140.75 52.9636 140.773 53.0456 140.82 53.1159C140.867 53.1628 140.891 53.2331 140.891 53.3268C140.891 53.3972 140.867 53.4792 140.82 53.5729C140.797 53.6667 140.844 53.737 140.961 53.7839C140.867 53.9479 140.855 54.0768 140.926 54.1706C140.996 54.2643 141.043 54.3698 141.066 54.487C141.09 54.6276 141.078 54.7682 141.031 54.9089C141.008 55.0495 140.996 55.1784 140.996 55.2956C141.02 55.5768 141.066 55.8464 141.137 56.1042C141.23 56.3386 141.301 56.5847 141.348 56.8425C141.512 57.03 141.582 57.2292 141.559 57.4401C141.535 57.6276 141.641 57.8268 141.875 58.0378C141.969 58.1081 142.062 58.2136 142.156 58.3542C142.273 58.4948 142.391 58.5886 142.508 58.6354C142.695 58.7526 142.801 58.8581 142.824 58.9518C142.848 59.0456 142.953 59.1393 143.141 59.2331L143.281 60.0417ZM155.094 54.2761C155.141 54.7682 155.164 55.2956 155.164 55.8581C155.188 56.4206 155.07 56.9245 154.812 57.3698C154.719 57.6511 154.66 57.8737 154.637 58.0378C154.613 58.1784 154.531 58.2722 154.391 58.319C154.414 58.53 154.379 58.6706 154.285 58.7409C154.191 58.8112 154.098 58.9167 154.004 59.0573C153.863 59.0573 153.711 59.0807 153.547 59.1276C153.383 59.1745 153.242 59.2214 153.125 59.2682C153.031 59.4557 152.961 59.5261 152.914 59.4792C152.867 59.4323 152.797 59.4323 152.703 59.4792C152.469 59.6432 152.246 59.7253 152.035 59.7253C151.848 59.7253 151.695 59.7253 151.578 59.7253C151.484 59.7956 151.391 59.8542 151.297 59.9011C151.227 59.9714 151.18 60.0768 151.156 60.2175C151.039 60.2643 150.969 60.2409 150.945 60.1472C150.922 60.0768 150.863 60.03 150.77 60.0065C150.559 60.1003 150.406 60.1003 150.312 60.0065C150.242 59.9128 150.125 59.8659 149.961 59.8659C149.867 59.8659 149.762 59.8893 149.645 59.9362C149.551 60.0065 149.445 60.0651 149.328 60.112C149.234 60.1589 149.129 60.1823 149.012 60.1823C148.918 60.2057 148.824 60.1706 148.73 60.0768C148.613 60.0768 148.531 60.112 148.484 60.1823C148.461 60.2526 148.391 60.2878 148.273 60.2878C148.016 60.2643 147.77 60.2292 147.535 60.1823C147.301 60.1589 147.055 60.1706 146.797 60.2175C146.75 60.1003 146.645 60.03 146.48 60.0065C146.34 60.0065 146.223 60.0065 146.129 60.0065C146.105 59.9128 146.047 59.8659 145.953 59.8659C145.883 59.8659 145.848 59.819 145.848 59.7253C145.754 59.7722 145.613 59.737 145.426 59.6198C145.262 59.5261 145.133 59.4557 145.039 59.4089C144.945 59.2917 144.816 59.1511 144.652 58.987C144.488 58.8229 144.395 58.7175 144.371 58.6706C144.324 58.6003 144.301 58.5182 144.301 58.4245C144.324 58.3073 144.277 58.2253 144.16 58.1784C144.16 58.0143 144.148 57.9089 144.125 57.862C144.125 57.7917 144.113 57.7448 144.09 57.7214C144.066 57.6745 144.031 57.6393 143.984 57.6159C143.938 57.569 143.879 57.487 143.809 57.3698C143.855 57.2526 143.844 57.1354 143.773 57.0182C143.727 56.8776 143.738 56.7487 143.809 56.6315C143.738 56.5612 143.691 56.444 143.668 56.28C143.668 56.0925 143.668 55.905 143.668 55.7175C143.691 55.5065 143.727 55.3073 143.773 55.1198C143.82 54.9323 143.855 54.7917 143.879 54.6979C144.09 54.5807 144.277 54.4401 144.441 54.2761C144.605 54.0886 144.805 53.9362 145.039 53.819C145.25 53.9128 145.484 53.9948 145.742 54.0651C146.023 54.112 146.234 54.2292 146.375 54.4167C146.305 54.5807 146.293 54.7214 146.34 54.8386C146.41 54.9323 146.398 55.0261 146.305 55.1198C146.305 55.3542 146.223 55.4831 146.059 55.5065C146.035 55.6237 146.035 55.7409 146.059 55.8581C146.105 55.9753 146.082 56.0807 145.988 56.1745C146.082 56.362 146.105 56.4792 146.059 56.5261C146.035 56.5495 146.035 56.5847 146.059 56.6315C146.082 56.7487 146.141 56.8542 146.234 56.9479C146.328 57.0182 146.375 57.1354 146.375 57.2995C146.586 57.487 146.82 57.6159 147.078 57.6862C147.359 57.7565 147.617 57.8386 147.852 57.9323C147.922 57.9089 148.004 57.8972 148.098 57.8972C148.215 57.8972 148.273 57.8386 148.273 57.7214C148.391 57.7682 148.531 57.7917 148.695 57.7917C148.859 57.7682 148.988 57.6979 149.082 57.5807C149.223 57.5807 149.375 57.5925 149.539 57.6159C149.727 57.6393 149.902 57.6511 150.066 57.6511C150.254 57.6511 150.418 57.6276 150.559 57.5807C150.723 57.5339 150.84 57.4284 150.91 57.2643C151.215 57.2643 151.438 57.2175 151.578 57.1237C151.742 57.03 151.871 56.9245 151.965 56.8073C152.059 56.6667 152.141 56.5378 152.211 56.4206C152.305 56.28 152.434 56.1745 152.598 56.1042C152.598 55.9636 152.621 55.8581 152.668 55.7878C152.738 55.694 152.75 55.5534 152.703 55.3659C152.68 55.2253 152.598 55.1432 152.457 55.1198C152.316 55.0964 152.199 55.0378 152.105 54.944C152.059 54.6862 151.941 54.5104 151.754 54.4167C151.566 54.3229 151.391 54.1823 151.227 53.9948C150.945 54.0417 150.746 54.03 150.629 53.9597C150.512 53.8893 150.336 53.7956 150.102 53.6784C150.008 53.6315 149.914 53.5964 149.82 53.5729C149.727 53.5495 149.633 53.5143 149.539 53.4675C149.422 53.444 149.34 53.4557 149.293 53.5026C149.246 53.5495 149.176 53.6081 149.082 53.6784C149.035 53.5612 148.965 53.4909 148.871 53.4675C148.777 53.4206 148.684 53.3737 148.59 53.3268C148.332 53.3268 148.051 53.3268 147.746 53.3268C147.441 53.3034 147.184 53.1979 146.973 53.0104C146.879 52.987 146.785 52.9753 146.691 52.9753C146.621 52.9753 146.539 52.9636 146.445 52.9401C146.375 52.7057 146.223 52.5886 145.988 52.5886C145.941 52.4948 145.895 52.4128 145.848 52.3425C145.824 52.2722 145.754 52.2487 145.637 52.2722C145.613 52.155 145.578 52.0378 145.531 51.9206C145.484 51.8034 145.391 51.7331 145.25 51.7097C145.227 51.4987 145.168 51.2995 145.074 51.112C144.98 50.9245 144.922 50.7253 144.898 50.5143C144.945 50.2331 144.957 50.069 144.934 50.0222C144.91 49.9518 144.898 49.8932 144.898 49.8464C144.922 49.5417 144.992 49.2487 145.109 48.9675C145.227 48.6862 145.297 48.3932 145.32 48.0886C145.461 48.0417 145.555 47.9479 145.602 47.8073C145.648 47.6667 145.684 47.5378 145.707 47.4206C145.941 47.3503 146.059 47.1862 146.059 46.9284C146.246 46.9518 146.375 46.9167 146.445 46.8229C146.516 46.7292 146.609 46.6354 146.727 46.5417C146.844 46.5886 146.938 46.5768 147.008 46.5065C147.078 46.4362 147.16 46.3776 147.254 46.3307C147.371 46.2839 147.477 46.2722 147.57 46.2956C147.664 46.319 147.758 46.3073 147.852 46.2604C147.969 46.2136 148.074 46.1667 148.168 46.1198C148.262 46.0495 148.367 46.0026 148.484 45.9792C148.484 45.9792 148.543 45.9792 148.66 45.9792C148.801 45.9557 148.953 45.944 149.117 45.944C149.281 45.944 149.434 45.944 149.574 45.944C149.715 45.9206 149.797 45.9089 149.82 45.9089C150.008 45.9323 150.184 45.9675 150.348 46.0143C150.535 46.0612 150.723 46.0729 150.91 46.0495C151.051 46.0495 151.191 46.0143 151.332 45.944C151.473 45.8737 151.625 45.862 151.789 45.9089C151.883 46.0026 151.965 46.1198 152.035 46.2604C152.176 46.2604 152.281 46.2839 152.352 46.3307C152.422 46.3776 152.48 46.4362 152.527 46.5065C152.598 46.5768 152.656 46.6472 152.703 46.7175C152.773 46.7643 152.867 46.7878 152.984 46.7878C152.984 46.8815 153.02 46.9753 153.09 47.069C153.16 47.1393 153.219 47.2097 153.266 47.28C153.406 47.4206 153.477 47.6081 153.477 47.8425C153.5 48.0768 153.523 48.2878 153.547 48.4753C153.477 48.5456 153.395 48.6159 153.301 48.6862C153.23 48.7331 153.172 48.8034 153.125 48.8972C153.078 48.9675 153.031 49.0612 152.984 49.1784C152.961 49.2722 152.891 49.3073 152.773 49.2839C152.609 49.5182 152.504 49.612 152.457 49.5651C152.434 49.4948 152.398 49.4362 152.352 49.3893C152.328 49.3425 152.281 49.319 152.211 49.319C152.141 49.2956 152.023 49.3542 151.859 49.4948C151.695 49.3073 151.531 49.1667 151.367 49.0729C151.227 48.9557 151.133 48.7565 151.086 48.4753C150.992 48.3815 150.852 48.3347 150.664 48.3347C150.5 48.3347 150.371 48.2761 150.277 48.1589C150.16 48.1823 149.984 48.2292 149.75 48.2995C149.516 48.3698 149.34 48.3464 149.223 48.2292C149.105 48.2057 149.023 48.2409 148.977 48.3347C148.953 48.4284 148.848 48.4518 148.66 48.405C148.59 48.4518 148.543 48.5104 148.52 48.5807C148.496 48.6511 148.461 48.7097 148.414 48.7565C148.203 48.78 148.016 48.9206 147.852 49.1784C147.688 49.4128 147.629 49.6354 147.676 49.8464C147.488 50.1745 147.418 50.3737 147.465 50.444C147.535 50.4909 147.605 50.5612 147.676 50.655C147.863 50.8893 148.016 50.9948 148.133 50.9714C148.25 50.9479 148.426 50.9948 148.66 51.112C148.918 51.0886 149.105 51.112 149.223 51.1823C149.34 51.2292 149.445 51.2761 149.539 51.3229C149.633 51.2761 149.715 51.2409 149.785 51.2175C149.879 51.194 149.961 51.1589 150.031 51.112C150.266 51.2292 150.5 51.3229 150.734 51.3932C150.969 51.4401 151.203 51.5222 151.438 51.6393C151.555 51.6862 151.648 51.7331 151.719 51.78C151.812 51.8268 151.918 51.8737 152.035 51.9206C152.246 51.9909 152.387 52.0378 152.457 52.0612C152.551 52.0847 152.598 52.155 152.598 52.2722C152.832 52.2253 153.008 52.2604 153.125 52.3776C153.242 52.4948 153.395 52.5651 153.582 52.5886C153.699 52.7057 153.852 52.8815 154.039 53.1159C154.227 53.3503 154.391 53.4909 154.531 53.5378C154.555 53.7253 154.625 53.8659 154.742 53.9597C154.859 54.03 154.977 54.1354 155.094 54.2761Z" fill="black"/>
<rect opacity="0.2" x="-0.703755" width="18.253" height="18.253" transform="matrix(0.703755 -0.710443 0.703755 0.710443 19.5274 13.7573)" fill="black" stroke="black"/>
<rect opacity="0.2" x="-0.703755" width="18.253" height="18.253" transform="matrix(0.703755 -0.710443 0.703755 0.710443 19.6497 49.2428)" fill="black" stroke="black"/>
<rect opacity="0.2" x="-0.703755" width="18.253" height="18.253" transform="matrix(0.703755 -0.710443 0.703755 0.710443 1.79152 31.9083)" fill="black" stroke="black"/>
<rect opacity="0.2" x="-0.703755" width="18.253" height="18.253" transform="matrix(0.703755 -0.710443 0.703755 0.710443 37.5076 31.9083)" fill="black" stroke="black"/>
</svg>
