<svg width="177" height="77" viewBox="0 0 177 77" fill="none" xmlns="http://www.w3.org/2000/svg">
<g filter="url(#filter0_d_111_718)">
<rect x="0.5" y="0.5" width="164" height="64" rx="11.5" fill="white" stroke="#F5B997"/>
<path d="M48.0256 18.6216H44.9574C44.9669 18.2144 44.9148 17.8545 44.8012 17.542C44.6875 17.2248 44.5171 16.9549 44.2898 16.7324C44.0673 16.5098 43.795 16.3418 43.4731 16.2281C43.1511 16.1097 42.7889 16.0506 42.3864 16.0506C41.6099 16.0506 40.8973 16.2447 40.2486 16.6329C39.6 17.0212 39.0531 17.5847 38.608 18.3233C38.1629 19.0572 37.8552 19.945 37.6847 20.9866C37.519 21.9904 37.5285 22.8309 37.7131 23.5079C37.8978 24.185 38.2245 24.6964 38.6932 25.042C39.1667 25.3829 39.7562 25.5534 40.4617 25.5534C40.8973 25.5534 41.3116 25.4989 41.7046 25.39C42.0976 25.2764 42.4551 25.1154 42.777 24.9071C43.1037 24.694 43.3878 24.436 43.6293 24.1329C43.8755 23.8299 44.0673 23.4866 44.2046 23.1031H47.2941C47.1 23.7707 46.7969 24.4147 46.385 25.0349C45.9778 25.6552 45.4735 26.2092 44.8722 26.6969C44.2709 27.1798 43.5867 27.5633 42.8196 27.8474C42.0526 28.1315 41.2122 28.2736 40.2983 28.2736C38.9773 28.2736 37.8433 27.9705 36.8964 27.3645C35.9541 26.7584 35.2747 25.8848 34.858 24.7437C34.4413 23.6026 34.3632 22.2272 34.6236 20.6173C34.884 19.0596 35.393 17.7385 36.1506 16.6543C36.9129 15.5652 37.8386 14.739 38.9276 14.1756C40.0214 13.6121 41.1909 13.3304 42.4361 13.3304C43.3026 13.3304 44.0862 13.4488 44.787 13.6855C45.4877 13.9222 46.0843 14.2679 46.5768 14.7224C47.0739 15.1722 47.448 15.7239 47.6989 16.3773C47.9499 17.0307 48.0588 17.7788 48.0256 18.6216ZM52.7096 21.7679L51.6584 28.0747H48.64L51.0547 13.5293H53.988L53.0789 19.0903H53.1996C53.55 18.4464 54.0306 17.9421 54.6414 17.5775C55.2522 17.2082 55.9742 17.0236 56.8076 17.0236C57.5652 17.0236 58.1973 17.1893 58.7039 17.5207C59.2152 17.8474 59.5775 18.3186 59.7905 18.9341C60.0036 19.5449 60.0391 20.2764 59.8971 21.1287L58.7323 28.0747H55.7138L56.7792 21.6685C56.8881 20.9961 56.8005 20.4729 56.5164 20.0989C56.237 19.7248 55.7919 19.5378 55.1812 19.5378C54.7692 19.5378 54.3904 19.6254 54.0448 19.8006C53.6991 19.9757 53.408 20.2314 53.1712 20.5676C52.9392 20.899 52.7853 21.2991 52.7096 21.7679ZM64.1815 28.2807C63.4902 28.2807 62.8913 28.1599 62.3846 27.9185C61.8827 27.6722 61.5134 27.3077 61.2767 26.8247C61.0399 26.3418 60.9808 25.7428 61.0991 25.0278C61.2033 24.4218 61.3998 23.9151 61.6886 23.5079C61.9822 23.096 62.3397 22.7646 62.7611 22.5136C63.1825 22.2627 63.6488 22.0709 64.1602 21.9383C64.6763 21.8058 65.209 21.7158 65.7582 21.6685C66.3927 21.6022 66.9088 21.5382 67.3065 21.4767C67.709 21.4151 68.0096 21.3275 68.2085 21.2139C68.4074 21.0955 68.5281 20.9204 68.5707 20.6883V20.6457C68.6417 20.2007 68.5589 19.855 68.3221 19.6088C68.0901 19.3579 67.7184 19.2324 67.2071 19.2324C66.6673 19.2324 66.208 19.3507 65.8292 19.5875C65.4552 19.8242 65.1877 20.1249 65.0267 20.4895L62.271 20.2622C62.5172 19.5993 62.8889 19.0264 63.3861 18.5435C63.8879 18.0558 64.4916 17.6817 65.1971 17.4213C65.9026 17.1561 66.6933 17.0236 67.5693 17.0236C68.1754 17.0236 68.7412 17.0946 69.2667 17.2366C69.797 17.3787 70.254 17.5989 70.6375 17.8971C71.0257 18.1954 71.3051 18.579 71.4755 19.0477C71.6507 19.5117 71.6862 20.0681 71.5821 20.7168L70.3534 28.0747H67.4841L67.7397 26.5619H67.6545C67.4225 26.9028 67.1384 27.2035 66.8022 27.4639C66.4661 27.7196 66.0802 27.9208 65.6446 28.0676C65.209 28.2097 64.7213 28.2807 64.1815 28.2807ZM65.396 26.1926C65.8363 26.1926 66.2412 26.105 66.6105 25.9298C66.9845 25.7499 67.2923 25.5084 67.5338 25.2054C67.78 24.9024 67.9362 24.5591 68.0025 24.1756L68.1872 23.0179C68.0925 23.0794 67.9552 23.1339 67.7753 23.1812C67.6001 23.2286 67.4083 23.2736 67.2 23.3162C66.9964 23.3541 66.7904 23.3896 66.5821 23.4227C66.3737 23.4511 66.1867 23.4795 66.021 23.5079C65.6564 23.56 65.3297 23.6429 65.0409 23.7565C64.7521 23.8702 64.5177 24.024 64.3378 24.2182C64.1578 24.4076 64.0466 24.6443 64.004 24.9284C63.9377 25.3403 64.0347 25.6552 64.2951 25.873C64.5603 26.0861 64.9272 26.1926 65.396 26.1926ZM72.7007 28.0747L74.5189 17.1656H77.4521L77.1325 19.069H77.2461C77.5586 18.3919 77.9777 17.8806 78.5032 17.5349C79.0335 17.1846 79.6041 17.0094 80.2149 17.0094C80.3664 17.0094 80.525 17.0188 80.6907 17.0378C80.8612 17.052 81.0127 17.0757 81.1453 17.1088L80.6907 19.8006C80.5582 19.7532 80.3688 19.7153 80.1226 19.6869C79.8811 19.6538 79.6514 19.6372 79.4336 19.6372C78.9933 19.6372 78.5837 19.7343 78.2049 19.9284C77.8262 20.1178 77.5066 20.3829 77.2461 20.7239C76.9905 21.0648 76.8224 21.4578 76.7419 21.9028L75.7263 28.0747H72.7007ZM83.6542 28.2807C82.9629 28.2807 82.3639 28.1599 81.8573 27.9185C81.3554 27.6722 80.9861 27.3077 80.7493 26.8247C80.5126 26.3418 80.4534 25.7428 80.5718 25.0278C80.6759 24.4218 80.8724 23.9151 81.1613 23.5079C81.4548 23.096 81.8123 22.7646 82.2337 22.5136C82.6551 22.2627 83.1215 22.0709 83.6329 21.9383C84.149 21.8058 84.6816 21.7158 85.2309 21.6685C85.8653 21.6022 86.3814 21.5382 86.7792 21.4767C87.1816 21.4151 87.4823 21.3275 87.6812 21.2139C87.88 21.0955 88.0008 20.9204 88.0434 20.6883V20.6457C88.1144 20.2007 88.0315 19.855 87.7948 19.6088C87.5628 19.3579 87.1911 19.2324 86.6797 19.2324C86.14 19.2324 85.6807 19.3507 85.3019 19.5875C84.9278 19.8242 84.6603 20.1249 84.4993 20.4895L81.7437 20.2622C81.9899 19.5993 82.3616 19.0264 82.8587 18.5435C83.3606 18.0558 83.9643 17.6817 84.6698 17.4213C85.3753 17.1561 86.166 17.0236 87.0419 17.0236C87.648 17.0236 88.2138 17.0946 88.7394 17.2366C89.2697 17.3787 89.7266 17.5989 90.1101 17.8971C90.4984 18.1954 90.7777 18.579 90.9482 19.0477C91.1234 19.5117 91.1589 20.0681 91.0547 20.7168L89.826 28.0747H86.9567L87.2124 26.5619H87.1272C86.8952 26.9028 86.6111 27.2035 86.2749 27.4639C85.9387 27.7196 85.5528 27.9208 85.1172 28.0676C84.6816 28.2097 84.1939 28.2807 83.6542 28.2807ZM84.8687 26.1926C85.309 26.1926 85.7138 26.105 86.0831 25.9298C86.4572 25.7499 86.765 25.5084 87.0064 25.2054C87.2527 24.9024 87.4089 24.5591 87.4752 24.1756L87.6598 23.0179C87.5651 23.0794 87.4278 23.1339 87.2479 23.1812C87.0727 23.2286 86.881 23.2736 86.6726 23.3162C86.469 23.3541 86.2631 23.3896 86.0547 23.4227C85.8464 23.4511 85.6594 23.4795 85.4937 23.5079C85.1291 23.56 84.8024 23.6429 84.5135 23.7565C84.2247 23.8702 83.9903 24.024 83.8104 24.2182C83.6305 24.4076 83.5192 24.6443 83.4766 24.9284C83.4103 25.3403 83.5074 25.6552 83.7678 25.873C84.033 26.0861 84.3999 26.1926 84.8687 26.1926ZM97.0739 28.2878C95.9518 28.2878 95.0285 28.051 94.304 27.5775C93.5843 27.0993 93.0801 26.4364 92.7912 25.5889C92.5071 24.7414 92.4574 23.766 92.6421 22.6628C92.822 21.5454 93.1984 20.5652 93.7714 19.7224C94.3443 18.8749 95.0711 18.2144 95.9518 17.7409C96.8372 17.2627 97.8315 17.0236 98.9347 17.0236C99.8864 17.0236 100.691 17.1964 101.349 17.542C102.008 17.8877 102.491 18.373 102.798 18.998C103.106 19.623 103.21 20.3569 103.111 21.1997H100.263C100.268 20.6599 100.128 20.222 99.8438 19.8858C99.5597 19.5496 99.143 19.3815 98.5938 19.3815C98.1203 19.3815 97.6847 19.5094 97.287 19.765C96.894 20.016 96.5602 20.3829 96.2856 20.8659C96.0157 21.3489 95.8263 21.9336 95.7174 22.6202C95.6037 23.3162 95.6014 23.908 95.7103 24.3957C95.8192 24.8834 96.0275 25.2551 96.3353 25.5108C96.643 25.7665 97.0313 25.8943 97.5 25.8943C97.8504 25.8943 98.1748 25.8233 98.4731 25.6812C98.7761 25.5392 99.0412 25.3332 99.2685 25.0633C99.4958 24.7887 99.671 24.4597 99.7941 24.0761H102.649C102.455 24.9142 102.102 25.6481 101.591 26.2778C101.084 26.9076 100.447 27.4 99.6804 27.7551C98.9134 28.1102 98.0446 28.2878 97.0739 28.2878ZM111.532 17.1656L111.156 19.4383H104.579L104.963 17.1656H111.532ZM106.88 14.552H109.906L108.216 24.7224C108.168 25.0018 108.175 25.2196 108.237 25.3758C108.298 25.5274 108.4 25.6339 108.542 25.6954C108.689 25.757 108.864 25.7878 109.068 25.7878C109.21 25.7878 109.354 25.7759 109.501 25.7523C109.648 25.7239 109.759 25.7025 109.835 25.6883L109.949 27.9398C109.778 27.9918 109.548 28.0487 109.26 28.1102C108.976 28.1718 108.639 28.2097 108.251 28.2239C107.512 28.2523 106.887 28.1552 106.376 27.9327C105.865 27.7054 105.498 27.3574 105.275 26.8886C105.053 26.4199 105.005 25.8304 105.133 25.1202L106.88 14.552ZM116.511 28.2878C115.398 28.2878 114.477 28.051 113.748 27.5775C113.019 27.0993 112.505 26.4364 112.207 25.5889C111.914 24.7366 111.859 23.7447 112.044 22.6131C112.224 21.4956 112.598 20.5179 113.166 19.6798C113.734 18.8418 114.456 18.1907 115.332 17.7267C116.208 17.2579 117.195 17.0236 118.294 17.0236C119.402 17.0236 120.32 17.2627 121.049 17.7409C121.779 18.2144 122.292 18.8773 122.591 19.7295C122.889 20.5818 122.946 21.5738 122.761 22.7054C122.576 23.8181 122.198 24.7935 121.625 25.6315C121.052 26.4696 120.33 27.123 119.458 27.5918C118.587 28.0558 117.605 28.2878 116.511 28.2878ZM116.809 25.944C117.321 25.944 117.773 25.7996 118.166 25.5108C118.564 25.2172 118.893 24.8195 119.153 24.3176C119.418 23.811 119.603 23.2381 119.707 22.5989C119.811 21.9691 119.818 21.4104 119.728 20.9227C119.638 20.4303 119.449 20.042 119.16 19.7579C118.876 19.4739 118.485 19.3318 117.988 19.3318C117.477 19.3318 117.022 19.4786 116.625 19.7722C116.227 20.061 115.898 20.4587 115.637 20.9653C115.377 21.472 115.195 22.0472 115.091 22.6912C114.991 23.3162 114.984 23.8749 115.069 24.3673C115.155 24.855 115.342 25.2409 115.63 25.525C115.919 25.8043 116.312 25.944 116.809 25.944ZM123.833 28.0747L125.652 17.1656H128.585L128.265 19.069H128.379C128.691 18.3919 129.11 17.8806 129.636 17.5349C130.166 17.1846 130.737 17.0094 131.348 17.0094C131.499 17.0094 131.658 17.0188 131.824 17.0378C131.994 17.052 132.146 17.0757 132.278 17.1088L131.824 19.8006C131.691 19.7532 131.502 19.7153 131.255 19.6869C131.014 19.6538 130.784 19.6372 130.566 19.6372C130.126 19.6372 129.717 19.7343 129.338 19.9284C128.959 20.1178 128.639 20.3829 128.379 20.7239C128.123 21.0648 127.955 21.4578 127.875 21.9028L126.859 28.0747H123.833ZM58.2511 41.7551C58.2748 41.1632 58.102 40.7063 57.7326 40.3844C57.3681 40.0624 56.8165 39.9014 56.0778 39.9014C55.5759 39.9014 55.1403 39.9724 54.771 40.1145C54.4017 40.2518 54.1058 40.4436 53.8832 40.6898C53.6654 40.9312 53.5305 41.2106 53.4784 41.5278C53.4263 41.7882 53.4429 42.0155 53.5281 42.2097C53.6181 42.4038 53.7577 42.5719 53.9471 42.7139C54.1413 42.8512 54.3709 42.972 54.6361 43.0761C54.9012 43.1756 55.1829 43.2608 55.4812 43.3318L56.7312 43.6443C57.342 43.7864 57.8913 43.9757 58.379 44.2125C58.8714 44.4492 59.2833 44.7404 59.6147 45.0861C59.9509 45.4317 60.1877 45.8389 60.325 46.3077C60.4623 46.7764 60.4812 47.3138 60.3818 47.9199C60.2303 48.81 59.8775 49.5818 59.3236 50.2352C58.7696 50.8839 58.0428 51.3882 57.1432 51.748C56.2435 52.1031 55.2019 52.2807 54.0182 52.2807C52.8439 52.2807 51.852 52.1007 51.0423 51.7409C50.2326 51.3811 49.6432 50.8484 49.2738 50.1429C48.9093 49.4327 48.8004 48.5543 48.9471 47.5079H51.923C51.8709 47.9956 51.9419 48.4028 52.1361 48.7295C52.3349 49.0515 52.6308 49.2954 53.0238 49.4611C53.4168 49.6221 53.8785 49.7025 54.4088 49.7025C54.9343 49.7025 55.4007 49.6268 55.8079 49.4753C56.2199 49.3238 56.5537 49.1131 56.8094 48.8432C57.065 48.5733 57.2213 48.2632 57.2781 47.9128C57.3349 47.5861 57.2852 47.3114 57.129 47.0889C56.9727 46.8664 56.7218 46.677 56.3761 46.5207C56.0352 46.3597 55.6114 46.2177 55.1048 46.0946L53.5849 45.6969C52.4107 45.3986 51.5229 44.9322 50.9216 44.2977C50.3202 43.6632 50.1048 42.8086 50.2753 41.7338C50.4268 40.8531 50.7937 40.0837 51.3761 39.4256C51.9632 38.7627 52.7019 38.2489 53.592 37.8844C54.4869 37.515 55.4647 37.3304 56.5253 37.3304C57.6048 37.3304 58.5163 37.5174 59.2596 37.8915C60.003 38.2608 60.5451 38.7769 60.8861 39.4398C61.227 40.1026 61.3311 40.8744 61.1986 41.7551H58.2511ZM65.7955 45.7679L64.7444 52.0747H61.7259L64.1407 37.5293H67.0739L66.1648 43.0903H66.2856C66.6359 42.4464 67.1165 41.9421 67.7273 41.5775C68.3381 41.2082 69.0602 41.0236 69.8935 41.0236C70.6511 41.0236 71.2832 41.1893 71.7898 41.5207C72.3012 41.8474 72.6634 42.3186 72.8765 42.9341C73.0895 43.5449 73.125 44.2764 72.983 45.1287L71.8182 52.0747H68.7998L69.8651 45.6685C69.974 44.9961 69.8864 44.4729 69.6023 44.0989C69.323 43.7248 68.8779 43.5378 68.2671 43.5378C67.8552 43.5378 67.4764 43.6254 67.1307 43.8006C66.7851 43.9757 66.4939 44.2314 66.2571 44.5676C66.0251 44.899 65.8713 45.2991 65.7955 45.7679ZM79.1282 52.2878C78.0108 52.2878 77.0852 52.0605 76.3513 51.606C75.6174 51.1467 75.1013 50.498 74.803 49.6599C74.5094 48.8171 74.4597 47.8204 74.6538 46.6699C74.8432 45.5477 75.2244 44.5629 75.7973 43.7153C76.3749 42.8678 77.0994 42.2073 77.9706 41.7338C78.8418 41.2603 79.8124 41.0236 80.8825 41.0236C81.6022 41.0236 82.2532 41.1396 82.8356 41.3716C83.4227 41.5989 83.9104 41.9445 84.2987 42.4085C84.687 42.8678 84.9521 43.4431 85.0942 44.1344C85.2409 44.8257 85.2386 45.6353 85.087 46.5633L84.9521 47.3943H75.7476L76.0388 45.5193H82.4024C82.4734 45.0837 82.445 44.6978 82.3172 44.3616C82.1893 44.0255 81.9763 43.7627 81.678 43.5733C81.3797 43.3792 81.0127 43.2821 80.5771 43.2821C80.132 43.2821 79.7154 43.391 79.3271 43.6088C78.9388 43.8266 78.6121 44.1131 78.347 44.4682C78.0866 44.8186 77.9185 45.1997 77.8427 45.6116L77.5089 47.4724C77.4142 48.0454 77.4332 48.5212 77.5657 48.9C77.7031 49.2788 77.9398 49.5629 78.276 49.7523C78.6121 49.9369 79.0383 50.0293 79.5544 50.0293C79.8906 50.0293 80.2054 49.9819 80.499 49.8872C80.7973 49.7925 81.0624 49.6528 81.2944 49.4682C81.5264 49.2788 81.7158 49.0444 81.8626 48.765L84.6254 48.9497C84.3697 49.6221 83.9815 50.2092 83.4606 50.7111C82.9398 51.2082 82.3124 51.5965 81.5785 51.8758C80.8494 52.1505 80.0326 52.2878 79.1282 52.2878ZM91.1009 52.2878C89.9835 52.2878 89.0578 52.0605 88.3239 51.606C87.59 51.1467 87.0739 50.498 86.7756 49.6599C86.4821 48.8171 86.4323 47.8204 86.6265 46.6699C86.8159 45.5477 87.197 44.5629 87.7699 43.7153C88.3476 42.8678 89.072 42.2073 89.9432 41.7338C90.8144 41.2603 91.7851 41.0236 92.8552 41.0236C93.5749 41.0236 94.2259 41.1396 94.8083 41.3716C95.3954 41.5989 95.8831 41.9445 96.2714 42.4085C96.6596 42.8678 96.9248 43.4431 97.0668 44.1344C97.2136 44.8257 97.2112 45.6353 97.0597 46.5633L96.9248 47.3943H87.7202L88.0114 45.5193H94.375C94.4461 45.0837 94.4177 44.6978 94.2898 44.3616C94.162 44.0255 93.9489 43.7627 93.6506 43.5733C93.3523 43.3792 92.9854 43.2821 92.5498 43.2821C92.1047 43.2821 91.688 43.391 91.2998 43.6088C90.9115 43.8266 90.5848 44.1131 90.3196 44.4682C90.0592 44.8186 89.8911 45.1997 89.8154 45.6116L89.4816 47.4724C89.3869 48.0454 89.4058 48.5212 89.5384 48.9C89.6757 49.2788 89.9125 49.5629 90.2486 49.7523C90.5848 49.9369 91.0109 50.0293 91.527 50.0293C91.8632 50.0293 92.1781 49.9819 92.4716 49.8872C92.7699 49.7925 93.0351 49.6528 93.2671 49.4682C93.4991 49.2788 93.6885 49.0444 93.8353 48.765L96.5981 48.9497C96.3424 49.6221 95.9541 50.2092 95.4333 50.7111C94.9125 51.2082 94.2851 51.5965 93.5512 51.8758C92.822 52.1505 92.0053 52.2878 91.1009 52.2878ZM105.751 41.1656L105.375 43.4383H98.798L99.1815 41.1656H105.751ZM101.099 38.552H104.125L102.434 48.7224C102.387 49.0018 102.394 49.2196 102.456 49.3758C102.517 49.5274 102.619 49.6339 102.761 49.6954C102.908 49.757 103.083 49.7878 103.287 49.7878C103.429 49.7878 103.573 49.7759 103.72 49.7523C103.867 49.7239 103.978 49.7025 104.054 49.6883L104.167 51.9398C103.997 51.9918 103.767 52.0487 103.478 52.1102C103.194 52.1718 102.858 52.2097 102.47 52.2239C101.731 52.2523 101.106 52.1552 100.595 51.9327C100.083 51.7054 99.7165 51.3574 99.494 50.8886C99.2715 50.4199 99.2241 49.8304 99.352 49.1202L101.099 38.552ZM116.129 44.2764L113.381 44.4469C113.367 44.2054 113.3 43.99 113.182 43.8006C113.068 43.6064 112.9 43.4525 112.678 43.3389C112.46 43.2253 112.185 43.1685 111.854 43.1685C111.357 43.1685 110.914 43.2821 110.526 43.5094C110.137 43.7366 109.917 44.0278 109.865 44.3829C109.822 44.6102 109.882 44.802 110.043 44.9582C110.204 45.1145 110.528 45.2471 111.016 45.356L112.933 45.7537C113.956 45.9715 114.695 46.3337 115.149 46.8403C115.608 47.347 115.772 48.0098 115.639 48.829C115.521 49.525 115.215 50.1334 114.723 50.6543C114.231 51.1704 113.606 51.5728 112.848 51.8616C112.09 52.1457 111.25 52.2878 110.327 52.2878C108.845 52.2878 107.718 51.9847 106.946 51.3787C106.174 50.7726 105.803 49.9511 105.831 48.9142L108.786 48.7579C108.809 49.203 108.965 49.5392 109.254 49.7665C109.543 49.989 109.938 50.1026 110.44 50.1074C111.004 50.1168 111.482 50.0008 111.875 49.7594C112.273 49.5132 112.498 49.2149 112.55 48.8645C112.588 48.6183 112.517 48.4194 112.337 48.2679C112.162 48.1164 111.84 47.9909 111.371 47.8915L109.553 47.515C108.52 47.302 107.779 46.9208 107.33 46.3716C106.88 45.8223 106.726 45.1239 106.868 44.2764C106.982 43.5993 107.263 43.0193 107.713 42.5364C108.168 42.0487 108.752 41.6746 109.467 41.4142C110.187 41.1538 110.999 41.0236 111.903 41.0236C113.319 41.0236 114.385 41.3148 115.099 41.8971C115.819 42.4795 116.162 43.2726 116.129 44.2764Z" fill="black"/>
<path d="M48.0256 18.6216V19.6216H48.9871L49.0248 18.6609L48.0256 18.6216ZM44.9574 18.6216L43.9577 18.5983L43.9339 19.6216H44.9574V18.6216ZM44.8012 17.542L43.8597 17.8793L43.8614 17.8838L44.8012 17.542ZM44.2898 16.7324L43.5827 17.4395L43.5902 17.4469L44.2898 16.7324ZM43.4731 16.2281L43.128 17.1668L43.1402 17.1711L43.4731 16.2281ZM40.2486 16.6329L40.7622 17.491L40.2486 16.6329ZM38.608 18.3233L39.4631 18.8418L39.4645 18.8394L38.608 18.3233ZM37.6847 20.9866L38.6714 21.1495L38.6716 21.1481L37.6847 20.9866ZM37.7131 23.5079L38.6779 23.2448V23.2448L37.7131 23.5079ZM38.6932 25.042L38.0997 25.8469L38.1089 25.8536L38.6932 25.042ZM41.7046 25.39L41.9717 26.3538L41.9824 26.3507L41.7046 25.39ZM42.777 24.9071L43.3203 25.7467L43.3233 25.7447L42.777 24.9071ZM43.6293 24.1329L42.8532 23.5023L42.8472 23.5097L43.6293 24.1329ZM44.2046 23.1031V22.1031H43.5005L43.2631 22.766L44.2046 23.1031ZM47.2941 23.1031L48.2543 23.3823L48.6263 22.1031H47.2941V23.1031ZM46.385 25.0349L45.5519 24.4817L45.549 24.4861L46.385 25.0349ZM44.8722 26.6969L45.4984 27.4765L45.5021 27.4735L44.8722 26.6969ZM42.8196 27.8474L42.4723 26.9097H42.4723L42.8196 27.8474ZM36.8964 27.3645L36.3554 28.2055L36.3573 28.2068L36.8964 27.3645ZM34.858 24.7437L33.9187 25.0867V25.0867L34.858 24.7437ZM34.6236 20.6173L33.6373 20.4524L33.6365 20.4576L34.6236 20.6173ZM36.1506 16.6543L35.3314 16.0808L35.3309 16.0815L36.1506 16.6543ZM38.9276 14.1756L38.4696 13.2866L38.4681 13.2874L38.9276 14.1756ZM46.5768 14.7224L45.8984 15.4573L45.9058 15.464L46.5768 14.7224ZM47.6989 16.3773L46.7654 16.7358V16.7358L47.6989 16.3773ZM48.0256 17.6216H44.9574V19.6216H48.0256V17.6216ZM45.9572 18.6448C45.9689 18.1404 45.9055 17.6527 45.741 17.2003L43.8614 17.8838C43.9242 18.0564 43.9649 18.2884 43.9577 18.5983L45.9572 18.6448ZM45.7426 17.2048C45.5811 16.7538 45.3312 16.3525 44.9894 16.0179L43.5902 17.4469C43.703 17.5573 43.794 17.6958 43.8598 17.8793L45.7426 17.2048ZM44.9969 16.0253C44.6601 15.6884 44.2565 15.4442 43.8059 15.2851L43.1402 17.1711C43.3335 17.2393 43.4745 17.3313 43.5827 17.4395L44.9969 16.0253ZM43.8181 15.2895C43.3683 15.1242 42.8866 15.0506 42.3864 15.0506V17.0506C42.6911 17.0506 42.9338 17.0953 43.128 17.1667L43.8181 15.2895ZM42.3864 15.0506C41.4342 15.0506 40.5433 15.2911 39.7351 15.7749L40.7622 17.491C41.2513 17.1982 41.7856 17.0506 42.3864 17.0506V15.0506ZM39.7351 15.7749C38.9271 16.2585 38.2691 16.9481 37.7515 17.8072L39.4645 18.8394C39.837 18.2212 40.2728 17.7839 40.7622 17.491L39.7351 15.7749ZM37.753 17.8047C37.2281 18.6701 36.8844 19.6853 36.6978 20.8252L38.6716 21.1481C38.826 20.2047 39.0977 19.4443 39.4631 18.8418L37.753 17.8047ZM36.6981 20.8237C36.5186 21.9106 36.5128 22.9073 36.7484 23.7711L38.6779 23.2448C38.5441 22.7544 38.5193 22.0703 38.6713 21.1495L36.6981 20.8237ZM36.7484 23.7711C36.9797 24.6193 37.4148 25.3418 38.0998 25.8469L39.2867 24.2372C39.0342 24.051 38.8159 23.7507 38.6779 23.2448L36.7484 23.7711ZM38.1089 25.8536C38.7857 26.3408 39.5913 26.5534 40.4617 26.5534V24.5534C39.9211 24.5534 39.5478 24.4251 39.2775 24.2305L38.1089 25.8536ZM40.4617 26.5534C40.9814 26.5534 41.486 26.4883 41.9716 26.3537L41.4375 24.4264C41.1372 24.5096 40.8132 24.5534 40.4617 24.5534V26.5534ZM41.9824 26.3507C42.463 26.2117 42.9109 26.0115 43.3203 25.7467L42.2338 24.0675C41.9992 24.2193 41.7321 24.3411 41.4268 24.4294L41.9824 26.3507ZM43.3233 25.7447C43.739 25.4736 44.1028 25.1434 44.4114 24.7561L42.8472 23.5097C42.6728 23.7286 42.4685 23.9144 42.2308 24.0695L43.3233 25.7447ZM44.4054 24.7635C44.726 24.369 44.9723 23.9255 45.1461 23.4402L43.2631 22.766C43.1623 23.0477 43.025 23.2909 42.8532 23.5024L44.4054 24.7635ZM44.2046 24.1031H47.2941V22.1031H44.2046V24.1031ZM46.3339 22.8239C46.1699 23.3876 45.9118 23.9398 45.552 24.4817L47.218 25.5882C47.682 24.8895 48.03 24.1539 48.2543 23.3823L46.3339 22.8239ZM45.549 24.4861C45.2008 25.0166 44.7671 25.4946 44.2423 25.9202L45.5021 27.4735C46.1799 26.9238 46.7548 26.2938 47.2209 25.5837L45.549 24.4861ZM44.246 25.9172C43.7335 26.3288 43.1447 26.6607 42.4723 26.9097L43.167 28.7852C44.0287 28.466 44.8083 28.0308 45.4984 27.4765L44.246 25.9172ZM42.4723 26.9097C41.8287 27.1481 41.1074 27.2736 40.2983 27.2736V29.2736C41.3169 29.2736 42.2765 29.115 43.167 28.7852L42.4723 26.9097ZM40.2983 27.2736C39.1344 27.2736 38.195 27.0084 37.4354 26.5222L36.3573 28.2068C37.4916 28.9327 38.8203 29.2736 40.2983 29.2736V27.2736ZM37.4373 26.5234C36.6945 26.0456 36.1458 25.3551 35.7973 24.4007L33.9187 25.0867C34.4035 26.4145 35.2138 27.4712 36.3554 28.2055L37.4373 26.5234ZM35.7973 24.4007C35.4561 23.4661 35.3687 22.2736 35.6108 20.777L33.6365 20.4576C33.3577 22.1807 33.4266 23.7392 33.9187 25.0867L35.7973 24.4007ZM35.6099 20.7822C35.8505 19.343 36.3129 18.168 36.9704 17.227L35.3309 16.0815C34.4732 17.3091 33.9175 18.7761 33.6373 20.4524L35.6099 20.7822ZM36.9698 17.2277C37.6474 16.2597 38.4536 15.5467 39.3871 15.0637L38.4681 13.2874C37.2236 13.9313 36.1784 14.8707 35.3314 16.0808L36.9698 17.2277ZM39.3856 15.0645C40.3359 14.575 41.3482 14.3304 42.4361 14.3304V12.3304C41.0336 12.3304 39.7068 12.6493 38.4696 13.2866L39.3856 15.0645ZM42.4361 14.3304C43.212 14.3304 43.8852 14.4364 44.4669 14.6329L45.107 12.7381C44.2872 12.4611 43.3932 12.3304 42.4361 12.3304V14.3304ZM44.4669 14.6329C45.0486 14.8294 45.5195 15.1074 45.8985 15.4572L47.255 13.9876C46.6492 13.4284 45.9269 13.0151 45.107 12.7381L44.4669 14.6329ZM45.9058 15.464C46.2815 15.8038 46.5682 16.2222 46.7654 16.7358L48.6324 16.0187C48.3278 15.2255 47.8664 14.5407 47.2477 13.9809L45.9058 15.464ZM46.7654 16.7358C46.9587 17.2392 47.0553 17.8479 47.0264 18.5823L49.0248 18.6609C49.0623 17.7096 48.941 16.8221 48.6324 16.0187L46.7654 16.7358ZM52.7096 21.7679L53.696 21.9323L53.6968 21.9274L52.7096 21.7679ZM51.6584 28.0747V29.0747H52.5056L52.6448 28.2391L51.6584 28.0747ZM48.64 28.0747L47.6535 27.9109L47.4603 29.0747H48.64V28.0747ZM51.0547 13.5293V12.5293H50.2071L50.0682 13.3655L51.0547 13.5293ZM53.988 13.5293L54.9749 13.6906L55.1647 12.5293H53.988V13.5293ZM53.0789 19.0903L52.092 18.929L51.9021 20.0903H53.0789V19.0903ZM53.1996 19.0903V20.0903H53.7939L54.078 19.5683L53.1996 19.0903ZM54.6414 17.5775L55.1539 18.4362L55.1588 18.4333L54.6414 17.5775ZM58.7039 17.5207L58.1564 18.3576L58.1655 18.3634L58.7039 17.5207ZM59.7905 18.9341L58.8455 19.2612L58.8463 19.2635L59.7905 18.9341ZM59.8971 21.1287L60.8833 21.2941L60.8835 21.2931L59.8971 21.1287ZM58.7323 28.0747V29.0747H59.5786L59.7185 28.2401L58.7323 28.0747ZM55.7138 28.0747L54.7274 27.9107L54.5338 29.0747H55.7138V28.0747ZM56.7792 21.6685L57.7656 21.8325L57.7663 21.8283L56.7792 21.6685ZM56.5164 20.0989L55.7151 20.6973L55.72 20.7037L56.5164 20.0989ZM54.0448 19.8006L53.5927 18.9086L53.5927 18.9086L54.0448 19.8006ZM53.1712 20.5676L52.3536 19.9918L52.352 19.9941L53.1712 20.5676ZM51.7232 21.6035L50.672 27.9103L52.6448 28.2391L53.696 21.9323L51.7232 21.6035ZM51.6584 27.0747H48.64V29.0747H51.6584V27.0747ZM49.6265 28.2385L52.0412 13.693L50.0682 13.3655L47.6535 27.9109L49.6265 28.2385ZM51.0547 14.5293H53.988V12.5293H51.0547V14.5293ZM53.0011 13.3679L52.092 18.929L54.0658 19.2517L54.9749 13.6906L53.0011 13.3679ZM53.0789 20.0903H53.1996V18.0903H53.0789V20.0903ZM54.078 19.5683C54.3455 19.0767 54.7018 18.7061 55.1539 18.4362L54.1288 16.7189C53.3593 17.1782 52.7545 17.8161 52.3212 18.6124L54.078 19.5683ZM55.1588 18.4333C55.589 18.1732 56.1257 18.0236 56.8076 18.0236V16.0236C55.8228 16.0236 54.9154 16.2433 54.124 16.7218L55.1588 18.4333ZM56.8076 18.0236C57.4195 18.0236 57.8491 18.1565 58.1564 18.3576L59.2513 16.6839C58.5454 16.2221 57.7108 16.0236 56.8076 16.0236V18.0236ZM58.1655 18.3634C58.4728 18.5597 58.7003 18.8417 58.8455 19.2612L60.7355 18.607C60.4546 17.7954 59.9577 17.1351 59.2423 16.678L58.1655 18.3634ZM58.8463 19.2635C58.9887 19.6715 59.034 20.2241 58.9107 20.9643L60.8835 21.2931C61.0442 20.3287 61.0185 19.4183 60.7347 18.6047L58.8463 19.2635ZM58.9108 20.9633L57.7461 27.9093L59.7185 28.2401L60.8833 21.2941L58.9108 20.9633ZM58.7323 27.0747H55.7138V29.0747H58.7323V27.0747ZM56.7003 28.2388L57.7656 21.8325L55.7927 21.5044L54.7274 27.9107L56.7003 28.2388ZM57.7663 21.8283C57.8991 21.0085 57.825 20.1685 57.3127 19.494L55.72 20.7037C55.7759 20.7773 55.877 20.9837 55.792 21.5086L57.7663 21.8283ZM57.3176 19.5005C56.7938 18.7992 56.0011 18.5378 55.1812 18.5378V20.5378C55.5828 20.5378 55.6802 20.6504 55.7152 20.6972L57.3176 19.5005ZM55.1812 18.5378C54.6223 18.5378 54.0873 18.6579 53.5927 18.9086L54.4969 20.6925C54.6936 20.5928 54.9162 20.5378 55.1812 20.5378V18.5378ZM53.5927 18.9086C53.0923 19.1622 52.6786 19.5304 52.3536 19.9918L53.9888 21.1434C54.1373 20.9325 54.306 20.7893 54.4969 20.6925L53.5927 18.9086ZM52.352 19.9941C52.0197 20.4688 51.818 21.0164 51.7224 21.6083L53.6968 21.9274C53.7526 21.5819 53.8587 21.3293 53.9904 21.1411L52.352 19.9941ZM62.3846 27.9185L61.9442 28.8163L61.9544 28.8212L62.3846 27.9185ZM61.2767 26.8247L60.3788 27.2649L61.2767 26.8247ZM61.0991 25.0278L60.1136 24.8584L60.1126 24.8645L61.0991 25.0278ZM61.6886 23.5079L60.8742 22.9276L60.873 22.9294L61.6886 23.5079ZM62.7611 22.5136L62.2494 21.6544L62.7611 22.5136ZM64.1602 21.9383L63.9114 20.9698L63.9092 20.9703L64.1602 21.9383ZM65.7582 21.6685L65.8441 22.6648L65.8531 22.664L65.8621 22.663L65.7582 21.6685ZM67.3065 21.4767L67.1553 20.4882L67.1536 20.4885L67.3065 21.4767ZM68.2085 21.2139L68.7046 22.0822L68.7123 22.0777L68.72 22.0732L68.2085 21.2139ZM68.5707 20.6883L69.5543 20.869L69.5707 20.7794V20.6883H68.5707ZM68.5707 20.6457L67.5832 20.4881L67.5707 20.5664V20.6457H68.5707ZM68.3221 19.6088L67.5879 20.2877L67.5945 20.2948L67.6013 20.3019L68.3221 19.6088ZM65.8292 19.5875L65.2992 18.7395L65.2944 18.7425L65.8292 19.5875ZM65.0267 20.4895L64.9445 21.4861L65.6539 21.5446L65.9415 20.8934L65.0267 20.4895ZM62.271 20.2622L61.3336 19.914L60.8743 21.1504L62.1888 21.2588L62.271 20.2622ZM63.3861 18.5435L64.0828 19.2607L64.0829 19.2606L63.3861 18.5435ZM65.1971 17.4213L65.5434 18.3594L65.5489 18.3574L65.1971 17.4213ZM69.2667 17.2366L69.0058 18.202L69.008 18.2026L69.2667 17.2366ZM70.6375 17.8972L70.0235 18.6865L70.0282 18.6901L70.6375 17.8972ZM71.4755 19.0477L70.5357 19.3895L70.54 19.4009L71.4755 19.0477ZM71.5821 20.7168L72.5684 20.8815L72.5694 20.8753L71.5821 20.7168ZM70.3534 28.0747V29.0747H71.2002L71.3397 28.2394L70.3534 28.0747ZM67.4841 28.0747L66.4981 27.9081L66.3009 29.0747H67.4841V28.0747ZM67.7397 26.5619L68.7258 26.7286L68.9229 25.5619H67.7397V26.5619ZM67.6545 26.5619V25.5619H67.1255L66.8278 25.9993L67.6545 26.5619ZM66.8022 27.4639L67.4076 28.2599L67.4146 28.2545L66.8022 27.4639ZM65.6446 28.0676L65.9546 29.0184L65.9639 29.0153L65.6446 28.0676ZM66.6105 25.9298L67.0391 26.8333L67.044 26.831L66.6105 25.9298ZM67.5338 25.2054L66.7576 24.5748L66.7517 24.5822L67.5338 25.2054ZM68.0025 24.1756L68.988 24.3459L68.99 24.3331L68.0025 24.1756ZM68.1872 23.0179L69.1747 23.1754L69.5292 20.9529L67.6422 22.1794L68.1872 23.0179ZM67.7753 23.1812L67.5208 22.2141L67.5144 22.2159L67.7753 23.1812ZM67.2 23.3162L67.3829 24.2993L67.3916 24.2977L67.4004 24.2959L67.2 23.3162ZM66.5821 23.4227L66.7172 24.4135L66.7282 24.412L66.7392 24.4103L66.5821 23.4227ZM66.021 23.5079L66.1624 24.4979L66.1762 24.4959L66.19 24.4936L66.021 23.5079ZM65.0409 23.7565L65.407 24.6871L65.0409 23.7565ZM64.3378 24.2182L65.0628 24.907L65.0712 24.8979L64.3378 24.2182ZM64.004 24.9284L64.9913 25.0873L64.9929 25.0767L64.004 24.9284ZM64.2951 25.873L63.6536 26.6401L63.6611 26.6464L63.6688 26.6525L64.2951 25.873ZM64.1815 27.2807C63.6053 27.2807 63.1597 27.1801 62.8149 27.0158L61.9544 28.8212C62.6229 29.1398 63.3751 29.2807 64.1815 29.2807V27.2807ZM62.8251 27.0207C62.5137 26.8679 62.3097 26.6602 62.1746 26.3846L60.3788 27.2649C60.7171 27.9551 61.2517 28.4765 61.9442 28.8162L62.8251 27.0207ZM62.1746 26.3846C62.0565 26.1437 61.9897 25.7709 62.0857 25.1912L60.1126 24.8645C59.9718 25.7147 60.0233 26.5398 60.3788 27.2649L62.1746 26.3846ZM62.0847 25.1972C62.1693 24.7051 62.3196 24.3468 62.5043 24.0865L60.873 22.9294C60.4799 23.4835 60.2373 24.1384 60.1136 24.8584L62.0847 25.1972ZM62.503 24.0883C62.7186 23.7857 62.9742 23.5506 63.2727 23.3728L62.2494 21.6544C61.7051 21.9786 61.2457 22.4064 60.8742 22.9276L62.503 24.0883ZM63.2727 23.3728C63.6068 23.1739 63.9844 23.017 64.4112 22.9063L63.9092 20.9703C63.3133 21.1248 62.7581 21.3515 62.2494 21.6544L63.2727 23.3728ZM64.409 22.9069C64.8698 22.7885 65.3479 22.7075 65.8441 22.6648L65.6723 20.6722C65.07 20.7241 64.4828 20.823 63.9114 20.9698L64.409 22.9069ZM65.8621 22.663C66.5047 22.5959 67.0389 22.53 67.4594 22.4649L67.1536 20.4885C66.7787 20.5465 66.2806 20.6084 65.6543 20.6739L65.8621 22.663ZM67.4577 22.4652C67.9022 22.3972 68.3465 22.2868 68.7046 22.0822L67.7124 20.3457C67.6727 20.3683 67.5158 20.4331 67.1553 20.4882L67.4577 22.4652ZM68.72 22.0732C69.1721 21.8041 69.4607 21.3784 69.5543 20.869L67.5872 20.5077C67.5886 20.5001 67.5968 20.4669 67.6248 20.4263C67.6531 20.3852 67.6837 20.3626 67.697 20.3546L68.72 22.0732ZM69.5707 20.6883V20.6457H67.5707V20.6883H69.5707ZM69.5582 20.8033C69.6615 20.1561 69.5629 19.4564 69.043 18.9157L67.6013 20.3019C67.5988 20.2994 67.5946 20.294 67.5909 20.2872C67.5874 20.2807 67.5877 20.279 67.5894 20.2858C67.5931 20.3014 67.6033 20.3621 67.5832 20.4881L69.5582 20.8033ZM69.0564 18.9299C68.558 18.3909 67.8587 18.2324 67.2071 18.2324V20.2324C67.5782 20.2324 67.6222 20.3248 67.5879 20.2877L69.0564 18.9299ZM67.2071 18.2324C66.5192 18.2324 65.8673 18.3845 65.2992 18.7395L66.3592 20.4355C66.5488 20.317 66.8154 20.2324 67.2071 20.2324V18.2324ZM65.2944 18.7425C64.7721 19.0731 64.3617 19.5197 64.1119 20.0855L65.9415 20.8934C66.0136 20.7301 66.1383 20.5753 66.364 20.4325L65.2944 18.7425ZM65.1089 19.4929L62.3532 19.2656L62.1888 21.2588L64.9445 21.4861L65.1089 19.4929ZM63.2084 20.6104C63.4039 20.084 63.6945 19.6379 64.0828 19.2607L62.6893 17.8262C62.0832 18.4149 61.6305 19.1147 61.3336 19.914L63.2084 20.6104ZM64.0829 19.2606C64.4774 18.8774 64.959 18.5751 65.5434 18.3594L64.8508 16.4832C64.0243 16.7883 63.2985 17.2342 62.6892 17.8263L64.0829 19.2606ZM65.5489 18.3574C66.1253 18.1407 66.7943 18.0236 67.5693 18.0236V16.0236C66.5924 16.0236 65.6799 16.1715 64.8453 16.4852L65.5489 18.3574ZM67.5693 18.0236C68.0971 18.0236 68.5743 18.0854 69.0058 18.202L69.5276 16.2713C68.908 16.1038 68.2536 16.0236 67.5693 16.0236V18.0236ZM69.008 18.2026C69.426 18.3146 69.7583 18.4802 70.0235 18.6865L71.2514 17.1078C70.7496 16.7175 70.1681 16.4428 69.5255 16.2707L69.008 18.2026ZM70.0282 18.6901C70.2627 18.8702 70.429 19.096 70.5358 19.3895L72.4153 18.706C72.1812 18.062 71.7888 17.5206 71.2467 17.1042L70.0282 18.6901ZM70.54 19.4009C70.6368 19.6572 70.6799 20.0276 70.5947 20.5582L72.5694 20.8753C72.6926 20.1086 72.6647 19.3663 72.4111 18.6945L70.54 19.4009ZM70.5957 20.552L69.367 27.91L71.3397 28.2394L72.5684 20.8815L70.5957 20.552ZM70.3534 27.0747H67.4841V29.0747H70.3534V27.0747ZM68.4701 28.2414L68.7258 26.7286L66.7537 26.3953L66.4981 27.9081L68.4701 28.2414ZM67.7397 25.5619H67.6545V27.5619H67.7397V25.5619ZM66.8278 25.9993C66.6567 26.2508 66.4457 26.4752 66.1898 26.6734L67.4146 28.2545C67.8312 27.9318 68.1884 27.5549 68.4812 27.1245L66.8278 25.9993ZM66.1969 26.668C65.9545 26.8523 65.667 27.0048 65.3253 27.12L65.9639 29.0153C66.4934 28.8368 66.9777 28.5869 67.4076 28.2599L66.1969 26.668ZM65.3346 27.1169C65.015 27.2211 64.6343 27.2807 64.1815 27.2807V29.2807C64.8083 29.2807 65.4029 29.1982 65.9546 29.0183L65.3346 27.1169ZM65.396 27.1926C65.9729 27.1926 66.5257 27.0769 67.0391 26.8333L66.1819 25.0263C65.9567 25.1332 65.6997 25.1926 65.396 25.1926V27.1926ZM67.044 26.831C67.5438 26.5906 67.974 26.2576 68.3158 25.8286L66.7517 24.5822C66.6106 24.7592 66.4253 24.9092 66.177 25.0287L67.044 26.831ZM68.3099 25.836C68.6638 25.4004 68.8924 24.8988 68.9879 24.3459L67.0171 24.0052C66.9801 24.2194 66.8962 24.4043 66.7577 24.5748L68.3099 25.836ZM68.99 24.3331L69.1747 23.1754L67.1997 22.8604L67.015 24.018L68.99 24.3331ZM67.6422 22.1794C67.6644 22.165 67.6692 22.1655 67.6446 22.1753C67.6213 22.1846 67.5814 22.1982 67.5208 22.2142L68.0298 24.1483C68.2551 24.089 68.5091 24.0014 68.7322 23.8563L67.6422 22.1794ZM67.5144 22.2159C67.3622 22.257 67.1909 22.2973 66.9996 22.3365L67.4004 24.2959C67.6257 24.2498 67.8379 24.2002 68.0362 24.1466L67.5144 22.2159ZM67.0171 22.3331C66.8222 22.3693 66.6248 22.4033 66.425 22.4351L66.7392 24.4103C66.956 24.3758 67.1705 24.3388 67.3829 24.2993L67.0171 22.3331ZM66.447 22.4319C66.23 22.4615 66.0314 22.4916 65.852 22.5223L66.19 24.4936C66.3421 24.4675 66.5175 24.4408 66.7172 24.4135L66.447 22.4319ZM65.8796 22.518C65.4519 22.5791 65.0479 22.6792 64.6748 22.826L65.407 24.6871C65.6116 24.6066 65.861 24.541 66.1624 24.4979L65.8796 22.518ZM64.6748 22.826C64.2702 22.9851 63.9025 23.2167 63.6043 23.5384L65.0712 24.8979C65.1329 24.8314 65.2339 24.7552 65.407 24.6871L64.6748 22.826ZM63.6128 23.5294C63.2774 23.8824 63.0849 24.3142 63.015 24.7801L64.9929 25.0767C65.0082 24.9744 65.0382 24.9327 65.0628 24.9069L63.6128 23.5294ZM63.0167 24.7695C62.9093 25.4367 63.0577 26.1417 63.6536 26.6401L64.9367 25.1059C64.9399 25.1086 64.9498 25.1178 64.9608 25.1342C64.9719 25.1508 64.979 25.167 64.9827 25.1789C64.9898 25.202 64.9762 25.1809 64.9912 25.0873L63.0167 24.7695ZM63.6688 26.6525C64.1682 27.0538 64.7847 27.1926 65.396 27.1926V25.1926C65.0698 25.1926 64.9524 25.1183 64.9215 25.0935L63.6688 26.6525ZM72.7007 28.0747L71.7143 27.9103L71.5202 29.0747H72.7007V28.0747ZM74.5189 17.1656V16.1656H73.6717L73.5325 17.0012L74.5189 17.1656ZM77.4521 17.1656L78.4383 17.3312L78.634 16.1656H77.4521V17.1656ZM77.1325 19.069L76.1463 18.9034L75.9506 20.069H77.1325V19.069ZM77.2461 19.069V20.069H77.886L78.1541 19.4881L77.2461 19.069ZM78.5032 17.5349L79.0527 18.3704L79.0545 18.3693L78.5032 17.5349ZM80.6907 17.0378L80.5772 18.0313L80.5924 18.033L80.6077 18.0343L80.6907 17.0378ZM81.1453 17.1088L82.1313 17.2753L82.2854 16.363L81.3878 16.1387L81.1453 17.1088ZM80.6907 19.8006L80.3544 20.7423L81.4781 21.1436L81.6768 19.9671L80.6907 19.8006ZM80.1226 19.6869L79.9866 20.6776L79.9972 20.6791L80.0079 20.6803L80.1226 19.6869ZM78.2049 19.9284L78.6522 20.8229L78.661 20.8183L78.2049 19.9284ZM77.2461 20.7239L76.4514 20.1168L76.4461 20.1239L77.2461 20.7239ZM76.7419 21.9028L75.7578 21.7249L75.7564 21.7327L75.7551 21.7405L76.7419 21.9028ZM75.7262 28.0747V29.0747H76.5751L76.713 28.2371L75.7262 28.0747ZM73.6871 28.2391L75.5053 17.33L73.5325 17.0012L71.7143 27.9103L73.6871 28.2391ZM74.5189 18.1656H77.4521V16.1656H74.5189V18.1656ZM76.4659 17L76.1463 18.9034L78.1187 19.2346L78.4383 17.3312L76.4659 17ZM77.1325 20.069H77.2461V18.069H77.1325V20.069ZM78.1541 19.4881C78.403 18.9487 78.7101 18.5958 79.0527 18.3704L77.9538 16.6994C77.2453 17.1654 76.7143 17.8351 76.3382 18.65L78.1541 19.4881ZM79.0545 18.3693C79.4283 18.1223 79.8084 18.0094 80.2149 18.0094V16.0094C79.3998 16.0094 78.6388 16.2468 77.952 16.7006L79.0545 18.3693ZM80.2149 18.0094C80.3249 18.0094 80.4455 18.0163 80.5772 18.0313L80.8043 16.0442C80.6046 16.0214 80.4079 16.0094 80.2149 16.0094V18.0094ZM80.6077 18.0343C80.7371 18.0451 80.8336 18.0617 80.9028 18.0789L81.3878 16.1387C81.1918 16.0896 80.9853 16.0589 80.7738 16.0412L80.6077 18.0343ZM80.1592 16.9423L79.7047 19.6341L81.6768 19.9671L82.1313 17.2753L80.1592 16.9423ZM81.0271 18.8588C80.7884 18.7736 80.5112 18.7251 80.2372 18.6935L80.0079 20.6803C80.2264 20.7055 80.3279 20.7328 80.3544 20.7423L81.0271 18.8588ZM80.2585 18.6962C79.9772 18.6576 79.7019 18.6372 79.4336 18.6372V20.6372C79.601 20.6372 79.7849 20.65 79.9866 20.6776L80.2585 18.6962ZM79.4336 18.6372C78.8404 18.6372 78.2738 18.7695 77.7489 19.0385L78.661 20.8183C78.8937 20.6991 79.1462 20.6372 79.4336 20.6372V18.6372ZM77.7577 19.034C77.2409 19.2924 76.8031 19.6565 76.4515 20.1168L78.0408 21.3309C78.21 21.1094 78.4114 20.9432 78.6522 20.8228L77.7577 19.034ZM76.4461 20.1239C76.0914 20.5968 75.8643 21.1364 75.7578 21.7249L77.7259 22.0808C77.7805 21.7792 77.8895 21.5327 78.0461 21.3239L76.4461 20.1239ZM75.7551 21.7405L74.7395 27.9123L76.713 28.2371L77.7286 22.0652L75.7551 21.7405ZM75.7262 27.0747H72.7007V29.0747H75.7262V27.0747ZM81.8573 27.9185L81.4168 28.8163L81.427 28.8212L81.8573 27.9185ZM80.7493 26.8247L79.8514 27.2649L80.7493 26.8247ZM80.5718 25.0278L79.5862 24.8584L79.5852 24.8645L80.5718 25.0278ZM81.1613 23.5079L80.3469 22.9276L80.3456 22.9294L81.1613 23.5079ZM82.2337 22.5136L81.7221 21.6544H81.7221L82.2337 22.5136ZM83.6329 21.9383L83.3841 20.9698L83.3819 20.9703L83.6329 21.9383ZM85.2309 21.6685L85.3168 22.6648L85.3258 22.664L85.3348 22.663L85.2309 21.6685ZM86.7792 21.4767L86.628 20.4882L86.6262 20.4885L86.7792 21.4767ZM87.6812 21.2139L88.1773 22.0822L88.185 22.0777L88.1926 22.0732L87.6812 21.2139ZM88.0434 20.6883L89.0269 20.869L89.0434 20.7794V20.6883H88.0434ZM88.0434 20.6457L87.0559 20.4881L87.0434 20.5664V20.6457H88.0434ZM87.7948 19.6088L87.0605 20.2877L87.0672 20.2948L87.074 20.3019L87.7948 19.6088ZM85.3019 19.5875L84.7719 18.7395L84.7671 18.7425L85.3019 19.5875ZM84.4993 20.4895L84.4171 21.4861L85.1266 21.5446L85.4141 20.8934L84.4993 20.4895ZM81.7437 20.2622L80.8062 19.914L80.347 21.1504L81.6615 21.2588L81.7437 20.2622ZM82.8587 18.5435L83.5555 19.2607L83.5556 19.2606L82.8587 18.5435ZM84.6698 17.4213L85.0161 18.3594L85.0216 18.3574L84.6698 17.4213ZM88.7394 17.2366L88.4785 18.202L88.4807 18.2026L88.7394 17.2366ZM90.1101 17.8972L89.4962 18.6865L89.5009 18.6901L90.1101 17.8972ZM90.9482 19.0477L90.0083 19.3895L90.0127 19.4009L90.9482 19.0477ZM91.0547 20.7168L92.0411 20.8815L92.0421 20.8753L91.0547 20.7168ZM89.826 28.0747V29.0747H90.6729L90.8124 28.2394L89.826 28.0747ZM86.9567 28.0747L85.9707 27.9081L85.7735 29.0747H86.9567V28.0747ZM87.2124 26.5619L88.1984 26.7286L88.3956 25.5619H87.2124V26.5619ZM87.1272 26.5619V25.5619H86.5981L86.3005 25.9993L87.1272 26.5619ZM86.2749 27.4639L86.8803 28.2599L86.8873 28.2545L86.2749 27.4639ZM85.1172 28.0676L85.4273 29.0184L85.4365 29.0153L85.1172 28.0676ZM86.0831 25.9298L86.5117 26.8333L86.5166 26.831L86.0831 25.9298ZM87.0064 25.2054L86.2303 24.5748L86.2244 24.5822L87.0064 25.2054ZM87.4752 24.1756L88.4607 24.3459L88.4627 24.3331L87.4752 24.1756ZM87.6598 23.0179L88.6474 23.1754L89.0019 20.9529L87.1149 22.1794L87.6598 23.0179ZM87.2479 23.1812L86.9934 22.2141L86.987 22.2159L87.2479 23.1812ZM86.6726 23.3162L86.8555 24.2993L86.8643 24.2977L86.873 24.2959L86.6726 23.3162ZM86.0547 23.4227L86.1898 24.4135L86.2009 24.412L86.2118 24.4103L86.0547 23.4227ZM85.4937 23.5079L85.6351 24.4979L85.6489 24.4959L85.6626 24.4936L85.4937 23.5079ZM84.5135 23.7565L84.8797 24.6871L84.5135 23.7565ZM83.8104 24.2182L84.5355 24.907L84.5438 24.8979L83.8104 24.2182ZM83.4766 24.9284L84.464 25.0873L84.4655 25.0767L83.4766 24.9284ZM83.7678 25.873L83.1262 26.6401L83.1338 26.6464L83.1414 26.6525L83.7678 25.873ZM83.6542 27.2807C83.078 27.2807 82.6323 27.1801 82.2876 27.0158L81.427 28.8212C82.0955 29.1398 82.8478 29.2807 83.6542 29.2807V27.2807ZM82.2977 27.0207C81.9864 26.8679 81.7824 26.6602 81.6473 26.3846L79.8514 27.2649C80.1898 27.9551 80.7244 28.4765 81.4169 28.8162L82.2977 27.0207ZM81.6473 26.3846C81.5292 26.1437 81.4624 25.7709 81.5583 25.1912L79.5852 24.8645C79.4444 25.7147 79.496 26.5398 79.8514 27.2649L81.6473 26.3846ZM81.5573 25.1972C81.6419 24.7051 81.7923 24.3468 81.9769 24.0865L80.3456 22.9294C79.9526 23.4835 79.71 24.1384 79.5862 24.8584L81.5573 25.1972ZM81.9756 24.0883C82.1913 23.7857 82.4469 23.5506 82.7454 23.3728L81.7221 21.6544C81.1777 21.9786 80.7184 22.4064 80.3469 22.9276L81.9756 24.0883ZM82.7454 23.3728C83.0794 23.1739 83.457 23.017 83.8838 22.9063L83.3819 20.9703C82.786 21.1248 82.2308 21.3515 81.7221 21.6544L82.7454 23.3728ZM83.8817 22.9069C84.3425 22.7885 84.8206 22.7075 85.3168 22.6648L85.145 20.6722C84.5427 20.7241 83.9554 20.823 83.3841 20.9698L83.8817 22.9069ZM85.3348 22.663C85.9774 22.5959 86.5116 22.53 86.9321 22.4649L86.6262 20.4885C86.2513 20.5465 85.7533 20.6084 85.127 20.6739L85.3348 22.663ZM86.9304 22.4652C87.3748 22.3972 87.8192 22.2868 88.1773 22.0822L87.185 20.3457C87.1454 20.3683 86.9884 20.4331 86.628 20.4882L86.9304 22.4652ZM88.1926 22.0732C88.6448 21.8041 88.9333 21.3784 89.0269 20.869L87.0598 20.5077C87.0612 20.5001 87.0694 20.4669 87.0975 20.4263C87.1258 20.3852 87.1563 20.3626 87.1697 20.3546L88.1926 22.0732ZM89.0434 20.6883V20.6457H87.0434V20.6883H89.0434ZM89.0309 20.8033C89.1341 20.1561 89.0355 19.4564 88.5156 18.9157L87.074 20.3019C87.0715 20.2994 87.0672 20.294 87.0636 20.2872C87.0601 20.2807 87.0604 20.279 87.062 20.2858C87.0658 20.3014 87.076 20.3621 87.0559 20.4881L89.0309 20.8033ZM88.5291 18.9299C88.0307 18.3909 87.3314 18.2324 86.6797 18.2324V20.2324C87.0508 20.2324 87.0949 20.3248 87.0605 20.2877L88.5291 18.9299ZM86.6797 18.2324C85.9918 18.2324 85.3399 18.3845 84.7719 18.7395L85.8319 20.4355C86.0214 20.317 86.2881 20.2324 86.6797 20.2324V18.2324ZM84.7671 18.7425C84.2447 19.0731 83.8344 19.5197 83.5845 20.0855L85.4141 20.8934C85.4862 20.7301 85.6109 20.5753 85.8367 20.4325L84.7671 18.7425ZM84.5815 19.4929L81.8259 19.2656L81.6615 21.2588L84.4171 21.4861L84.5815 19.4929ZM82.6811 20.6104C82.8766 20.084 83.1672 19.6379 83.5555 19.2607L82.1619 17.8262C81.5559 18.4149 81.1031 19.1147 80.8062 19.914L82.6811 20.6104ZM83.5556 19.2606C83.95 18.8774 84.4317 18.5751 85.0161 18.3594L84.3235 16.4832C83.4969 16.7883 82.7712 17.2342 82.1618 17.8263L83.5556 19.2606ZM85.0216 18.3574C85.598 18.1407 86.267 18.0236 87.0419 18.0236V16.0236C86.065 16.0236 85.1526 16.1715 84.318 16.4852L85.0216 18.3574ZM87.0419 18.0236C87.5697 18.0236 88.047 18.0854 88.4785 18.202L89.0003 16.2713C88.3807 16.1038 87.7263 16.0236 87.0419 16.0236V18.0236ZM88.4807 18.2026C88.8987 18.3146 89.2309 18.4802 89.4962 18.6865L90.7241 17.1078C90.2223 16.7175 89.6407 16.4428 88.9981 16.2707L88.4807 18.2026ZM89.5009 18.6901C89.7353 18.8702 89.9017 19.096 90.0084 19.3895L91.888 18.706C91.6538 18.062 91.2615 17.5206 90.7194 17.1042L89.5009 18.6901ZM90.0127 19.4009C90.1094 19.6572 90.1526 20.0276 90.0674 20.5582L92.0421 20.8753C92.1652 20.1086 92.1374 19.3663 91.8837 18.6945L90.0127 19.4009ZM90.0684 20.552L88.8397 27.91L90.8124 28.2394L92.0411 20.8815L90.0684 20.552ZM89.826 27.0747H86.9567V29.0747H89.826V27.0747ZM87.9427 28.2414L88.1984 26.7286L86.2264 26.3953L85.9707 27.9081L87.9427 28.2414ZM87.2124 25.5619H87.1272V27.5619H87.2124V25.5619ZM86.3005 25.9993C86.1293 26.2508 85.9183 26.4752 85.6625 26.6734L86.8873 28.2545C87.3038 27.9318 87.661 27.5549 87.9539 27.1245L86.3005 25.9993ZM85.6695 26.668C85.4271 26.8523 85.1396 27.0048 84.7979 27.12L85.4365 29.0153C85.966 28.8368 86.4503 28.5869 86.8803 28.2599L85.6695 26.668ZM84.8072 27.1169C84.4877 27.2211 84.1069 27.2807 83.6542 27.2807V29.2807C84.281 29.2807 84.8755 29.1982 85.4273 29.0183L84.8072 27.1169ZM84.8687 27.1926C85.4456 27.1926 85.9983 27.0769 86.5117 26.8333L85.6546 25.0263C85.4293 25.1332 85.1724 25.1926 84.8687 25.1926V27.1926ZM86.5166 26.831C87.0164 26.5906 87.4466 26.2576 87.7885 25.8286L86.2244 24.5822C86.0833 24.7592 85.8979 24.9092 85.6497 25.0287L86.5166 26.831ZM87.7826 25.836C88.1364 25.4004 88.365 24.8988 88.4606 24.3459L86.4898 24.0052C86.4528 24.2194 86.3689 24.4043 86.2303 24.5748L87.7826 25.836ZM88.4627 24.3331L88.6474 23.1754L86.6723 22.8604L86.4877 24.018L88.4627 24.3331ZM87.1149 22.1794C87.1371 22.165 87.1419 22.1655 87.1172 22.1753C87.0939 22.1846 87.0541 22.1982 86.9934 22.2142L87.5024 24.1483C87.7278 24.089 87.9817 24.0014 88.2048 23.8563L87.1149 22.1794ZM86.987 22.2159C86.8349 22.257 86.6636 22.2973 86.4722 22.3365L86.873 24.2959C87.0983 24.2498 87.3106 24.2002 87.5088 24.1466L86.987 22.2159ZM86.4897 22.3331C86.2949 22.3693 86.0975 22.4033 85.8976 22.4351L86.2118 24.4103C86.4286 24.3758 86.6432 24.3388 86.8555 24.2993L86.4897 22.3331ZM85.9196 22.4319C85.7026 22.4615 85.504 22.4916 85.3247 22.5223L85.6626 24.4936C85.8147 24.4675 85.9902 24.4408 86.1898 24.4135L85.9196 22.4319ZM85.3522 22.518C84.9245 22.5791 84.5205 22.6792 84.1474 22.826L84.8797 24.6871C85.0842 24.6066 85.3336 24.541 85.6351 24.4979L85.3522 22.518ZM84.1474 22.826C83.7429 22.9851 83.3751 23.2167 83.077 23.5384L84.5438 24.8979C84.6055 24.8314 84.7066 24.7552 84.8797 24.6871L84.1474 22.826ZM83.0854 23.5294C82.7501 23.8824 82.5575 24.3142 82.4877 24.7801L84.4655 25.0767C84.4809 24.9744 84.5109 24.9327 84.5354 24.9069L83.0854 23.5294ZM82.4893 24.7695C82.382 25.4367 82.5304 26.1417 83.1262 26.6401L84.4094 25.1059C84.4125 25.1086 84.4225 25.1178 84.4335 25.1342C84.4446 25.1508 84.4516 25.167 84.4553 25.1789C84.4624 25.202 84.4488 25.1809 84.4639 25.0873L82.4893 24.7695ZM83.1414 26.6525C83.6408 27.0538 84.2573 27.1926 84.8687 27.1926V25.1926C84.5425 25.1926 84.4251 25.1183 84.3942 25.0935L83.1414 26.6525ZM94.304 27.5775L93.7506 28.4105L93.7569 28.4146L94.304 27.5775ZM92.7912 25.5889L91.8431 25.9067L91.8447 25.9115L92.7912 25.5889ZM92.6421 22.6628L93.6284 22.8279L93.6294 22.8217L92.6421 22.6628ZM93.7714 19.7224L94.5984 20.2846L94.5998 20.2825L93.7714 19.7224ZM95.9518 17.7409L96.4253 18.6217L96.427 18.6208L95.9518 17.7409ZM101.349 17.542L101.814 16.6567V16.6567L101.349 17.542ZM102.798 18.998L103.695 18.5562V18.5562L102.798 18.998ZM103.111 21.1997V22.1997H104L104.104 21.3169L103.111 21.1997ZM100.263 21.1997L99.2629 21.1909L99.254 22.1997H100.263V21.1997ZM99.8438 19.8858L99.08 20.5312V20.5312L99.8438 19.8858ZM97.287 19.765L97.8252 20.6079L97.8277 20.6062L97.287 19.765ZM96.2856 20.8659L95.4162 20.3716L95.4126 20.3781L96.2856 20.8659ZM95.7174 22.6202L96.7043 22.7813L96.705 22.7768L95.7174 22.6202ZM95.7103 24.3957L96.6862 24.1778L95.7103 24.3957ZM96.3353 25.5108L96.9743 24.7416H96.9743L96.3353 25.5108ZM98.4731 25.6812L98.0486 24.7758L98.0431 24.7784L98.4731 25.6812ZM99.2685 25.0633L100.033 25.7075L100.039 25.7009L99.2685 25.0633ZM99.7941 24.0761V23.0761H99.0648L98.8419 23.7705L99.7941 24.0761ZM102.649 24.0761L103.623 24.3018L103.907 23.0761H102.649V24.0761ZM101.591 26.2778L100.815 25.6475L100.812 25.651L101.591 26.2778ZM99.6804 27.7551L100.101 28.6626L99.6804 27.7551ZM97.0739 27.2878C96.0891 27.2878 95.371 27.0803 94.8511 26.7405L93.7569 28.4146C94.6859 29.0218 95.8144 29.2878 97.0739 29.2878V27.2878ZM94.8575 26.7447C94.3285 26.3932 93.9582 25.9132 93.7378 25.2663L91.8447 25.9115C92.2019 26.9597 92.8401 27.8055 93.7506 28.4104L94.8575 26.7447ZM93.7394 25.2711C93.5189 24.6132 93.4641 23.8093 93.6284 22.8279L91.6558 22.4977C91.4508 23.7227 91.4954 24.8695 91.8431 25.9067L93.7394 25.2711ZM93.6294 22.8217C93.7886 21.8327 94.1164 20.9936 94.5984 20.2846L92.9443 19.1603C92.2804 20.1369 91.8554 21.258 91.6548 22.5038L93.6294 22.8217ZM94.5998 20.2825C95.0843 19.5658 95.6905 19.0167 96.4253 18.6217L95.4782 16.8601C94.4516 17.4121 93.6042 18.184 92.9429 19.1624L94.5998 20.2825ZM96.427 18.6208C97.1527 18.2288 97.9811 18.0236 98.9347 18.0236V16.0236C97.6819 16.0236 96.5217 16.2965 95.4765 16.861L96.427 18.6208ZM98.9347 18.0236C99.7686 18.0236 100.404 18.1752 100.885 18.4274L101.814 16.6567C100.978 16.2176 100.004 16.0236 98.9347 16.0236V18.0236ZM100.885 18.4274C101.369 18.6816 101.693 19.0177 101.901 19.4398L103.695 18.5562C103.288 17.7283 102.647 17.0937 101.814 16.6567L100.885 18.4274ZM101.901 19.4398C102.107 19.8571 102.2 20.3893 102.118 21.0825L104.104 21.3169C104.221 20.3245 104.105 19.3889 103.695 18.5562L101.901 19.4398ZM103.111 20.1997H100.263V22.1997H103.111V20.1997ZM101.263 21.2085C101.269 20.4857 101.079 19.7982 100.608 19.2403L99.08 20.5312C99.1768 20.6458 99.266 20.8341 99.2629 21.1909L101.263 21.2085ZM100.608 19.2403C100.088 18.6251 99.3581 18.3815 98.5938 18.3815V20.3815C98.928 20.3815 99.0317 20.4741 99.08 20.5312L100.608 19.2403ZM98.5938 18.3815C97.9288 18.3815 97.3055 18.5643 96.7462 18.9239L97.8277 20.6062C98.0639 20.4544 98.3118 20.3815 98.5938 20.3815V18.3815ZM96.7488 18.9222C96.1948 19.276 95.7559 19.7742 95.4163 20.3716L97.1548 21.3602C97.3644 20.9917 97.5932 20.756 97.8252 20.6079L96.7488 18.9222ZM95.4126 20.3781C95.0727 20.9864 94.8525 21.6893 94.7297 22.4635L96.705 22.7768C96.8 22.178 96.9586 21.7114 97.1585 21.3537L95.4126 20.3781ZM94.7304 22.459C94.6041 23.2331 94.5887 23.9616 94.7343 24.6137L96.6862 24.1778C96.6141 23.8545 96.6034 23.3993 96.7043 22.7813L94.7304 22.459ZM94.7343 24.6137C94.8792 25.2625 95.1796 25.8508 95.6963 26.28L96.9743 24.7416C96.8754 24.6594 96.7591 24.5043 96.6862 24.1778L94.7343 24.6137ZM95.6963 26.28C96.2134 26.7096 96.8399 26.8943 97.5 26.8943V24.8943C97.2227 24.8943 97.0726 24.8233 96.9743 24.7416L95.6963 26.28ZM97.5 26.8943C97.99 26.8943 98.4623 26.7939 98.903 26.5841L98.0431 24.7784C97.8872 24.8526 97.7109 24.8943 97.5 24.8943V26.8943ZM98.8975 26.5867C99.3387 26.3799 99.7181 26.0819 100.033 25.7075L98.5036 24.4192C98.3644 24.5845 98.2135 24.6985 98.0486 24.7758L98.8975 26.5867ZM100.039 25.7009C100.357 25.3163 100.589 24.8708 100.746 24.3818L98.8419 23.7705C98.7527 24.0485 98.6344 24.2611 98.4981 24.4258L100.039 25.7009ZM99.7941 25.0761H102.649V23.0761H99.7941V25.0761ZM101.675 23.8505C101.513 24.5495 101.224 25.1429 100.815 25.6475L102.367 26.9082C102.98 26.1533 103.397 25.2789 103.623 24.3018L101.675 23.8505ZM100.812 25.651C100.406 26.1553 99.8943 26.5541 99.2603 26.8476L100.101 28.6626C101.001 28.2458 101.763 27.6599 102.37 26.9047L100.812 25.651ZM99.2603 26.8476C98.6431 27.1334 97.9209 27.2878 97.0739 27.2878V29.2878C98.1682 29.2878 99.1837 29.0871 100.101 28.6626L99.2603 26.8476ZM111.532 17.1656L112.519 17.329L112.712 16.1656H111.532V17.1656ZM111.156 19.4383V20.4383H112.004L112.143 19.6017L111.156 19.4383ZM104.579 19.4383L103.593 19.2719L103.396 20.4383H104.579V19.4383ZM104.963 17.1656V16.1656H104.117L103.977 16.9992L104.963 17.1656ZM106.88 14.552V13.552H106.032L105.894 14.3889L106.88 14.552ZM109.906 14.552L110.892 14.7159L111.086 13.552H109.906V14.552ZM108.216 24.7224L109.202 24.8895L109.202 24.8864L108.216 24.7224ZM108.237 25.3758L107.306 25.7424L107.31 25.7522L108.237 25.3758ZM108.542 25.6954L108.145 26.6131L108.156 26.6176L108.542 25.6954ZM109.501 25.7523L109.66 26.7395L109.676 26.737L109.691 26.734L109.501 25.7523ZM109.835 25.6883L110.834 25.6379L110.776 24.4945L109.651 24.7055L109.835 25.6883ZM109.949 27.9398L110.241 28.8961L110.987 28.6682L110.947 27.8894L109.949 27.9398ZM109.26 28.1102L109.051 27.1322L109.048 27.1329L109.26 28.1102ZM108.251 28.2239L108.215 27.2245L108.213 27.2246L108.251 28.2239ZM106.376 27.9327L105.97 28.8465L105.977 28.8496L106.376 27.9327ZM105.275 26.8886L106.179 26.4598L105.275 26.8886ZM105.133 25.1202L106.117 25.2973L106.119 25.2903L106.12 25.2833L105.133 25.1202ZM110.546 17.0022L110.169 19.2749L112.143 19.6017L112.519 17.329L110.546 17.0022ZM111.156 18.4383H104.579V20.4383H111.156V18.4383ZM105.565 19.6047L105.949 17.332L103.977 16.9992L103.593 19.2719L105.565 19.6047ZM104.963 18.1656H111.532V16.1656H104.963V18.1656ZM106.88 15.552H109.906V13.552H106.88V15.552ZM108.919 14.388L107.229 24.5585L109.202 24.8864L110.892 14.7159L108.919 14.388ZM107.23 24.5553C107.17 24.905 107.147 25.3368 107.306 25.7424L109.167 25.0093C109.189 25.0641 109.186 25.0894 109.185 25.0627C109.184 25.0371 109.186 24.9817 109.202 24.8895L107.23 24.5553ZM107.31 25.7522C107.464 26.1313 107.748 26.441 108.145 26.613L108.94 24.7779C108.985 24.7975 109.036 24.8304 109.082 24.8785C109.128 24.9258 109.152 24.9713 109.163 24.9995L107.31 25.7522ZM108.156 26.6176C108.454 26.7427 108.767 26.7878 109.068 26.7878V24.7878C108.962 24.7878 108.924 24.7713 108.929 24.7733L108.156 26.6176ZM109.068 26.7878C109.266 26.7878 109.463 26.7713 109.66 26.7395L109.342 24.765C109.245 24.7806 109.154 24.7878 109.068 24.7878V26.7878ZM109.691 26.734C109.837 26.7057 109.946 26.6849 110.019 26.6712L109.651 24.7055C109.572 24.7202 109.458 24.742 109.311 24.7705L109.691 26.734ZM108.836 25.7388L108.95 27.9902L110.947 27.8894L110.834 25.6379L108.836 25.7388ZM109.656 26.9834C109.525 27.0234 109.327 27.0733 109.051 27.1322L109.468 29.0883C109.769 29.024 110.031 28.9603 110.241 28.8961L109.656 26.9834ZM109.048 27.1329C108.837 27.1786 108.562 27.2118 108.215 27.2245L108.288 29.2232C108.717 29.2075 109.114 29.1649 109.471 29.0875L109.048 27.1329ZM108.213 27.2246C107.578 27.249 107.111 27.1621 106.775 27.0157L105.977 28.8496C106.663 29.1483 107.447 29.2555 108.29 29.2231L108.213 27.2246ZM106.782 27.0189C106.471 26.8804 106.29 26.695 106.179 26.4598L104.372 27.3175C104.705 28.0197 105.259 28.5304 105.97 28.8465L106.782 27.0189ZM106.179 26.4598C106.075 26.2405 106.012 25.8802 106.117 25.2973L104.149 24.943C103.998 25.7806 104.031 26.5993 104.372 27.3175L106.179 26.4598ZM106.12 25.2833L107.867 14.7151L105.894 14.3889L104.147 24.9571L106.12 25.2833ZM113.748 27.5775L113.2 28.4138L113.204 28.4162L113.748 27.5775ZM112.207 25.5889L111.262 25.9146L111.264 25.9209L112.207 25.5889ZM112.044 22.6131L113.031 22.7741L113.031 22.772L112.044 22.6131ZM113.166 19.6798L112.338 19.1187L113.166 19.6798ZM115.332 17.7267L115.8 18.6104L115.804 18.6084L115.332 17.7267ZM121.049 17.7409L120.501 18.5771L120.505 18.5796L121.049 17.7409ZM122.591 19.7295L121.647 20.0599V20.0599L122.591 19.7295ZM122.761 22.7054L123.748 22.8691L123.748 22.8664L122.761 22.7054ZM121.625 25.6315L120.799 25.0672L121.625 25.6315ZM119.458 27.5918L119.929 28.4744L119.932 28.4724L119.458 27.5918ZM118.166 25.5108L118.758 26.3166L118.76 26.3154L118.166 25.5108ZM119.153 24.3176L118.267 23.8539L118.265 23.857L119.153 24.3176ZM119.707 22.5989L118.72 22.4357L118.72 22.438L119.707 22.5989ZM119.728 20.9227L118.745 21.1024L118.745 21.1041L119.728 20.9227ZM119.16 19.7579L118.453 20.4651L118.459 20.4709L119.16 19.7579ZM116.625 19.7722L117.212 20.5813L117.219 20.5767L116.625 19.7722ZM115.091 22.6912L114.103 22.5315L114.103 22.5341L115.091 22.6912ZM115.069 24.3673L114.084 24.5379L114.084 24.5395L115.069 24.3673ZM115.63 25.525L114.929 26.2379L114.935 26.2438L115.63 25.525ZM116.511 27.2878C115.538 27.2878 114.82 27.0812 114.293 26.7389L113.204 28.4162C114.135 29.0208 115.259 29.2878 116.511 29.2878V27.2878ZM114.297 26.7413C113.757 26.3872 113.378 25.9044 113.15 25.2569L111.264 25.9209C111.632 26.9685 112.281 27.8114 113.2 28.4138L114.297 26.7413ZM113.153 25.2632C112.926 24.6041 112.866 23.7859 113.031 22.7741L111.057 22.452C110.853 23.7035 110.902 24.8692 111.262 25.9146L113.153 25.2632ZM113.031 22.772C113.19 21.7816 113.517 20.9447 113.994 20.241L112.338 19.1187C111.679 20.0911 111.257 21.2096 111.056 22.4541L113.031 22.772ZM113.994 20.241C114.472 19.5352 115.072 18.9962 115.8 18.6104L114.864 16.843C113.84 17.3852 112.996 18.1483 112.338 19.1187L113.994 20.241ZM115.804 18.6084C116.52 18.2253 117.342 18.0236 118.294 18.0236V16.0236C117.048 16.0236 115.896 16.2906 114.86 16.845L115.804 18.6084ZM118.294 18.0236C119.259 18.0236 119.974 18.2313 120.501 18.5771L121.598 16.9047C120.667 16.2941 119.544 16.0236 118.294 16.0236V18.0236ZM120.505 18.5796C121.041 18.9276 121.419 19.4079 121.647 20.0599L123.534 19.3992C123.166 18.3466 122.516 17.5012 121.594 16.9022L120.505 18.5796ZM121.647 20.0599C121.877 20.7176 121.939 21.534 121.774 22.5443L123.748 22.8664C123.952 21.6135 123.901 20.446 123.534 19.3992L121.647 20.0599ZM121.775 22.5417C121.611 23.5268 121.281 24.3621 120.799 25.0672L122.45 26.1959C123.114 25.2248 123.542 24.1094 123.748 22.8691L121.775 22.5417ZM120.799 25.0672C120.314 25.7768 119.711 26.3202 118.985 26.7111L119.932 28.4724C120.948 27.9258 121.789 27.1624 122.45 26.1959L120.799 25.0672ZM118.988 26.7091C118.277 27.088 117.459 27.2878 116.511 27.2878V29.2878C117.751 29.2878 118.898 29.0235 119.929 28.4744L118.988 26.7091ZM116.809 26.944C117.523 26.944 118.185 26.7379 118.758 26.3166L117.574 24.705C117.361 24.8613 117.119 24.944 116.809 24.944V26.944ZM118.76 26.3154C119.297 25.9188 119.72 25.3961 120.041 24.7782L118.265 23.857C118.065 24.2429 117.83 24.5156 117.572 24.7062L118.76 26.3154ZM120.039 24.7813C120.36 24.1681 120.575 23.4908 120.694 22.7597L118.72 22.438C118.631 22.9853 118.476 23.4538 118.267 23.8539L120.039 24.7813ZM120.694 22.7621C120.812 22.0493 120.828 21.3702 120.712 20.7413L118.745 21.1041C118.809 21.4506 118.811 21.889 118.72 22.4357L120.694 22.7621ZM120.712 20.743C120.594 20.0963 120.329 19.5045 119.861 19.045L118.459 20.4709C118.569 20.5796 118.683 20.7643 118.745 21.1024L120.712 20.743ZM119.867 19.0508C119.353 18.5368 118.684 18.3318 117.988 18.3318V20.3318C118.287 20.3318 118.399 20.4109 118.453 20.4651L119.867 19.0508ZM117.988 18.3318C117.271 18.3318 116.607 18.5425 116.031 18.9676L117.219 20.5767C117.438 20.4147 117.683 20.3318 117.988 20.3318V18.3318ZM116.037 18.963C115.494 19.3575 115.069 19.8844 114.748 20.5082L116.527 21.4225C116.727 21.0331 116.96 20.7645 117.212 20.5813L116.037 18.963ZM114.748 20.5082C114.433 21.1206 114.222 21.7987 114.103 22.5315L116.078 22.8509C116.168 22.2958 116.321 21.8233 116.527 21.4225L114.748 20.5082ZM114.103 22.5341C113.991 23.2401 113.976 23.9126 114.084 24.5379L116.055 24.1968C115.992 23.8372 115.992 23.3923 116.078 22.8483L114.103 22.5341ZM114.084 24.5395C114.197 25.1862 114.461 25.7777 114.929 26.2379L116.332 24.8121C116.222 24.7041 116.112 24.5238 116.054 24.1952L114.084 24.5395ZM114.935 26.2438C115.452 26.7441 116.118 26.944 116.809 26.944V24.944C116.507 24.944 116.386 24.8646 116.326 24.8062L114.935 26.2438ZM123.833 28.0747L122.847 27.9103L122.653 29.0747H123.833V28.0747ZM125.652 17.1656V16.1656H124.805L124.665 17.0012L125.652 17.1656ZM128.585 17.1656L129.571 17.3312L129.767 16.1656H128.585V17.1656ZM128.265 19.069L127.279 18.9034L127.083 20.069H128.265V19.069ZM128.379 19.069V20.069H129.019L129.287 19.4881L128.379 19.069ZM129.636 17.5349L130.186 18.3704L130.187 18.3693L129.636 17.5349ZM131.824 17.0378L131.71 18.0313L131.725 18.033L131.741 18.0343L131.824 17.0378ZM132.278 17.1088L133.264 17.2753L133.418 16.363L132.521 16.1387L132.278 17.1088ZM131.824 19.8006L131.487 20.7423L132.611 21.1436L132.81 19.9671L131.824 19.8006ZM131.255 19.6869L131.119 20.6776L131.13 20.6791L131.141 20.6803L131.255 19.6869ZM129.338 19.9284L129.785 20.8229L129.794 20.8183L129.338 19.9284ZM128.379 20.7239L127.584 20.1168L127.579 20.1239L128.379 20.7239ZM127.875 21.9028L126.891 21.7249L126.889 21.7327L126.888 21.7405L127.875 21.9028ZM126.859 28.0747V29.0747H127.708L127.846 28.2371L126.859 28.0747ZM124.82 28.2391L126.638 17.33L124.665 17.0012L122.847 27.9103L124.82 28.2391ZM125.652 18.1656H128.585V16.1656H125.652V18.1656ZM127.599 17L127.279 18.9034L129.252 19.2346L129.571 17.3312L127.599 17ZM128.265 20.069H128.379V18.069H128.265V20.069ZM129.287 19.4881C129.536 18.9487 129.843 18.5958 130.186 18.3704L129.087 16.6994C128.378 17.1654 127.847 17.8351 127.471 18.65L129.287 19.4881ZM130.187 18.3693C130.561 18.1223 130.941 18.0094 131.348 18.0094V16.0094C130.533 16.0094 129.772 16.2468 129.085 16.7006L130.187 18.3693ZM131.348 18.0094C131.458 18.0094 131.578 18.0163 131.71 18.0313L131.937 16.0442C131.737 16.0214 131.541 16.0094 131.348 16.0094V18.0094ZM131.741 18.0343C131.87 18.0451 131.966 18.0617 132.036 18.0789L132.521 16.1387C132.325 16.0896 132.118 16.0589 131.907 16.0412L131.741 18.0343ZM131.292 16.9423L130.838 19.6341L132.81 19.9671L133.264 17.2753L131.292 16.9423ZM132.16 18.8588C131.921 18.7736 131.644 18.7251 131.37 18.6935L131.141 20.6803C131.359 20.7055 131.461 20.7328 131.487 20.7423L132.16 18.8588ZM131.391 18.6962C131.11 18.6576 130.835 18.6372 130.566 18.6372V20.6372C130.734 20.6372 130.918 20.65 131.119 20.6776L131.391 18.6962ZM130.566 18.6372C129.973 18.6372 129.407 18.7695 128.882 19.0385L129.794 20.8183C130.027 20.6991 130.279 20.6372 130.566 20.6372V18.6372ZM128.891 19.034C128.374 19.2924 127.936 19.6565 127.584 20.1168L129.174 21.3309C129.343 21.1094 129.544 20.9432 129.785 20.8228L128.891 19.034ZM127.579 20.1239C127.224 20.5968 126.997 21.1364 126.891 21.7249L128.859 22.0808C128.913 21.7792 129.022 21.5327 129.179 21.3239L127.579 20.1239ZM126.888 21.7405L125.872 27.9123L127.846 28.2371L128.861 22.0652L126.888 21.7405ZM126.859 27.0747H123.833V29.0747H126.859V27.0747ZM58.2511 41.7551L57.2519 41.7151L57.2103 42.7551H58.2511V41.7551ZM57.7326 40.3844L57.0707 41.1339L57.0755 41.1381L57.7326 40.3844ZM54.771 40.1145L55.1195 41.0519L55.13 41.0478L54.771 40.1145ZM53.8832 40.6898L53.1413 40.0192L53.1406 40.02L53.8832 40.6898ZM53.4784 41.5278L54.459 41.7239L54.4624 41.7069L54.4652 41.6898L53.4784 41.5278ZM53.5281 42.2097L52.6125 42.6116L52.6165 42.6209L52.6208 42.6301L53.5281 42.2097ZM53.9471 42.7139L53.3471 43.5139L53.3583 43.5223L53.3697 43.5303L53.9471 42.7139ZM54.6361 43.0761L54.2704 44.0069L54.2776 44.0097L54.2849 44.0125L54.6361 43.0761ZM55.4812 43.3318L55.7238 42.3616L55.7128 42.359L55.4812 43.3318ZM56.7312 43.6443L56.4887 44.6145L56.4967 44.6165L56.5047 44.6183L56.7312 43.6443ZM58.379 44.2125L57.9422 45.1121L57.9457 45.1137L58.379 44.2125ZM59.6147 45.0861L58.8929 45.7782L58.8979 45.7833L59.6147 45.0861ZM60.325 46.3077L59.3653 46.5888V46.5888L60.325 46.3077ZM60.3818 47.9199L61.3676 48.0877L61.3686 48.0818L60.3818 47.9199ZM59.3236 50.2352L60.084 50.8846L60.0863 50.8819L59.3236 50.2352ZM57.1432 51.748L57.5103 52.6782L57.5145 52.6765L57.1432 51.748ZM51.0423 51.7409L51.4484 50.8271L51.0423 51.7409ZM49.2738 50.1429L48.3842 50.5996L48.3879 50.6067L49.2738 50.1429ZM48.9471 47.5079V46.5079H48.0776L47.9568 47.369L48.9471 47.5079ZM51.923 47.5079L52.9173 47.6141L53.0355 46.5079H51.923V47.5079ZM52.1361 48.7295L51.2764 49.2404L51.2808 49.2477L51.2853 49.255L52.1361 48.7295ZM53.0238 49.4611L52.6353 50.3825L52.6448 50.3864L53.0238 49.4611ZM55.8079 49.4753L55.4627 48.5367L55.4592 48.5381L55.8079 49.4753ZM56.8093 48.8432L57.5353 49.5309H57.5353L56.8093 48.8432ZM57.2781 47.9128L56.2928 47.7414L56.291 47.7527L57.2781 47.9128ZM57.129 47.0889L57.9474 46.5143L57.129 47.0889ZM56.3761 46.5207L55.9491 47.425L55.9566 47.4285L55.9642 47.4319L56.3761 46.5207ZM55.1048 46.0946L54.8516 47.062L54.8601 47.0642L54.8687 47.0663L55.1048 46.0946ZM53.5849 45.6969L53.8381 44.7294L53.8311 44.7276L53.5849 45.6969ZM50.9216 44.2977L50.1958 44.9856L50.9216 44.2977ZM50.2753 41.7338L49.2897 41.5642L49.2876 41.5772L50.2753 41.7338ZM51.3761 39.4256L50.6275 38.7625L50.6272 38.7629L51.3761 39.4256ZM53.592 37.8844L53.971 38.8098L53.9735 38.8087L53.592 37.8844ZM59.2596 37.8915L58.8101 38.7848L58.8147 38.787L59.2596 37.8915ZM60.8861 39.4398L61.7753 38.9824L60.8861 39.4398ZM61.1986 41.7551V42.7551H62.0593L62.1874 41.904L61.1986 41.7551ZM59.2503 41.7951C59.2833 40.9705 59.0356 40.1936 58.3898 39.6306L57.0755 41.1381C57.1684 41.2191 57.2663 41.356 57.2519 41.7151L59.2503 41.7951ZM58.3946 39.6348C57.7728 39.0857 56.9382 38.9014 56.0778 38.9014V40.9014C56.6948 40.9014 56.9633 41.0391 57.0707 41.1339L58.3946 39.6348ZM56.0778 38.9014C55.4847 38.9014 54.922 38.985 54.412 39.1811L55.13 41.0478C55.3586 40.9599 55.6671 40.9014 56.0778 40.9014V38.9014ZM54.4225 39.1772C53.9306 39.36 53.4901 39.6334 53.1413 40.0192L54.6251 41.3603C54.7214 41.2537 54.8727 41.1435 55.1195 41.0518L54.4225 39.1772ZM53.1406 40.02C52.796 40.4021 52.5751 40.8571 52.4916 41.3658L54.4652 41.6898C54.4858 41.5641 54.5348 41.4604 54.6258 41.3595L53.1406 40.02ZM52.4978 41.3317C52.4157 41.7423 52.4259 42.1868 52.6125 42.6116L54.4437 41.8077C54.4502 41.8224 54.4497 41.8294 54.4491 41.8209C54.4484 41.8106 54.4478 41.7799 54.459 41.7239L52.4978 41.3317ZM52.6208 42.6301C52.7874 42.9897 53.0399 43.2835 53.3471 43.5139L54.5471 41.9139C54.4756 41.8603 54.4487 41.8179 54.4354 41.7892L52.6208 42.6301ZM53.3697 43.5303C53.641 43.7222 53.9446 43.8789 54.2704 44.0069L55.0017 42.1454C54.7972 42.065 54.6415 41.9802 54.5246 41.8975L53.3697 43.5303ZM54.2849 44.0125C54.5922 44.1277 54.9141 44.2247 55.2496 44.3046L55.7128 42.359C55.4518 42.2969 55.2102 42.2234 54.9872 42.1398L54.2849 44.0125ZM55.2387 44.302L56.4887 44.6145L56.9738 42.6742L55.7238 42.3617L55.2387 44.302ZM56.5047 44.6183C57.0539 44.746 57.5311 44.9125 57.9422 45.1121L58.8157 43.3129C58.2514 43.039 57.6301 42.8267 56.9577 42.6703L56.5047 44.6183ZM57.9457 45.1137C58.3452 45.3058 58.6552 45.5302 58.893 45.7782L60.3365 44.3939C59.9114 43.9506 59.3975 43.5926 58.8122 43.3112L57.9457 45.1137ZM58.8979 45.7833C59.1189 46.0105 59.2732 46.2743 59.3653 46.5888L61.2846 46.0265C61.1021 45.4035 60.783 44.8529 60.3316 44.3889L58.8979 45.7833ZM59.3653 46.5888C59.4511 46.8817 59.4762 47.2628 59.395 47.758L61.3686 48.0818C61.4862 47.3649 61.4735 46.6712 61.2846 46.0265L59.3653 46.5888ZM59.396 47.7521C59.2728 48.4754 58.9925 49.0794 58.5608 49.5885L60.0863 50.8819C60.7626 50.0842 61.1877 49.1446 61.3676 48.0877L59.396 47.7521ZM58.5631 49.5858C58.1279 50.0955 57.5417 50.5116 56.7718 50.8195L57.5145 52.6765C58.5439 52.2647 59.4113 51.6723 60.084 50.8846L58.5631 49.5858ZM56.776 50.8178C56.0162 51.1177 55.1035 51.2807 54.0182 51.2807V53.2807C55.3003 53.2807 56.4708 53.0885 57.5103 52.6782L56.776 50.8178ZM54.0182 51.2807C52.9406 51.2807 52.0959 51.1148 51.4484 50.8271L50.6362 52.6547C51.6081 53.0867 52.7473 53.2807 54.0182 53.2807V51.2807ZM51.4484 50.8271C50.8203 50.5479 50.4127 50.1622 50.1598 49.6791L48.3879 50.6067C48.8737 51.5346 49.645 52.2142 50.6362 52.6547L51.4484 50.8271ZM50.1635 49.6862C49.9192 49.2104 49.8101 48.5544 49.9374 47.6469L47.9568 47.369C47.7906 48.5543 47.8993 49.6549 48.3842 50.5996L50.1635 49.6862ZM48.9471 48.5079H51.923V46.5079H48.9471V48.5079ZM50.9286 47.4018C50.8603 48.0416 50.9435 48.6802 51.2764 49.2404L52.9957 48.2187C52.9403 48.1255 52.8815 47.9497 52.9173 47.6141L50.9286 47.4018ZM51.2853 49.255C51.6069 49.7758 52.0762 50.1467 52.6353 50.3825L53.4124 48.5396C53.1855 48.444 53.0629 48.3272 52.9869 48.204L51.2853 49.255ZM52.6448 50.3864C53.1839 50.6073 53.7797 50.7025 54.4088 50.7025V48.7025C53.9773 48.7025 53.6497 48.6368 53.4029 48.5357L52.6448 50.3864ZM54.4088 50.7025C55.0292 50.7025 55.6172 50.6132 56.1567 50.4125L55.4592 48.5381C55.1842 48.6404 54.8395 48.7025 54.4088 48.7025V50.7025ZM56.1531 50.4138C56.6837 50.2187 57.1562 49.9311 57.5353 49.5309L56.0834 48.1554C55.9511 48.295 55.7561 48.4288 55.4627 48.5367L56.1531 50.4138ZM57.5353 49.5309C57.9221 49.1226 58.1747 48.631 58.2652 48.0728L56.291 47.7527C56.2679 47.8953 56.208 48.0239 56.0834 48.1554L57.5353 49.5309ZM58.2633 48.0841C58.3549 47.5575 58.288 46.9995 57.9474 46.5143L56.3105 47.6635C56.308 47.6599 56.3049 47.6545 56.3023 47.6483C56.2998 47.6422 56.2992 47.6388 56.2994 47.6399C56.2998 47.6423 56.3049 47.6725 56.2929 47.7414L58.2633 48.0841ZM57.9474 46.5143C57.6553 46.0984 57.2354 45.8118 56.788 45.6095L55.9642 47.4319C56.2081 47.5422 56.2901 47.6344 56.3105 47.6635L57.9474 46.5143ZM56.8031 45.6165C56.3828 45.418 55.8903 45.2564 55.3409 45.1229L54.8687 47.0663C55.3326 47.179 55.6876 47.3015 55.9491 47.425L56.8031 45.6165ZM55.358 45.1272L53.8381 44.7294L53.3318 46.6643L54.8516 47.062L55.358 45.1272ZM53.8311 44.7276C52.7721 44.4586 52.0776 44.0638 51.6474 43.6098L50.1958 44.9856C50.9682 45.8006 52.0492 46.3385 53.3387 46.6661L53.8311 44.7276ZM51.6474 43.6098C51.3117 43.2557 51.1279 42.7415 51.2629 41.8904L49.2876 41.5772C49.0817 42.8758 49.3288 44.0708 50.1958 44.9856L51.6474 43.6098ZM51.2608 41.9034C51.3813 41.2026 51.668 40.6047 52.125 40.0882L50.6272 38.7629C49.9195 39.5627 49.4722 40.5036 49.2897 41.5642L51.2608 41.9034ZM52.1247 40.0886C52.6018 39.55 53.2101 39.1214 53.971 38.8098L53.213 36.959C52.1936 37.3765 51.3247 37.9754 50.6275 38.7625L52.1247 40.0886ZM53.9735 38.8087C54.7363 38.4939 55.583 38.3304 56.5253 38.3304V36.3304C55.3463 36.3304 54.2375 36.5362 53.2105 36.96L53.9735 38.8087ZM56.5253 38.3304C57.4935 38.3304 58.2414 38.4986 58.8101 38.7848L59.7091 36.9982C58.7911 36.5363 57.7161 36.3304 56.5253 36.3304V38.3304ZM58.8147 38.787C59.3898 39.0727 59.7645 39.4454 59.9968 39.8971L61.7753 38.9824C61.3258 38.1084 60.6162 37.4488 59.7046 36.9959L58.8147 38.787ZM59.9968 39.8971C60.2242 40.3393 60.3173 40.8916 60.2097 41.6062L62.1874 41.904C62.345 40.8572 62.2298 39.866 61.7753 38.9824L59.9968 39.8971ZM61.1986 40.7551H58.2511V42.7551H61.1986V40.7551ZM65.7955 45.7679L66.7819 45.9323L66.7827 45.9274L65.7955 45.7679ZM64.7444 52.0747V53.0747H65.5915L65.7308 52.2391L64.7444 52.0747ZM61.7259 52.0747L60.7394 51.9109L60.5462 53.0747H61.7259V52.0747ZM64.1407 37.5293V36.5293H63.293L63.1542 37.3655L64.1407 37.5293ZM67.0739 37.5293L68.0608 37.6906L68.2507 36.5293H67.0739V37.5293ZM66.1648 43.0903L65.1779 42.929L64.9881 44.0903H66.1648V43.0903ZM66.2856 43.0903V44.0903H66.8799L67.1639 43.5683L66.2856 43.0903ZM67.7273 41.5775L68.2399 42.4362L68.2447 42.4333L67.7273 41.5775ZM71.7898 41.5207L71.2423 42.3576L71.2514 42.3634L71.7898 41.5207ZM72.8765 42.9341L71.9315 43.2612L71.9323 43.2635L72.8765 42.9341ZM72.983 45.1287L73.9692 45.2941L73.9694 45.2931L72.983 45.1287ZM71.8182 52.0747V53.0747H72.6645L72.8045 52.2401L71.8182 52.0747ZM68.7998 52.0747L67.8133 51.9107L67.6197 53.0747H68.7998V52.0747ZM69.8651 45.6685L70.8516 45.8325L70.8522 45.8283L69.8651 45.6685ZM69.6023 44.0989L68.8011 44.6973L68.806 44.7037L69.6023 44.0989ZM67.1307 43.8006L66.6786 42.9086H66.6786L67.1307 43.8006ZM66.2571 44.5676L65.4395 43.9918L65.4379 43.9941L66.2571 44.5676ZM64.8091 45.6035L63.758 51.9103L65.7308 52.2391L66.7819 45.9323L64.8091 45.6035ZM64.7444 51.0747H61.7259V53.0747H64.7444V51.0747ZM62.7124 52.2385L65.1272 37.693L63.1542 37.3655L60.7394 51.9109L62.7124 52.2385ZM64.1407 38.5293H67.0739V36.5293H64.1407V38.5293ZM66.087 37.3679L65.1779 42.929L67.1517 43.2517L68.0608 37.6906L66.087 37.3679ZM66.1648 44.0903H66.2856V42.0903H66.1648V44.0903ZM67.1639 43.5683C67.4314 43.0767 67.7878 42.7061 68.2399 42.4362L67.2148 40.7189C66.4453 41.1782 65.8404 41.8161 65.4072 42.6124L67.1639 43.5683ZM68.2447 42.4333C68.6749 42.1732 69.2116 42.0236 69.8935 42.0236V40.0236C68.9087 40.0236 68.0013 40.2433 67.2099 40.7218L68.2447 42.4333ZM69.8935 42.0236C70.5055 42.0236 70.935 42.1565 71.2424 42.3576L72.3373 40.6839C71.6314 40.2221 70.7967 40.0236 69.8935 40.0236V42.0236ZM71.2514 42.3634C71.5587 42.5597 71.7863 42.8417 71.9315 43.2612L73.8215 42.607C73.5405 41.7954 73.0437 41.1351 72.3282 40.678L71.2514 42.3634ZM71.9323 43.2635C72.0746 43.6715 72.12 44.2241 71.9966 44.9643L73.9694 45.2931C74.1301 44.3287 74.1045 43.4183 73.8207 42.6047L71.9323 43.2635ZM71.9968 44.9633L70.832 51.9093L72.8045 52.2401L73.9692 45.2941L71.9968 44.9633ZM71.8182 51.0747H68.7998V53.0747H71.8182V51.0747ZM69.7862 52.2388L70.8516 45.8325L68.8787 45.5044L67.8133 51.9107L69.7862 52.2388ZM70.8522 45.8283C70.985 45.0085 70.9109 44.1685 70.3987 43.494L68.806 44.7037C68.8619 44.7773 68.963 44.9837 68.878 45.5086L70.8522 45.8283ZM70.4035 43.5005C69.8798 42.7992 69.0871 42.5378 68.2671 42.5378V44.5378C68.6687 44.5378 68.7662 44.6504 68.8011 44.6972L70.4035 43.5005ZM68.2671 42.5378C67.7082 42.5378 67.1732 42.6579 66.6786 42.9086L67.5828 44.6925C67.7796 44.5928 68.0021 44.5378 68.2671 44.5378V42.5378ZM66.6786 42.9086C66.1782 43.1622 65.7645 43.5304 65.4395 43.9918L67.0748 45.1434C67.2233 44.9325 67.3919 44.7893 67.5828 44.6925L66.6786 42.9086ZM65.4379 43.9941C65.1056 44.4688 64.904 45.0164 64.8083 45.6083L66.7827 45.9274C66.8385 45.5819 66.9446 45.3293 67.0764 45.1411L65.4379 43.9941ZM76.3512 51.606L75.8208 52.4537L75.8247 52.4561L76.3512 51.606ZM74.803 49.6599L73.8586 49.9889L73.8609 49.9953L74.803 49.6599ZM74.6538 46.6699L73.6678 46.5035L73.6677 46.5035L74.6538 46.6699ZM75.7973 43.7153L74.9709 43.1521L74.9688 43.1553L75.7973 43.7153ZM77.9706 41.7338L77.4931 40.8552L77.9706 41.7338ZM82.8356 41.3716L82.4655 42.3006L82.4746 42.3041L82.8356 41.3716ZM84.2987 42.4085L83.5318 43.0502L83.535 43.0541L84.2987 42.4085ZM85.0942 44.1344L84.1146 44.3356L84.116 44.3421L85.0942 44.1344ZM85.0871 46.5633L84.1001 46.4022L84.1 46.403L85.0871 46.5633ZM84.9521 47.3943V48.3943H85.8028L85.9392 47.5546L84.9521 47.3943ZM75.7476 47.3943L74.7594 47.2408L74.5803 48.3943H75.7476V47.3943ZM76.0387 45.5193V44.5193H75.1821L75.0506 45.3658L76.0387 45.5193ZM82.4024 45.5193V46.5193H83.2525L83.3894 45.6802L82.4024 45.5193ZM82.3172 44.3616L81.3825 44.7171L82.3172 44.3616ZM81.678 43.5733L81.1325 44.4115L81.142 44.4175L81.678 43.5733ZM79.3271 43.6088L79.8164 44.4809L79.3271 43.6088ZM78.347 44.4682L77.5457 43.8699L77.5444 43.8717L78.347 44.4682ZM77.8427 45.6116L76.8592 45.4308L76.8584 45.4351L77.8427 45.6116ZM77.5089 47.4724L76.5245 47.2958L76.5223 47.3094L77.5089 47.4724ZM77.5657 48.9L76.6218 49.2304L76.6256 49.2408L77.5657 48.9ZM78.276 49.7523L77.7851 50.6236L77.7945 50.6287L78.276 49.7523ZM80.499 49.8872L80.1964 48.9341L80.192 48.9355L80.499 49.8872ZM81.2944 49.4682L81.9172 50.2507L81.9268 50.2428L81.2944 49.4682ZM81.8626 48.765L81.9293 47.7673L81.28 47.7239L80.9774 48.2999L81.8626 48.765ZM84.6254 48.9497L85.5601 49.3052L86.0404 48.0421L84.6921 47.9519L84.6254 48.9497ZM83.4606 50.7111L84.1511 51.4344L84.1545 51.4311L83.4606 50.7111ZM81.5785 51.8758L81.931 52.8117L81.9343 52.8104L81.5785 51.8758ZM79.1282 51.2878C78.143 51.2878 77.4133 51.0875 76.8778 50.7558L75.8247 52.4561C76.757 53.0335 77.8786 53.2878 79.1282 53.2878V51.2878ZM76.8817 50.7583C76.3445 50.422 75.97 49.9567 75.7451 49.3246L73.8609 49.9953C74.2325 51.0393 74.8902 51.8713 75.8208 52.4536L76.8817 50.7583ZM75.7473 49.331C75.5236 48.6886 75.4654 47.8703 75.6399 46.8363L73.6677 46.5035C73.454 47.7706 73.4952 48.9456 73.8586 49.9889L75.7473 49.331ZM75.6399 46.8363C75.8082 45.8392 76.1415 44.9918 76.6257 44.2754L74.9688 43.1553C74.3072 44.134 73.8783 45.2563 73.6678 46.5035L75.6399 46.8363ZM76.6236 44.2785C77.1149 43.5577 77.7215 43.0073 78.4481 42.6124L77.4931 40.8552C76.4773 41.4072 75.635 42.1779 74.9709 43.1521L76.6236 44.2785ZM78.4481 42.6124C79.1613 42.2248 79.9657 42.0236 80.8825 42.0236V40.0236C79.6592 40.0236 78.5223 40.2958 77.4931 40.8552L78.4481 42.6124ZM80.8825 42.0236C81.494 42.0236 82.017 42.1219 82.4655 42.3006L83.2057 40.4426C82.4895 40.1573 81.7104 40.0236 80.8825 40.0236V42.0236ZM82.4746 42.3041C82.9107 42.4729 83.2565 42.7213 83.5318 43.0502L85.0656 41.7668C84.5643 41.1677 83.9348 40.7248 83.1966 40.439L82.4746 42.3041ZM83.535 43.0541C83.798 43.3651 84.0004 43.7797 84.1146 44.3356L86.0737 43.9331C85.9038 43.1065 85.576 42.3704 85.0624 41.7629L83.535 43.0541ZM84.116 44.3421C84.23 44.8792 84.2379 45.5584 84.1001 46.4022L86.074 46.7245C86.2393 45.7122 86.2519 44.7721 86.0723 43.9267L84.116 44.3421ZM84.1 46.403L83.965 47.234L85.9392 47.5546L86.0741 46.7236L84.1 46.403ZM84.9521 46.3943H75.7476V48.3943H84.9521V46.3943ZM76.7357 47.5478L77.0269 45.6728L75.0506 45.3658L74.7594 47.2408L76.7357 47.5478ZM76.0387 46.5193H82.4024V44.5193H76.0387V46.5193ZM83.3894 45.6802C83.4823 45.1101 83.455 44.5404 83.2519 44.0062L81.3825 44.7171C81.435 44.8552 81.4645 45.0573 81.4154 45.3584L83.3894 45.6802ZM83.2519 44.0062C83.0488 43.4722 82.6979 43.0363 82.214 42.7291L81.142 44.4175C81.2546 44.489 81.3298 44.5787 81.3825 44.7171L83.2519 44.0062ZM82.2234 42.7351C81.7297 42.4139 81.1627 42.2821 80.5771 42.2821V44.2821C80.8627 44.2821 81.0296 44.3444 81.1325 44.4114L82.2234 42.7351ZM80.5771 42.2821C79.9606 42.2821 79.3755 42.435 78.8379 42.7367L79.8164 44.4809C80.0552 44.3469 80.3034 44.2821 80.5771 44.2821V42.2821ZM78.8379 42.7367C78.3281 43.0226 77.895 43.4021 77.5457 43.8699L79.1483 45.0665C79.3293 44.824 79.5496 44.6306 79.8164 44.4809L78.8379 42.7367ZM77.5444 43.8717C77.1966 44.3396 76.9639 44.8618 76.8592 45.4308L78.8262 45.7925C78.8731 45.5376 78.9765 45.2976 79.1496 45.0647L77.5444 43.8717ZM76.8584 45.4351L76.5246 47.2959L78.4932 47.649L78.827 45.7882L76.8584 45.4351ZM76.5223 47.3094C76.4117 47.9786 76.4146 48.6382 76.6219 49.2303L78.5096 48.5696C78.4517 48.4042 78.4168 48.1121 78.4955 47.6355L76.5223 47.3094ZM76.6256 49.2408C76.8405 49.8336 77.2308 50.3112 77.7851 50.6235L78.7668 48.881C78.6488 48.8146 78.5656 48.724 78.5059 48.5592L76.6256 49.2408ZM77.7945 50.6287C78.3204 50.9176 78.9258 51.0293 79.5544 51.0293V49.0293C79.1508 49.0293 78.9038 48.9562 78.7574 48.8758L77.7945 50.6287ZM79.5544 51.0293C79.9855 51.0293 80.4047 50.9684 80.806 50.8389L80.192 48.9355C80.0061 48.9955 79.7957 49.0293 79.5544 49.0293V51.0293ZM80.8016 50.8403C81.2096 50.7108 81.5845 50.5153 81.9172 50.2506L80.6717 48.6857C80.5403 48.7903 80.385 48.8742 80.1964 48.9341L80.8016 50.8403ZM81.9268 50.2428C82.2686 49.9638 82.5419 49.6222 82.7479 49.2302L80.9774 48.2999C80.8898 48.4666 80.7843 48.5938 80.6621 48.6935L81.9268 50.2428ZM81.7959 49.7628L84.5587 49.9475L84.6921 47.9519L81.9293 47.7673L81.7959 49.7628ZM83.6907 48.5943C83.4877 49.128 83.182 49.5908 82.7667 49.991L84.1545 51.4311C84.7809 50.8275 85.2517 50.1161 85.5601 49.3052L83.6907 48.5943ZM82.7701 49.9877C82.3541 50.3848 81.8435 50.705 81.2228 50.9413L81.9343 52.8104C82.7813 52.488 83.5255 52.0316 84.1511 51.4344L82.7701 49.9877ZM81.2261 50.94C80.6261 51.166 79.9312 51.2878 79.1282 51.2878V53.2878C80.134 53.2878 81.0726 53.135 81.931 52.8117L81.2261 50.94ZM88.3239 51.606L87.7934 52.4537L87.7974 52.4561L88.3239 51.606ZM86.7756 49.6599L85.8312 49.9889L85.8335 49.9953L86.7756 49.6599ZM86.6265 46.6699L85.6404 46.5035L85.6404 46.5035L86.6265 46.6699ZM87.7699 43.7153L86.9436 43.1521L86.9415 43.1553L87.7699 43.7153ZM89.9432 41.7338L89.4657 40.8552L89.9432 41.7338ZM94.8083 41.3716L94.4382 42.3006L94.4473 42.3041L94.8083 41.3716ZM96.2714 42.4085L95.5044 43.0502L95.5077 43.0541L96.2714 42.4085ZM97.0668 44.1344L96.0872 44.3356L96.0886 44.3421L97.0668 44.1344ZM97.0597 46.5633L96.0728 46.4022L96.0726 46.403L97.0597 46.5633ZM96.9248 47.3943V48.3943H97.7755L97.9118 47.5546L96.9248 47.3943ZM87.7202 47.3943L86.7321 47.2408L86.5529 48.3943H87.7202V47.3943ZM88.0114 45.5193V44.5193H87.1547L87.0233 45.3658L88.0114 45.5193ZM94.375 45.5193V46.5193H95.2252L95.362 45.6802L94.375 45.5193ZM94.2898 44.3616L93.3551 44.7171L94.2898 44.3616ZM93.6506 43.5733L93.1051 44.4115L93.1146 44.4175L93.6506 43.5733ZM91.2998 43.6088L91.789 44.4809L91.2998 43.6088ZM90.3196 44.4682L89.5184 43.8699L89.5171 43.8717L90.3196 44.4682ZM89.8154 45.6116L88.8319 45.4308L88.8311 45.4351L89.8154 45.6116ZM89.4816 47.4724L88.4972 47.2958L88.495 47.3094L89.4816 47.4724ZM89.5384 48.9L88.5945 49.2304L88.5983 49.2408L89.5384 48.9ZM90.2486 49.7523L89.7578 50.6236L89.7672 50.6287L90.2486 49.7523ZM92.4716 49.8872L92.1691 48.9341L92.1646 48.9355L92.4716 49.8872ZM93.2671 49.4682L93.8899 50.2507L93.8995 50.2428L93.2671 49.4682ZM93.8353 48.765L93.902 47.7673L93.2527 47.7239L92.95 48.2999L93.8353 48.765ZM96.5981 48.9497L97.5328 49.3052L98.0131 48.0421L96.6647 47.9519L96.5981 48.9497ZM95.4333 50.7111L96.1238 51.4344L96.1272 51.4311L95.4333 50.7111ZM93.5512 51.8758L93.9036 52.8117L93.9069 52.8104L93.5512 51.8758ZM91.1009 51.2878C90.1157 51.2878 89.3859 51.0875 88.8505 50.7558L87.7974 52.4561C88.7297 53.0335 89.8513 53.2878 91.1009 53.2878V51.2878ZM88.8544 50.7583C88.3171 50.422 87.9427 49.9567 87.7177 49.3246L85.8335 49.9953C86.2051 51.0393 86.8629 51.8713 87.7934 52.4536L88.8544 50.7583ZM87.72 49.331C87.4962 48.6886 87.4381 47.8703 87.6125 46.8363L85.6404 46.5035C85.4266 47.7706 85.4679 48.9456 85.8313 49.9889L87.72 49.331ZM87.6125 46.8363C87.7808 45.8392 88.1141 44.9918 88.5984 44.2754L86.9415 43.1553C86.2799 44.134 85.8509 45.2563 85.6404 46.5035L87.6125 46.8363ZM88.5963 44.2785C89.0876 43.5577 89.6941 43.0073 90.4207 42.6124L89.4657 40.8552C88.4499 41.4072 87.6076 42.1779 86.9436 43.1521L88.5963 44.2785ZM90.4207 42.6124C91.1339 42.2248 91.9383 42.0236 92.8552 42.0236V40.0236C91.6319 40.0236 90.495 40.2958 89.4657 40.8552L90.4207 42.6124ZM92.8552 42.0236C93.4667 42.0236 93.9897 42.1219 94.4382 42.3006L95.1784 40.4426C94.4621 40.1573 93.683 40.0236 92.8552 40.0236V42.0236ZM94.4473 42.3041C94.8833 42.4729 95.2292 42.7213 95.5044 43.0502L97.0383 41.7668C96.537 41.1677 95.9075 40.7248 95.1693 40.439L94.4473 42.3041ZM95.5077 43.0541C95.7706 43.3651 95.973 43.7797 96.0873 44.3356L98.0463 43.9331C97.8765 43.1065 97.5486 42.3704 97.035 41.7629L95.5077 43.0541ZM96.0886 44.3421C96.2027 44.8792 96.2105 45.5584 96.0728 46.4022L98.0466 46.7245C98.2119 45.7122 98.2245 44.7721 98.045 43.9267L96.0886 44.3421ZM96.0726 46.403L95.9377 47.234L97.9118 47.5546L98.0468 46.7236L96.0726 46.403ZM96.9248 46.3943H87.7202V48.3943H96.9248V46.3943ZM88.7084 47.5478L88.9996 45.6728L87.0233 45.3658L86.7321 47.2408L88.7084 47.5478ZM88.0114 46.5193H94.375V44.5193H88.0114V46.5193ZM95.362 45.6802C95.455 45.1101 95.4277 44.5404 95.2245 44.0062L93.3551 44.7171C93.4076 44.8552 93.4372 45.0573 93.3881 45.3584L95.362 45.6802ZM95.2245 44.0062C95.0215 43.4722 94.6705 43.0363 94.1866 42.7291L93.1146 44.4175C93.2273 44.489 93.3025 44.5787 93.3551 44.7171L95.2245 44.0062ZM94.1961 42.7351C93.7024 42.4139 93.1354 42.2821 92.5498 42.2821V44.2821C92.8353 44.2821 93.0022 44.3444 93.1052 44.4114L94.1961 42.7351ZM92.5498 42.2821C91.9333 42.2821 91.3482 42.435 90.8105 42.7367L91.789 44.4809C92.0279 44.3469 92.2761 44.2821 92.5498 44.2821V42.2821ZM90.8105 42.7367C90.3008 43.0226 89.8676 43.4021 89.5184 43.8699L91.1209 45.0665C91.302 44.824 91.5222 44.6306 91.789 44.4809L90.8105 42.7367ZM89.5171 43.8717C89.1693 44.3396 88.9365 44.8618 88.8319 45.4308L90.7989 45.7925C90.8458 45.5376 90.9492 45.2976 91.1222 45.0647L89.5171 43.8717ZM88.8311 45.4351L88.4973 47.2959L90.4659 47.649L90.7997 45.7882L88.8311 45.4351ZM88.495 47.3094C88.3843 47.9786 88.3873 48.6382 88.5945 49.2303L90.4823 48.5696C90.4243 48.4042 90.3894 48.1121 90.4682 47.6355L88.495 47.3094ZM88.5983 49.2408C88.8132 49.8336 89.2034 50.3112 89.7578 50.6235L90.7395 48.881C90.6215 48.8146 90.5383 48.724 90.4785 48.5592L88.5983 49.2408ZM89.7672 50.6287C90.2931 50.9176 90.8984 51.0293 91.527 51.0293V49.0293C91.1234 49.0293 90.8765 48.9562 90.7301 48.8758L89.7672 50.6287ZM91.527 51.0293C91.9581 51.0293 92.3774 50.9684 92.7786 50.8389L92.1646 48.9355C91.9788 48.9955 91.7683 49.0293 91.527 49.0293V51.0293ZM92.7742 50.8403C93.1822 50.7108 93.5572 50.5153 93.8898 50.2506L92.6443 48.6857C92.513 48.7903 92.3576 48.8742 92.1691 48.9341L92.7742 50.8403ZM93.8995 50.2428C94.2413 49.9638 94.5146 49.6222 94.7205 49.2302L92.95 48.2999C92.8624 48.4666 92.7569 48.5938 92.6347 48.6935L93.8995 50.2428ZM93.7686 49.7628L96.5314 49.9475L96.6647 47.9519L93.902 47.7673L93.7686 49.7628ZM95.6634 48.5943C95.4604 49.128 95.1547 49.5908 94.7394 49.991L96.1272 51.4311C96.7536 50.8275 97.2244 50.1161 97.5328 49.3052L95.6634 48.5943ZM94.7428 49.9877C94.3268 50.3848 93.8162 50.705 93.1954 50.9413L93.9069 52.8104C94.754 52.488 95.4981 52.0316 96.1238 51.4344L94.7428 49.9877ZM93.1987 50.94C92.5988 51.166 91.9039 51.2878 91.1009 51.2878V53.2878C92.1066 53.2878 93.0453 53.135 93.9036 52.8117L93.1987 50.94ZM105.751 41.1656L106.738 41.329L106.93 40.1656H105.751V41.1656ZM105.375 43.4383V44.4383H106.223L106.361 43.6017L105.375 43.4383ZM98.798 43.4383L97.8119 43.2719L97.6151 44.4383H98.798V43.4383ZM99.1815 41.1656V40.1656H98.3361L98.1954 40.9992L99.1815 41.1656ZM101.099 38.552V37.552H100.251L100.113 38.3889L101.099 38.552ZM104.125 38.552L105.111 38.7159L105.305 37.552H104.125V38.552ZM102.434 48.7224L103.42 48.8895L103.421 48.8864L102.434 48.7224ZM102.456 49.3758L101.525 49.7424L101.529 49.7522L102.456 49.3758ZM102.761 49.6954L102.363 50.6131L102.374 50.6176L102.761 49.6954ZM103.72 49.7523L103.879 50.7395L103.895 50.737L103.91 50.734L103.72 49.7523ZM104.054 49.6883L105.052 49.6379L104.995 48.4945L103.869 48.7055L104.054 49.6883ZM104.167 51.9398L104.46 52.8961L105.205 52.6682L105.166 51.8894L104.167 51.9398ZM103.478 52.1102L103.27 51.1322L103.267 51.1329L103.478 52.1102ZM102.47 52.2239L102.433 51.2245L102.431 51.2246L102.47 52.2239ZM100.595 51.9327L100.189 52.8465L100.196 52.8496L100.595 51.9327ZM99.494 50.8886L100.397 50.4598L99.494 50.8886ZM99.352 49.1202L100.336 49.2973L100.337 49.2903L100.339 49.2833L99.352 49.1202ZM104.765 41.0022L104.388 43.2749L106.361 43.6017L106.738 41.329L104.765 41.0022ZM105.375 42.4383H98.798V44.4383H105.375V42.4383ZM99.784 43.6047L100.168 41.332L98.1954 40.9992L97.8119 43.2719L99.784 43.6047ZM99.1815 42.1656H105.751V40.1656H99.1815V42.1656ZM101.099 39.552H104.125V37.552H101.099V39.552ZM103.138 38.388L101.448 48.5585L103.421 48.8864L105.111 38.7159L103.138 38.388ZM101.448 48.5553C101.389 48.905 101.365 49.3368 101.525 49.7424L103.386 49.0093C103.408 49.0641 103.405 49.0894 103.404 49.0627C103.403 49.0371 103.405 48.9818 103.42 48.8895L101.448 48.5553ZM101.529 49.7522C101.683 50.1313 101.966 50.441 102.363 50.613L103.159 48.7779C103.204 48.7975 103.255 48.8304 103.301 48.8785C103.346 48.9258 103.371 48.9713 103.382 48.9995L101.529 49.7522ZM102.374 50.6176C102.673 50.7427 102.986 50.7878 103.287 50.7878V48.7878C103.18 48.7878 103.143 48.7713 103.148 48.7733L102.374 50.6176ZM103.287 50.7878C103.484 50.7878 103.682 50.7713 103.879 50.7395L103.561 48.765C103.464 48.7806 103.373 48.7878 103.287 48.7878V50.7878ZM103.91 50.734C104.056 50.7057 104.165 50.6849 104.238 50.6712L103.869 48.7055C103.791 48.7202 103.677 48.742 103.53 48.7705L103.91 50.734ZM103.055 49.7388L103.169 51.9902L105.166 51.8894L105.052 49.6379L103.055 49.7388ZM103.875 50.9834C103.744 51.0234 103.546 51.0733 103.27 51.1322L103.687 53.0883C103.988 53.024 104.249 52.9603 104.46 52.8961L103.875 50.9834ZM103.267 51.1329C103.056 51.1786 102.781 51.2118 102.433 51.2245L102.506 53.2232C102.935 53.2075 103.333 53.1649 103.69 53.0875L103.267 51.1329ZM102.431 51.2246C101.796 51.249 101.33 51.1621 100.994 51.0157L100.196 52.8496C100.882 53.1483 101.666 53.2555 102.508 53.2231L102.431 51.2246ZM101.001 51.0188C100.689 50.8804 100.509 50.695 100.397 50.4598L98.5906 51.3175C98.924 52.0197 99.4775 52.5304 100.189 52.8465L101.001 51.0188ZM100.397 50.4598C100.293 50.2405 100.231 49.8802 100.336 49.2973L98.3678 48.943C98.217 49.7806 98.2497 50.5993 98.5906 51.3175L100.397 50.4598ZM100.339 49.2833L102.086 38.7151L100.113 38.3889L98.3654 48.9571L100.339 49.2833ZM116.129 44.2764L116.191 45.2745L117.099 45.2182L117.129 44.3094L116.129 44.2764ZM113.381 44.4469L112.382 44.5056L112.441 45.507L113.443 45.445L113.381 44.4469ZM113.182 43.8006L112.319 44.3057L112.326 44.3183L112.334 44.3306L113.182 43.8006ZM112.678 43.3389L112.215 44.2255L112.223 44.2295L112.678 43.3389ZM110.526 43.5094L110.02 42.6464H110.02L110.526 43.5094ZM109.865 44.3829L110.848 44.5672L110.852 44.5477L110.855 44.5281L109.865 44.3829ZM111.016 45.356L110.798 46.3319L110.805 46.3336L110.813 46.3351L111.016 45.356ZM112.933 45.7537L113.142 44.7756L113.136 44.7745L112.933 45.7537ZM115.149 46.8403L114.405 47.5082L114.408 47.512L115.149 46.8403ZM115.639 48.829L116.625 48.9966L116.626 48.9887L115.639 48.829ZM114.723 50.6543L115.447 51.3446L115.45 51.3413L114.723 50.6543ZM112.848 51.8616L113.199 52.798L113.204 52.796L112.848 51.8616ZM106.946 51.3787L107.564 50.5922L106.946 51.3787ZM105.831 48.9142L105.778 47.9156L104.857 47.9643L104.831 48.8868L105.831 48.9142ZM108.786 48.7579L109.784 48.7048L109.731 47.7065L108.733 47.7593L108.786 48.7579ZM109.254 49.7665L108.636 50.5524L108.644 50.5586L109.254 49.7665ZM110.44 50.1074L110.457 49.1075L110.45 49.1074L110.44 50.1074ZM111.875 49.7594L112.399 50.6114L112.401 50.6096L111.875 49.7594ZM112.55 48.8645L111.561 48.7124L111.561 48.7174L112.55 48.8645ZM112.337 48.2679L111.682 49.0243L111.693 49.0328L112.337 48.2679ZM111.371 47.8915L111.578 46.9132L111.574 46.9122L111.371 47.8915ZM109.553 47.515L109.755 46.5358L109.755 46.5357L109.553 47.515ZM107.33 46.3716L106.556 47.0052L107.33 46.3716ZM106.868 44.2764L105.882 44.1109L105.882 44.1111L106.868 44.2764ZM107.713 42.5364L106.982 41.8545L106.981 41.8548L107.713 42.5364ZM109.467 41.4142L109.127 40.4739L109.125 40.4746L109.467 41.4142ZM115.099 41.8971L114.468 42.6725L114.47 42.6745L115.099 41.8971ZM116.067 43.2783L113.319 43.4488L113.443 45.445L116.191 45.2745L116.067 43.2783ZM114.379 44.3881C114.356 43.9937 114.244 43.6136 114.03 43.2706L112.334 44.3306C112.356 44.3663 112.377 44.417 112.382 44.5056L114.379 44.3881ZM114.045 43.2954C113.824 42.9185 113.506 42.6388 113.132 42.4483L112.223 44.2295C112.295 44.2663 112.312 44.2944 112.319 44.3057L114.045 43.2954ZM113.14 42.4523C112.739 42.2428 112.293 42.1685 111.854 42.1685V44.1685C112.078 44.1685 112.181 44.2078 112.215 44.2255L113.14 42.4523ZM111.854 42.1685C111.198 42.1685 110.578 42.3202 110.02 42.6464L111.031 44.3724C111.25 44.244 111.515 44.1685 111.854 44.1685V42.1685ZM110.02 42.6464C109.443 42.9844 108.983 43.5078 108.876 44.2378L110.855 44.5281C110.856 44.5198 110.856 44.5152 110.867 44.5013C110.881 44.4821 110.925 44.4345 111.031 44.3724L110.02 42.6464ZM108.882 44.1987C108.78 44.7434 108.936 45.2775 109.346 45.6758L110.739 44.2407C110.765 44.2654 110.808 44.3196 110.833 44.4023C110.858 44.4837 110.852 44.5457 110.848 44.5672L108.882 44.1987ZM109.346 45.6758C109.726 46.0443 110.302 46.2211 110.798 46.3319L111.234 44.38C111.024 44.3331 110.878 44.2874 110.785 44.2492C110.682 44.2071 110.691 44.194 110.739 44.2407L109.346 45.6758ZM110.813 46.3351L112.73 46.7328L113.136 44.7745L111.219 44.3768L110.813 46.3351ZM112.725 46.7318C113.645 46.9277 114.149 47.2232 114.405 47.5081L115.894 46.1725C115.24 45.4442 114.267 45.0153 113.142 44.7756L112.725 46.7318ZM114.408 47.512C114.62 47.745 114.748 48.0793 114.652 48.6692L116.626 48.9887C116.796 47.9404 116.597 46.949 115.89 46.1687L114.408 47.512ZM114.653 48.6613C114.569 49.1593 114.355 49.5878 113.996 49.9672L115.45 51.3413C116.076 50.6791 116.473 49.8907 116.625 48.9966L114.653 48.6613ZM114 49.9639C113.623 50.3585 113.129 50.6842 112.492 50.9272L113.204 52.796C114.082 52.4615 114.838 51.9822 115.447 51.3446L114 49.9639ZM112.497 50.9253C111.866 51.1618 111.147 51.2878 110.327 51.2878V53.2878C111.353 53.2878 112.315 53.1297 113.199 52.798L112.497 50.9253ZM110.327 51.2878C108.96 51.2878 108.089 51.0051 107.564 50.5922L106.328 52.1652C107.346 52.9644 108.73 53.2878 110.327 53.2878V51.2878ZM107.564 50.5922C107.057 50.1944 106.81 49.6832 106.831 48.9416L104.831 48.8868C104.795 50.2191 105.292 51.3509 106.328 52.1652L107.564 50.5922ZM105.884 49.9128L108.838 49.7565L108.733 47.7593L105.778 47.9156L105.884 49.9128ZM107.787 48.8111C107.822 49.4771 108.073 50.1095 108.636 50.5523L109.873 48.9806C109.858 48.9689 109.796 48.929 109.784 48.7048L107.787 48.8111ZM108.644 50.5586C109.16 50.9559 109.792 51.1013 110.431 51.1073L110.45 49.1074C110.085 49.104 109.927 49.0221 109.865 48.9743L108.644 50.5586ZM110.424 51.1072C111.135 51.1192 111.811 50.9727 112.399 50.6114L111.352 48.9074C111.154 49.029 110.873 49.1145 110.457 49.1075L110.424 51.1072ZM112.401 50.6096C112.964 50.2614 113.431 49.7396 113.539 49.0115L111.561 48.7174C111.56 48.7183 111.561 48.7256 111.544 48.749C111.522 48.7778 111.468 48.8354 111.349 48.9091L112.401 50.6096ZM113.538 49.0165C113.625 48.4502 113.446 47.8948 112.981 47.503L111.693 49.0328C111.663 49.0079 111.614 48.9527 111.583 48.867C111.554 48.7841 111.56 48.7239 111.561 48.7124L113.538 49.0165ZM112.991 47.5115C112.611 47.1831 112.071 47.0178 111.578 46.9132L111.163 48.8697C111.363 48.9121 111.505 48.9547 111.601 48.9919C111.702 49.0316 111.713 49.0503 111.683 49.0243L112.991 47.5115ZM111.574 46.9122L109.755 46.5358L109.35 48.4943L111.168 48.8707L111.574 46.9122ZM109.755 46.5357C108.842 46.3473 108.352 46.0418 108.103 45.738L106.556 47.0052C107.207 47.7999 108.199 48.2566 109.35 48.4944L109.755 46.5357ZM108.103 45.738C107.874 45.4585 107.749 45.0701 107.854 44.4417L105.882 44.1111C105.703 45.1778 105.885 46.1862 106.556 47.0052L108.103 45.738ZM107.854 44.4419C107.937 43.9498 108.134 43.5515 108.445 43.2179L106.981 41.8548C106.392 42.4871 106.026 43.2488 105.882 44.1109L107.854 44.4419ZM108.445 43.2182C108.777 42.8613 109.222 42.5679 109.81 42.3538L109.125 40.4746C108.283 40.7813 107.558 41.236 106.982 41.8545L108.445 43.2182ZM109.808 42.3545C110.4 42.14 111.095 42.0236 111.903 42.0236V40.0236C110.904 40.0236 109.974 40.1675 109.127 40.4739L109.808 42.3545ZM111.903 42.0236C113.206 42.0236 114.005 42.2953 114.468 42.6725L115.731 41.1218C114.764 40.3342 113.432 40.0236 111.903 40.0236V42.0236ZM114.47 42.6745C114.924 43.0412 115.154 43.5221 115.13 44.2434L117.129 44.3094C117.171 43.0231 116.715 41.9179 115.729 41.1198L114.47 42.6745Z" fill="#F5B997"/>
</g>
<defs>
<filter id="filter0_d_111_718" x="0" y="0" width="177" height="77" filterUnits="userSpaceOnUse" color-interpolation-filters="sRGB">
<feFlood flood-opacity="0" result="BackgroundImageFix"/>
<feColorMatrix in="SourceAlpha" type="matrix" values="0 0 0 0 0 0 0 0 0 0 0 0 0 0 0 0 0 0 127 0" result="hardAlpha"/>
<feOffset dx="8" dy="8"/>
<feGaussianBlur stdDeviation="2"/>
<feComposite in2="hardAlpha" operator="out"/>
<feColorMatrix type="matrix" values="0 0 0 0 0 0 0 0 0 0 0 0 0 0 0 0 0 0 0.5 0"/>
<feBlend mode="normal" in2="BackgroundImageFix" result="effect1_dropShadow_111_718"/>
<feBlend mode="normal" in="SourceGraphic" in2="effect1_dropShadow_111_718" result="shape"/>
</filter>
</defs>
</svg>
